<?xml version="1.0" standalone="no"?>
<!DOCTYPE svg PUBLIC "-//W3C//DTD SVG 1.1//EN" "http://www.w3.org/Graphics/SVG/1.1/DTD/svg11.dtd" >
<svg xmlns="http://www.w3.org/2000/svg" xmlns:xlink="http://www.w3.org/1999/xlink" version="1.1">
<metadata>
Created by FontForge 20161003 at Mon Aug  7 11:17:31 2017
 By www-data
Copyright 1992, 1994, 1997, 2000, 2004 Adobe Systems Incorporated. All rights reserved. Myriad is either a registered trademark or a trademark of Adobe Systems Incorporated in the United States and/or other countries.
</metadata>
<defs>
<font id="MyriadPro-BoldCond" horiz-adv-x="300" >
  <font-face 
    font-family="Myriad Pro"
    font-weight="700"
    font-stretch="condensed"
    units-per-em="1000"
    panose-1="2 11 7 6 3 4 3 2 2 4"
    ascent="750"
    descent="-250"
    x-height="489"
    cap-height="674"
    bbox="-150 -250 970 958"
    underline-thickness="50"
    underline-position="-100"
    stemh="92"
    stemv="131"
    unicode-range="U+0020-FB04"
  />
<missing-glyph horiz-adv-x="500" 
d="M0 0v700h500v-700h-500zM250 395l170 255h-340zM280 350l170 -255v510zM80 50h340l-170 255zM50 605v-510l170 255z" />
    <glyph glyph-name="f_f" unicode="ff" horiz-adv-x="531" 
d="M445 0h-131v396h-114v-396h-131v396h-66v93h66v17c0 52 13 104 47 140c27 28 68 46 127 46c18 0 43 -4 57 -9l-22 -100c-9 3 -20 6 -31 6c-36 0 -47 -34 -47 -81v-19h114v20c0 55 11 106 51 146c28 30 70 45 117 45c33 0 60 -5 78 -11l-14 -102c-11 4 -25 6 -41 6
c-43 0 -60 -38 -60 -81v-23h85v-93h-85v-396z" />
    <glyph glyph-name="f_f_i" unicode="ffi" horiz-adv-x="745" 
d="M658 680l-18 -103c-23 8 -53 16 -92 16c-72 0 -92 -40 -92 -86v-18h244v-489h-131v396h-113v-396h-131v396h-125v-396h-131v396h-66v93h66v13c0 68 23 124 71 158c29 21 66 32 108 32c31 0 58 -7 74 -13l-33 -97c-9 4 -19 7 -34 7s-29 -7 -37 -17
c-15 -16 -18 -42 -18 -66v-17h125v26c0 63 40 185 217 185c47 0 90 -8 116 -20z" />
    <glyph glyph-name="f_f_j" unicode="ffj" horiz-adv-x="745" 
d="M658 680l-18 -103c-23 8 -53 16 -92 16c-72 0 -92 -40 -92 -86v-18h244v-454c0 -109 -23 -160 -65 -193c-36 -29 -96 -42 -143 -42l-10 104c23 3 48 8 64 26c19 20 23 55 23 130v336h-113v-396h-131v396h-125v-396h-131v396h-66v93h66v13c0 68 23 124 71 158
c29 21 66 32 108 32c31 0 58 -7 74 -13l-33 -97c-9 4 -19 7 -34 7s-29 -7 -37 -17c-15 -16 -18 -42 -18 -66v-17h125v26c0 63 40 185 217 185c47 0 90 -8 116 -20z" />
    <glyph glyph-name="f_f_l" unicode="ffl" horiz-adv-x="745" 
d="M322 679l-33 -97c-9 4 -19 7 -34 7s-29 -7 -37 -17c-15 -16 -18 -42 -18 -66v-17h125v19c0 36 16 102 60 141c33 29 80 51 159 51c61 0 121 -13 156 -26v-674h-131v591c-11 4 -24 6 -43 6c-51 0 -70 -40 -70 -83v-25h72v-93h-72v-396h-131v396h-125v-396h-131v396h-66v93
h66v13c0 68 23 124 71 158c29 21 66 32 108 32c31 0 58 -7 74 -13z" />
    <glyph glyph-name="f_i" unicode="fi" horiz-adv-x="489" 
d="M200 0h-131v396h-66v93h66v26c0 63 39 185 217 185c47 0 89 -8 116 -20l-19 -103c-22 8 -52 16 -92 16c-71 0 -91 -40 -91 -86v-18h244v-489h-132v396h-112v-396z" />
    <glyph glyph-name="f_j" unicode="fj" horiz-adv-x="489" 
d="M200 0h-131v396h-66v93h66v26c0 63 39 185 217 185c47 0 89 -8 116 -20l-19 -103c-22 8 -52 16 -92 16c-71 0 -91 -40 -91 -86v-18h244v-454c0 -109 -24 -160 -65 -193c-37 -29 -96 -42 -143 -42l-10 104c23 3 48 8 64 26c18 20 22 55 22 130v336h-112v-396z" />
    <glyph glyph-name="f_l" unicode="fl" horiz-adv-x="489" 
d="M200 0h-131v396h-66v93h66v19c0 36 16 102 60 141c33 29 80 51 159 51c61 0 121 -13 156 -26v-674h-132v591c-10 4 -23 6 -42 6c-51 0 -70 -40 -70 -83v-25h71v-93h-71v-396z" />
    <glyph glyph-name=".notdef" horiz-adv-x="500" 
d="M0 0v700h500v-700h-500zM250 395l170 255h-340zM280 350l170 -255v510zM80 50h340l-170 255zM50 605v-510l170 255z" />
    <glyph glyph-name="space" unicode=" " horiz-adv-x="159" 
 />
    <glyph glyph-name="exclam" unicode="!" horiz-adv-x="236" 
d="M174 219h-112l-15 455h143zM119 -8c-43 0 -76 34 -76 80c0 49 35 81 75 81c43 0 75 -32 75 -81c0 -46 -29 -80 -74 -80z" />
    <glyph glyph-name="quotedbl" unicode="&#x22;" horiz-adv-x="331" 
d="M33 682h105l-20 -260h-65zM193 682h106l-21 -260h-64z" />
    <glyph glyph-name="numbersign" unicode="#" horiz-adv-x="426" 
d="M171 270h71l14 115h-71zM137 0h-75l25 195h-72v75h82l14 115h-75v75h85l23 190h74l-23 -190h71l24 190h74l-24 -190h71v-75h-80l-15 -115h75v-75h-84l-25 -195h-75l25 195h-71z" />
    <glyph glyph-name="dollar" unicode="$" horiz-adv-x="426" 
d="M247 -85h-85v102c-43 1 -83 13 -107 26l20 103c29 -17 63 -28 104 -28c48 0 74 28 74 66c0 41 -26 70 -77 102c-79 49 -120 96 -120 174c0 75 45 138 120 163v102h85v-92c40 0 75 -12 99 -25l-22 -100c-21 12 -46 25 -87 25c-47 0 -72 -28 -72 -62s13 -53 82 -95
c85 -51 114 -109 114 -180c0 -89 -51 -151 -128 -170v-111z" />
    <glyph glyph-name="percent" unicode="%" horiz-adv-x="657" 
d="M150 658c97 0 128 -107 128 -197c0 -138 -63 -202 -129 -202c-91 0 -131 99 -131 197c0 106 47 202 132 202zM149 589c-29 0 -43 -48 -43 -130c-1 -84 12 -130 43 -130s41 48 41 129c0 76 -9 131 -41 131zM188 -8h-69l350 666h68zM511 392c97 0 128 -107 128 -196
c0 -138 -63 -202 -129 -202c-91 0 -131 100 -131 197c0 105 47 201 132 201zM510 323c-29 0 -43 -47 -43 -129c-1 -84 13 -130 43 -130s41 48 41 129c0 76 -9 130 -41 130z" />
    <glyph glyph-name="ampersand" unicode="&#x26;" horiz-adv-x="530" 
d="M526 0h-143c-10 14 -19 25 -32 44c-36 -32 -89 -52 -146 -52c-117 0 -186 84 -186 189c0 81 39 142 106 185v2c-35 48 -50 99 -50 146c0 92 64 168 169 168c86 0 148 -60 148 -151c0 -61 -19 -116 -116 -183v-4c29 -44 73 -110 99 -143c23 44 28 107 30 158h111
c-9 -92 -40 -184 -85 -238c22 -28 56 -72 95 -121zM229 89c31 0 53 12 70 32c-35 44 -83 113 -122 169c-19 -19 -38 -51 -38 -93c0 -58 35 -108 90 -108zM239 595c-31 0 -48 -34 -48 -76c0 -38 11 -67 33 -100c42 33 58 67 58 106c0 31 -8 70 -43 70z" />
    <glyph glyph-name="quoteright" unicode="&#x2019;" horiz-adv-x="190" 
d="M71 674l113 8c-28 -90 -70 -180 -113 -252l-67 -9c29 83 56 174 67 253z" />
    <glyph glyph-name="parenleft" unicode="(" horiz-adv-x="258" 
d="M147 692h94c-58 -91 -106 -221 -106 -408c0 -181 48 -310 106 -404h-94c-56 75 -115 212 -115 405c4 195 59 331 115 407z" />
    <glyph glyph-name="parenright" unicode=")" horiz-adv-x="258" 
d="M111 -120h-94c58 92 106 226 106 408s-48 312 -106 404h94c56 -73 115 -206 115 -404c-4 -198 -59 -330 -115 -408z" />
    <glyph glyph-name="asterisk" unicode="*" horiz-adv-x="385" 
d="M245 682l82 -46l-99 -117l1 -3l141 26v-91l-142 26l-1 -3l100 -113l-84 -47l-53 144l-2 -3l-57 -142l-75 47l99 119l-2 1l-138 -29v91l136 -26l3 3l-98 115l82 47l53 -141h3z" />
    <glyph glyph-name="plus" unicode="+" horiz-adv-x="596" 
d="M256 532h84v-224h216v-82h-216v-226h-84v226h-216v82h216v224z" />
    <glyph glyph-name="comma" unicode="," horiz-adv-x="233" 
d="M94 -116l-84 -9c29 83 56 187 67 266l133 10c-30 -90 -72 -195 -116 -267z" />
    <glyph glyph-name="hyphen" unicode="-" horiz-adv-x="259" 
d="M30 323h199v-94h-199v94z" />
    <glyph glyph-name="period" unicode="." horiz-adv-x="233" 
d="M124 -8c-41 0 -76 34 -76 87c0 50 37 87 77 87c42 0 76 -33 76 -87c0 -53 -31 -87 -77 -87z" />
    <glyph glyph-name="slash" unicode="/" horiz-adv-x="280" 
d="M63 -40h-85l234 722h86z" />
    <glyph glyph-name="zero" unicode="0" horiz-adv-x="426" 
d="M218 658c150 0 185 -175 185 -330c0 -233 -85 -336 -190 -336c-142 0 -190 163 -190 330c0 187 60 336 195 336zM216 546c-41 0 -62 -70 -61 -221c-2 -152 17 -221 61 -221c41 0 55 72 55 221c0 139 -13 221 -55 221z" />
    <glyph glyph-name="one" unicode="1" horiz-adv-x="426" 
d="M179 0v527h-2l-110 -57l-22 103l149 77h115v-650h-130z" />
    <glyph glyph-name="two" unicode="2" horiz-adv-x="426" 
d="M380 0h-356v88l65 83c84 107 153 196 153 289c0 52 -29 89 -83 89c-41 0 -74 -18 -98 -33l-23 102c30 19 86 40 145 40c142 0 188 -95 188 -188c0 -122 -76 -220 -151 -307l-39 -46v-2h199v-115z" />
    <glyph glyph-name="three" unicode="3" horiz-adv-x="426" 
d="M24 21l19 103c26 -15 62 -25 97 -25c63 0 98 39 98 94c0 72 -55 103 -122 103h-18v96h13c48 1 110 21 110 84c0 47 -30 75 -76 75c-29 0 -58 -11 -82 -26l-17 99c27 17 80 34 134 34c114 0 171 -74 171 -157c0 -65 -36 -119 -93 -146v-2c63 -21 111 -77 111 -165
c0 -99 -76 -196 -217 -196c-53 0 -99 13 -128 29z" />
    <glyph glyph-name="four" unicode="4" horiz-adv-x="426" 
d="M350 0h-116v155h-223v90l213 405h126v-390h65v-105h-65v-155zM122 260h112v133c0 35 4 73 7 107h-4c-15 -36 -28 -65 -45 -101l-70 -137v-2z" />
    <glyph glyph-name="five" unicode="5" horiz-adv-x="426" 
d="M365 650v-114h-172l-15 -116h20c28 -1 85 -14 122 -49c36 -35 56 -84 56 -149c0 -127 -84 -230 -226 -230c-46 0 -96 12 -122 26l20 104c24 -12 58 -23 93 -23c64 0 106 41 106 111c0 87 -66 116 -141 116c-18 0 -33 0 -46 -2l36 326h269z" />
    <glyph glyph-name="six" unicode="6" horiz-adv-x="426" 
d="M355 658v-106c-16 -1 -34 -3 -54 -7c-86 -19 -129 -91 -145 -173h3c23 31 57 52 100 52c88 0 147 -79 147 -202c0 -114 -58 -230 -185 -230c-123 0 -198 107 -198 268c0 142 47 239 107 303c42 47 105 78 159 88c31 6 52 6 66 7zM219 87c44 0 58 58 58 136
c-1 55 -19 107 -61 107c-21 0 -41 -14 -53 -44c-4 -7 -7 -27 -7 -57c0 -85 24 -142 63 -142z" />
    <glyph glyph-name="seven" unicode="7" horiz-adv-x="426" 
d="M39 650h354v-86l-204 -564h-128l200 533v2h-222v115z" />
    <glyph glyph-name="eight" unicode="8" horiz-adv-x="426" 
d="M210 -8c-111 0 -190 71 -190 177c0 81 45 139 98 173v2c-55 36 -80 92 -80 143c0 106 84 171 184 171c93 0 168 -63 168 -160c0 -43 -17 -101 -85 -144v-2c60 -33 100 -93 100 -170c0 -120 -88 -190 -195 -190zM215 80c41 0 63 42 63 97c0 61 -38 101 -75 120
c-33 -23 -56 -63 -56 -113c0 -56 23 -104 68 -104zM217 570c-38 0 -56 -39 -56 -79c0 -46 26 -78 64 -98c28 15 45 55 45 93c0 44 -15 84 -53 84z" />
    <glyph glyph-name="nine" unicode="9" horiz-adv-x="426" 
d="M74 -8v109c25 0 38 1 60 5c25 5 54 18 76 39c28 27 52 73 63 131h-3c-21 -23 -51 -40 -93 -40c-84 0 -153 75 -153 194c0 112 69 228 194 228c121 0 184 -110 184 -267c0 -147 -47 -250 -107 -314c-40 -43 -97 -72 -160 -82c-21 -3 -41 -3 -61 -3zM211 563
c-34 0 -59 -43 -58 -122c1 -63 21 -115 61 -115c23 0 43 17 50 34c5 13 6 26 6 69c0 86 -24 134 -59 134z" />
    <glyph glyph-name="colon" unicode=":" horiz-adv-x="233" 
d="M124 320c-41 0 -73 34 -73 82c0 47 34 84 74 84c42 0 74 -33 74 -84c0 -48 -29 -82 -75 -82zM124 -8c-41 0 -73 34 -73 83c0 46 34 83 74 83c42 0 74 -33 74 -83c0 -49 -29 -83 -75 -83z" />
    <glyph glyph-name="semicolon" unicode=";" horiz-adv-x="233" 
d="M91 -116l-80 -9c29 83 56 187 67 266l129 10c-30 -90 -72 -195 -116 -267zM129 320c-41 0 -73 34 -73 82c0 47 33 84 74 84c42 0 74 -33 74 -84c0 -48 -29 -82 -75 -82z" />
    <glyph glyph-name="less" unicode="&#x3c;" horiz-adv-x="596" 
d="M58 235v62l480 235v-102l-352 -164v-2l352 -163v-101z" />
    <glyph glyph-name="equal" unicode="=" horiz-adv-x="596" 
d="M556 320h-516v82h516v-82zM556 133h-516v82h516v-82z" />
    <glyph glyph-name="greater" unicode="&#x3e;" horiz-adv-x="596" 
d="M538 310v-88l-480 -222v99l384 166v2l-384 166v99z" />
    <glyph glyph-name="question" unicode="?" horiz-adv-x="334" 
d="M199 208h-111l-2 18c-7 59 16 112 53 170c29 43 43 73 43 111c0 37 -25 62 -66 62c-22 0 -45 -4 -64 -18l-22 101c21 14 68 30 117 30c132 0 169 -87 169 -154c0 -69 -39 -125 -74 -176c-27 -41 -44 -76 -43 -123v-21zM145 -8c-43 0 -75 34 -75 80c0 49 35 81 74 82
c43 0 75 -33 75 -82c0 -46 -28 -80 -74 -80z" />
    <glyph glyph-name="at" unicode="@" horiz-adv-x="621" 
d="M348 232l23 130c-7 4 -15 5 -26 5c-47 0 -100 -76 -100 -177c0 -35 11 -56 35 -56c31 0 60 50 68 98zM426 -16l15 -42c-52 -30 -102 -40 -159 -40c-127 0 -251 101 -251 299c0 200 129 391 324 391c160 0 236 -123 236 -258c0 -173 -61 -269 -158 -269
c-50 0 -73 31 -73 85h-3c-24 -54 -66 -85 -110 -85c-53 0 -86 46 -86 120c0 125 77 243 207 243c33 0 71 -9 93 -21l-34 -184c-13 -72 -2 -103 28 -103c40 0 82 66 82 200c0 128 -58 227 -193 227c-132 0 -258 -138 -258 -346c0 -170 90 -253 210 -253c47 0 90 13 130 36z
" />
    <glyph glyph-name="A" unicode="A" horiz-adv-x="458" 
d="M286 154h-121l-30 -154h-127l146 674h157l131 -674h-127zM178 256h96l-22 141c-7 41 -16 108 -22 153h-3c-7 -45 -17 -115 -24 -154z" />
    <glyph glyph-name="B" unicode="B" horiz-adv-x="483" 
d="M58 2v662c40 9 92 13 149 13c63 0 124 -8 171 -48c36 -30 51 -75 51 -122c0 -60 -31 -118 -98 -147v-4c78 -22 120 -87 120 -161c0 -56 -18 -99 -50 -132c-40 -44 -108 -68 -221 -68c-50 0 -92 3 -122 7zM189 575v-178h28c47 0 83 40 83 95c0 49 -23 87 -77 87
c-14 0 -26 -1 -34 -4zM189 300v-202c8 -2 17 -2 29 -2c53 0 97 32 97 101c0 67 -46 102 -98 103h-28z" />
    <glyph glyph-name="C" unicode="C" horiz-adv-x="395" 
d="M368 120l13 -110c-19 -9 -56 -16 -102 -16c-172 0 -254 142 -254 333c0 254 141 353 272 353c46 0 78 -9 91 -18l-22 -110c-15 7 -32 13 -61 13c-74 0 -141 -64 -141 -231c0 -161 61 -224 141 -224c22 0 47 5 63 10z" />
    <glyph glyph-name="D" unicode="D" horiz-adv-x="491" 
d="M58 2v662c33 8 81 13 133 13c85 0 144 -20 187 -60c58 -52 88 -141 88 -272c0 -136 -35 -233 -94 -285c-45 -44 -112 -65 -206 -65c-41 0 -82 4 -108 7zM189 569v-465c6 -2 16 -2 23 -2c63 0 118 62 118 248c0 138 -36 222 -115 222c-9 0 -18 0 -26 -3z" />
    <glyph glyph-name="E" unicode="E" horiz-adv-x="394" 
d="M343 405v-109h-154v-182h174v-114h-305v674h293v-114h-162v-155h154z" />
    <glyph glyph-name="F" unicode="F" horiz-adv-x="392" 
d="M58 0v674h293v-114h-162v-173h152v-109h-152v-278h-131z" />
    <glyph glyph-name="G" unicode="G" horiz-adv-x="472" 
d="M432 378v-360c-29 -12 -91 -24 -140 -24c-77 0 -135 22 -180 67c-58 56 -89 156 -87 272c3 245 143 347 286 347c51 0 89 -10 110 -20l-23 -113c-19 10 -44 15 -77 15c-89 0 -160 -61 -160 -237c0 -162 63 -220 124 -220c12 0 21 1 26 3v163h-60v107h181z" />
    <glyph glyph-name="H" unicode="H" horiz-adv-x="515" 
d="M58 674h131v-270h137v270h131v-674h-131v282h-137v-282h-131v674z" />
    <glyph glyph-name="I" unicode="I" horiz-adv-x="248" 
d="M58 674h131v-674h-131v674z" />
    <glyph glyph-name="J" unicode="J" horiz-adv-x="296" 
d="M115 209v465h132v-459c0 -194 -94 -223 -190 -223c-27 0 -51 4 -66 10l11 110c13 -4 26 -5 43 -5c38 0 70 15 70 102z" />
    <glyph glyph-name="K" unicode="K" horiz-adv-x="459" 
d="M58 0v674h131v-303h2c11 28 22 58 33 87l90 216h144l-151 -293l153 -381h-143l-98 279l-30 -55v-224h-131z" />
    <glyph glyph-name="L" unicode="L" horiz-adv-x="380" 
d="M58 0v674h131v-563h173v-111h-304z" />
    <glyph glyph-name="M" unicode="M" horiz-adv-x="637" 
d="M482 0l-12 236c-3 64 -8 151 -6 223h-3c-12 -72 -30 -155 -43 -207l-58 -241h-93l-56 237c-13 54 -31 138 -41 211h-3c-2 -73 -6 -158 -10 -225l-11 -234h-113l49 674h138l54 -244c19 -85 36 -160 48 -236h2c10 75 25 151 43 236l53 244h138l41 -674h-117z" />
    <glyph glyph-name="N" unicode="N" horiz-adv-x="516" 
d="M173 0h-115v674h120l104 -264c20 -52 53 -139 72 -197h2c-4 71 -13 188 -13 312v149h115v-674h-120l-103 256c-22 57 -53 142 -68 203h-2c3 -68 8 -172 8 -307v-152z" />
    <glyph glyph-name="O" unicode="O" horiz-adv-x="481" 
d="M247 682c163 0 209 -179 209 -333c0 -254 -90 -357 -218 -357c-153 0 -213 162 -213 347c0 184 73 343 222 343zM242 568c-52 0 -81 -86 -81 -231c0 -153 29 -231 82 -231c55 0 76 100 76 237c0 118 -18 225 -77 225z" />
    <glyph glyph-name="P" unicode="P" horiz-adv-x="457" 
d="M58 0v664c37 8 87 13 137 13c78 0 139 -11 183 -52c40 -35 58 -91 58 -148c0 -73 -22 -124 -57 -162c-42 -44 -110 -64 -164 -64h-26v-251h-131zM189 566v-208c6 -2 13 -2 21 -2c66 0 96 47 96 110c0 59 -24 105 -85 105c-12 0 -24 -2 -32 -5z" />
    <glyph glyph-name="Q" unicode="Q" horiz-adv-x="481" 
d="M487 -11l-46 -99c-58 24 -123 58 -173 88c-15 8 -26 14 -32 14c-131 0 -211 127 -211 347c0 181 73 343 223 343c163 0 208 -179 208 -333c0 -167 -38 -271 -101 -305v-5c43 -19 90 -34 132 -50zM242 106c55 0 77 97 77 237c0 126 -19 225 -77 225
c-54 0 -81 -101 -81 -228c-1 -137 23 -234 81 -234z" />
    <glyph glyph-name="R" unicode="R" horiz-adv-x="470" 
d="M58 0v664c41 8 93 13 143 13c72 0 136 -10 180 -50c41 -37 53 -82 53 -140c0 -72 -35 -137 -104 -169v-2c46 -18 69 -61 82 -133c13 -75 31 -158 43 -183h-137c-8 19 -23 87 -33 161c-12 84 -33 108 -77 108h-19v-269h-131zM189 571v-201h23c57 0 90 46 90 105
c0 57 -23 98 -82 100c-11 0 -24 -1 -31 -4z" />
    <glyph glyph-name="S" unicode="S" horiz-adv-x="394" 
d="M24 21l19 113c27 -15 73 -26 111 -26c62 0 92 32 92 76c0 49 -30 73 -87 110c-92 56 -127 127 -127 188c0 108 72 198 213 198c44 0 86 -12 106 -24l-21 -113c-19 12 -48 23 -86 23c-56 0 -83 -34 -83 -70c0 -40 20 -61 93 -105c89 -54 122 -122 122 -193
c0 -123 -91 -204 -223 -204c-54 0 -107 14 -129 27z" />
    <glyph glyph-name="T" unicode="T" horiz-adv-x="393" 
d="M131 0v553h-119v121h370v-121h-120v-553h-131z" />
    <glyph glyph-name="U" unicode="U" horiz-adv-x="500" 
d="M54 674h131v-438c0 -99 30 -129 64 -129c38 0 65 27 65 129v438h131v-415c0 -173 -65 -267 -195 -267c-141 0 -196 97 -196 266v416z" />
    <glyph glyph-name="V" unicode="V" horiz-adv-x="452" 
d="M299 0h-147l-151 674h145l48 -291c12 -72 26 -155 35 -234h2c9 80 20 161 32 237l46 288h144z" />
    <glyph glyph-name="W" unicode="W" horiz-adv-x="679" 
d="M258 0h-130l-115 674h136l33 -269c9 -77 15 -154 23 -236h3c9 83 24 156 38 237l48 268h106l45 -266c12 -76 24 -151 32 -239h2c9 88 17 160 26 238l33 267h128l-119 -674h-135l-40 221c-11 62 -21 139 -30 221h-2c-12 -81 -23 -156 -37 -222z" />
    <glyph glyph-name="X" unicode="X" horiz-adv-x="407" 
d="M411 0h-135l-43 124c-13 39 -24 77 -36 120h-2c-11 -43 -22 -84 -32 -122l-36 -122h-130l126 345l-121 329h137l39 -125c11 -35 20 -70 31 -108h2c11 41 19 73 28 110l34 123h131l-126 -335z" />
    <glyph glyph-name="Y" unicode="Y" horiz-adv-x="402" 
d="M264 0h-131v258l-148 416h140l46 -161c12 -43 25 -93 35 -143h2c8 49 19 98 31 146l40 158h136l-151 -411v-263z" />
    <glyph glyph-name="Z" unicode="Z" horiz-adv-x="387" 
d="M11 0v77l213 480v3h-193v114h341v-97l-204 -460v-3h203v-114h-360z" />
    <glyph glyph-name="bracketleft" unicode="[" horiz-adv-x="258" 
d="M235 -112h-185v794h185v-84h-86v-626h86v-84z" />
    <glyph glyph-name="backslash" unicode="\" horiz-adv-x="233" 
d="M255 -40h-85l-187 722h85z" />
    <glyph glyph-name="bracketright" unicode="]" horiz-adv-x="258" 
d="M23 686h185v-798h-185v84h86v630h-86v84z" />
    <glyph glyph-name="asciicircum" unicode="^" horiz-adv-x="596" 
d="M552 177h-100l-152 361h-5l-152 -361h-99l212 473h84z" />
    <glyph glyph-name="underscore" unicode="_" horiz-adv-x="500" 
d="M0 -75h500v-50h-500v50z" />
    <glyph glyph-name="quoteleft" unicode="&#x2018;" horiz-adv-x="190" 
d="M121 431l-113 -10c27 90 70 181 112 254l68 7c-29 -83 -56 -171 -67 -251z" />
    <glyph glyph-name="a" unicode="a" horiz-adv-x="422" 
d="M383 0h-118l-7 48h-2c-27 -38 -65 -56 -108 -56c-74 0 -129 62 -129 149c0 128 113 181 224 182v11c0 38 -23 66 -69 66c-39 0 -71 -10 -100 -28l-24 88c27 16 84 37 152 37c149 0 173 -104 173 -203v-182c0 -39 2 -79 8 -112zM247 153v85c-44 -1 -104 -15 -104 -83
c0 -49 27 -67 47 -67c21 0 45 13 54 42c2 7 3 15 3 23z" />
    <glyph glyph-name="b" unicode="b" horiz-adv-x="447" 
d="M153 0h-112c2 43 4 98 4 145v547h131v-252h2c24 35 55 57 102 57c95 0 138 -107 138 -239c0 -171 -68 -266 -159 -266c-41 0 -70 17 -96 66h-3zM176 312v-137c0 -12 2 -24 5 -31c11 -35 29 -45 45 -45c44 0 62 55 62 149c0 84 -19 139 -63 139c-20 0 -37 -21 -44 -45
c-3 -8 -5 -21 -5 -30z" />
    <glyph glyph-name="c" unicode="c" horiz-adv-x="323" 
d="M306 111l11 -103c-13 -6 -46 -14 -83 -14c-124 0 -205 86 -205 246c0 151 89 256 224 256c31 0 59 -7 72 -13l-17 -103c-11 4 -27 9 -49 9c-63 0 -100 -60 -100 -145c0 -89 37 -143 98 -143c19 0 35 3 49 10z" />
    <glyph glyph-name="d" unicode="d" horiz-adv-x="447" 
d="M270 692h131v-547c0 -47 2 -100 4 -145h-113l-7 55h-2c-18 -34 -57 -63 -102 -63c-104 0 -152 115 -152 252c0 170 74 253 157 253c43 0 70 -21 82 -49h2v244zM270 172v129c0 9 0 19 -1 29c-5 30 -21 57 -47 57c-46 0 -63 -67 -63 -146c0 -93 25 -142 62 -142
c16 0 35 9 45 43c3 7 4 18 4 30z" />
    <glyph glyph-name="e" unicode="e" horiz-adv-x="419" 
d="M387 198h-232c2 -76 46 -104 104 -104c37 0 70 8 93 16l18 -94c-34 -13 -85 -22 -135 -22c-133 0 -206 88 -206 241c0 164 85 262 196 262c105 0 166 -83 166 -231c0 -35 -1 -54 -4 -68zM156 290h116c0 63 -16 112 -55 112c-43 0 -60 -63 -61 -112z" />
    <glyph glyph-name="f" unicode="f" horiz-adv-x="286" 
d="M200 0h-131v396h-66v93h66v20c0 55 11 106 50 146c29 30 71 45 117 45c34 0 60 -5 79 -11l-15 -102c-10 4 -24 6 -40 6c-44 0 -60 -38 -60 -81v-23h85v-93h-85v-396z" />
    <glyph glyph-name="g" unicode="g" horiz-adv-x="447" 
d="M293 489h114c-2 -44 -5 -96 -5 -155v-279c0 -105 -19 -163 -59 -201c-36 -34 -87 -54 -159 -54c-45 0 -87 8 -122 23l24 101c25 -11 56 -21 94 -21c66 0 92 44 92 119v30h-2c-17 -31 -51 -49 -88 -49c-110 0 -153 120 -153 237c0 163 74 257 165 257c39 0 71 -20 90 -57
h2zM272 180v131c0 13 -2 26 -5 36c-6 21 -20 40 -42 40c-47 0 -66 -64 -66 -144c0 -91 26 -137 63 -137c17 0 34 9 44 35c4 11 6 26 6 39z" />
    <glyph glyph-name="h" unicode="h" horiz-adv-x="458" 
d="M46 0v692h131v-254h2c11 17 26 31 42 42c19 11 42 17 66 17c90 0 125 -76 125 -200v-297h-131v297c0 48 -9 90 -48 90c-22 0 -41 -13 -51 -46c-2 -8 -5 -26 -5 -37v-304h-131z" />
    <glyph glyph-name="i" unicode="i" horiz-adv-x="223" 
d="M177 0h-131v489h131v-489zM110 690c38 0 67 -27 67 -71c1 -42 -29 -71 -69 -71c-36 0 -66 29 -65 71c-1 44 31 71 67 71z" />
    <glyph glyph-name="j" unicode="j" horiz-adv-x="224" 
d="M-29 -200l-10 104c23 3 48 8 64 26c19 20 22 55 22 130v429h132v-454c0 -109 -23 -160 -65 -193c-36 -29 -96 -42 -143 -42zM113 690c37 0 67 -27 67 -71c0 -42 -30 -71 -69 -71c-36 0 -66 29 -65 71c-1 44 30 71 67 71z" />
    <glyph glyph-name="k" unicode="k" horiz-adv-x="413" 
d="M176 692v-417h2c9 28 16 48 25 68l63 146h141l-118 -205l125 -284h-146l-70 201l-22 -42v-159h-131v692h131z" />
    <glyph glyph-name="l" unicode="l" horiz-adv-x="225" 
d="M46 0v692h131v-692h-131z" />
    <glyph glyph-name="m" unicode="m" horiz-adv-x="680" 
d="M46 0v342c0 54 -3 101 -4 147h114l6 -57h2c25 37 66 65 117 65c55 0 90 -25 107 -66h2c12 19 30 37 49 49c20 11 44 17 69 17c87 0 126 -69 126 -187v-310h-130v288c0 56 -6 101 -46 101c-23 0 -40 -16 -49 -45c-2 -7 -4 -21 -4 -34v-310h-130v307c0 35 -4 82 -45 82
c-20 0 -40 -15 -49 -44c-3 -9 -5 -23 -5 -37v-308h-130z" />
    <glyph glyph-name="n" unicode="n" horiz-adv-x="458" 
d="M46 0v342c0 54 -3 101 -4 147h113l6 -56h2c26 39 68 64 119 64c93 0 130 -74 130 -183v-314h-131v306c0 42 -10 81 -48 81c-22 0 -40 -15 -49 -44c-4 -10 -7 -26 -7 -45v-298h-131z" />
    <glyph glyph-name="o" unicode="o" horiz-adv-x="431" 
d="M218 497c115 0 185 -97 185 -251c0 -204 -113 -254 -187 -254c-117 0 -187 92 -187 251c0 176 92 254 189 254zM217 398c-48 0 -58 -85 -58 -152c0 -84 13 -154 60 -154c42 0 53 82 53 154c0 67 -11 152 -55 152z" />
    <glyph glyph-name="p" unicode="p" horiz-adv-x="447" 
d="M45 -192v526c0 59 -2 109 -4 155h114l7 -56h2c20 40 57 64 102 64c108 0 152 -116 152 -252c0 -174 -77 -253 -159 -253c-40 0 -67 25 -81 48h-2v-232h-131zM176 310v-131c0 -17 2 -32 7 -42c10 -30 27 -38 42 -38c46 0 62 68 62 145c0 93 -22 143 -61 143
c-20 0 -39 -19 -44 -42c-5 -10 -6 -23 -6 -35z" />
    <glyph glyph-name="q" unicode="q" horiz-adv-x="447" 
d="M271 -192v234h-2c-20 -29 -51 -50 -93 -50c-94 0 -147 110 -147 242c0 165 72 263 165 263c32 0 69 -14 90 -59l2 -1l7 52h113c-2 -44 -4 -97 -4 -155v-526h-131zM271 174v136c0 9 -1 21 -4 29c-7 30 -25 48 -45 48c-41 0 -62 -54 -62 -143s22 -145 62 -145
c17 0 35 12 44 43c4 11 5 22 5 32z" />
    <glyph glyph-name="r" unicode="r" horiz-adv-x="294" 
d="M45 0v342c0 49 -2 102 -4 147h114l7 -71h3c22 52 61 79 97 79c13 0 20 0 28 -2v-130c-8 2 -17 2 -28 2c-28 0 -65 -19 -80 -70c-3 -11 -5 -28 -5 -49v-248h-132z" />
    <glyph glyph-name="s" unicode="s" horiz-adv-x="324" 
d="M18 22l24 96c19 -12 55 -26 88 -26c34 0 53 15 53 44c0 25 -14 41 -57 66c-80 45 -99 96 -99 141c0 88 63 154 161 154c41 0 73 -10 99 -22l-23 -96c-19 11 -42 20 -68 20c-33 0 -49 -20 -49 -42s11 -34 57 -61c72 -41 99 -92 99 -148c0 -100 -72 -154 -173 -154
c-41 0 -89 11 -112 28z" />
    <glyph glyph-name="t" unicode="t" horiz-adv-x="311" 
d="M69 590l131 31v-132h96v-93h-96v-223c0 -57 24 -71 50 -71c13 0 23 1 34 3l1 -102c-18 -5 -45 -9 -80 -9c-38 0 -71 9 -94 31c-27 26 -42 63 -42 140v231h-58v93h58v101z" />
    <glyph glyph-name="u" unicode="u" horiz-adv-x="452" 
d="M404 489v-340c0 -52 2 -103 4 -149h-113l-7 52h-2c-23 -33 -63 -60 -113 -60c-93 0 -131 69 -131 201v296h132v-282c0 -64 12 -105 49 -105c22 0 36 17 42 33c5 10 8 25 8 42v312h131z" />
    <glyph glyph-name="v" unicode="v" horiz-adv-x="395" 
d="M5 489h139l37 -218c7 -44 14 -88 21 -137h2c6 50 12 91 19 137l38 218h129l-131 -489h-121z" />
    <glyph glyph-name="w" unicode="w" horiz-adv-x="616" 
d="M5 489h140l26 -211c7 -53 13 -102 17 -148h3c8 46 18 100 27 146l43 213h101l42 -208c10 -55 19 -103 25 -151h3c3 46 9 97 17 150l30 209h129l-126 -489h-111l-37 171c-10 45 -19 97 -25 153h-2c-6 -57 -17 -108 -28 -154l-42 -170h-112z" />
    <glyph glyph-name="x" unicode="x" horiz-adv-x="396" 
d="M7 489h142l30 -87c10 -29 18 -58 24 -82h2c7 25 15 55 23 82l29 87h132l-111 -240l113 -249h-143l-33 92c-9 25 -17 50 -24 75h-2c-6 -25 -15 -50 -22 -75l-30 -92h-131l109 243z" />
    <glyph glyph-name="y" unicode="y" horiz-adv-x="391" 
d="M5 489h141l48 -254c5 -29 9 -56 13 -82h2c4 25 8 53 12 80l41 256h128l-100 -377c-24 -92 -56 -187 -109 -250c-41 -48 -91 -71 -111 -77l-40 113c23 8 45 23 65 41c18 17 32 37 41 58c4 9 7 14 7 21c0 6 -2 12 -4 18z" />
    <glyph glyph-name="z" unicode="z" horiz-adv-x="351" 
d="M18 0v82l120 218c16 28 37 60 46 79v3h-151v107h294v-89l-117 -210c-17 -29 -36 -60 -47 -80v-3h168v-107h-313z" />
    <glyph glyph-name="braceleft" unicode="{" horiz-adv-x="258" 
d="M10 248v79c54 0 66 29 66 56s-3 52 -6 77c-3 26 -6 52 -6 80c0 96 58 145 152 145h19v-80h-15c-38 0 -54 -31 -54 -69c0 -23 2 -45 4 -65c2 -21 4 -40 4 -60c0 -64 -26 -105 -76 -121v-2c50 -16 76 -56 76 -124c0 -20 -2 -41 -4 -63c-2 -20 -4 -41 -4 -62
c0 -37 10 -70 56 -70h13v-81h-21c-82 0 -150 37 -150 144c0 28 3 54 6 81c3 26 6 53 6 79c0 24 -12 56 -66 56z" />
    <glyph glyph-name="bar" unicode="|" horiz-adv-x="218" 
d="M61 750h97v-1000h-97v1000z" />
    <glyph glyph-name="braceright" unicode="}" horiz-adv-x="258" 
d="M248 327v-79c-54 0 -66 -32 -66 -56c0 -26 3 -53 6 -79c3 -27 6 -53 6 -81c0 -107 -68 -144 -150 -144h-21v81h13c46 4 56 33 56 70c0 21 -2 42 -4 62c-2 22 -4 43 -4 63c0 68 26 108 76 124v2c-50 16 -76 57 -76 121c0 20 2 39 4 60c2 20 4 42 4 65c0 38 -16 65 -54 69
h-15v80h18c95 0 153 -49 153 -145c0 -28 -3 -54 -6 -80c-3 -25 -6 -50 -6 -77s12 -56 66 -56z" />
    <glyph glyph-name="asciitilde" unicode="~" horiz-adv-x="596" 
d="M141 201h-84c-1 127 71 169 135 169c46 0 83 -19 133 -50c49 -30 67 -41 88 -41c29 0 43 25 43 82h83c5 -109 -40 -170 -122 -170c-44 0 -72 10 -131 46c-54 34 -77 47 -99 47c-27 0 -46 -19 -46 -83z" />
    <glyph glyph-name="exclamdown" unicode="&#xa1;" horiz-adv-x="236" 
d="M190 -192h-143l15 453h112zM118 494c43 0 75 -33 75 -82c0 -46 -29 -80 -74 -80c-43 0 -76 34 -76 80c0 49 35 82 75 82z" />
    <glyph glyph-name="cent" unicode="&#xa2;" horiz-adv-x="426" 
d="M296 -7h-84v100c-44 10 -82 32 -110 68c-29 38 -47 93 -47 163c0 118 64 207 159 231v101h84v-94c28 -2 53 -8 70 -17l-16 -100c-26 13 -48 16 -75 16c-58 0 -92 -61 -92 -139c0 -82 41 -134 98 -134c33 0 53 4 79 15l10 -98c-18 -9 -43 -14 -76 -15v-97z" />
    <glyph glyph-name="sterling" unicode="&#xa3;" horiz-adv-x="426" 
d="M384 0h-348v82c60 24 89 92 89 145c0 20 0 38 -3 54h-79v87h65c-7 30 -11 66 -11 97c0 106 68 193 185 193c42 0 67 -9 83 -17l-20 -106c-14 7 -31 13 -56 13c-46 0 -68 -34 -68 -80c0 -36 5 -67 11 -100h104v-87h-92c2 -32 0 -60 -9 -88c-9 -26 -24 -57 -50 -81v-2h199
v-110z" />
    <glyph glyph-name="fraction" unicode="&#x2044;" horiz-adv-x="117" 
d="M-81 -8h-69l349 666h68z" />
    <glyph glyph-name="yen" unicode="&#xa5;" horiz-adv-x="426" 
d="M272 0h-120v165h-130v67h130v59h-130v67h102l-118 292h129l53 -181c12 -39 24 -81 29 -108h2c6 27 16 68 28 110l53 179h121l-121 -292h103v-67h-131v-59h131v-67h-131v-165z" />
    <glyph glyph-name="florin" unicode="&#x192;" horiz-adv-x="426" 
d="M76 301v101h72l4 46c11 119 73 210 192 210c25 0 48 -5 63 -12l-17 -97c-12 4 -25 6 -38 6c-47 0 -68 -45 -75 -105l-5 -48h91v-101h-98l-18 -184c-10 -106 -47 -197 -171 -197c-27 0 -54 6 -71 16l18 94c12 -5 28 -8 38 -8c28 0 54 19 62 99l18 180h-65z" />
    <glyph glyph-name="section" unicode="&#xa7;" horiz-adv-x="431" 
d="M127 350c0 -23 16 -48 74 -73c38 -16 63 -31 80 -43c12 9 25 33 25 54c0 27 -21 54 -59 71c-35 15 -66 29 -88 44c-16 -10 -32 -31 -32 -53zM356 657l-20 -82c-24 13 -57 22 -94 22c-36 0 -65 -17 -65 -46c0 -36 19 -49 75 -70c82 -33 146 -71 146 -165
c0 -51 -21 -91 -57 -127c13 -12 32 -43 32 -83c0 -96 -76 -156 -177 -156c-52 0 -106 11 -137 32l23 85c21 -13 62 -32 114 -32c41 0 70 18 70 53c0 32 -26 51 -93 81c-82 35 -140 79 -140 160c0 42 22 84 69 120c-18 20 -32 49 -33 83c0 93 77 150 179 150
c43 0 80 -9 108 -25z" />
    <glyph glyph-name="currency" unicode="&#xa4;" horiz-adv-x="426" 
d="M214 536c40 0 75 -14 99 -36l65 75l54 -56l-78 -76c15 -34 22 -73 22 -115c0 -45 -8 -84 -23 -115l78 -81l-54 -55l-67 77c-28 -25 -67 -38 -100 -38c-37 0 -72 13 -98 36l-62 -75l-54 55l73 75c-16 32 -24 72 -24 115c0 47 10 88 27 121l-78 75l56 58l64 -79
c28 26 65 39 100 39zM211 445c-41 0 -55 -53 -55 -121c0 -64 19 -117 55 -117c42 0 53 51 53 119c0 57 -10 119 -53 119z" />
    <glyph glyph-name="quotesingle" unicode="'" horiz-adv-x="170" 
d="M33 682h105l-20 -260h-65z" />
    <glyph glyph-name="quotedblleft" unicode="&#x201c;" horiz-adv-x="337" 
d="M117 431l-113 -10c27 90 70 181 112 254l68 7c-29 -83 -56 -171 -67 -251zM272 431l-113 -10c28 90 70 181 113 254l67 7c-28 -83 -55 -171 -67 -251z" />
    <glyph glyph-name="guillemotleft" unicode="&#xab;" horiz-adv-x="383" 
d="M216 437l-108 -185l108 -185h-95l-105 185l105 185h95zM376 437l-108 -185l108 -185h-94l-106 185l105 185h95z" />
    <glyph glyph-name="guilsinglleft" unicode="&#x2039;" horiz-adv-x="221" 
d="M216 437l-108 -185l108 -185h-95l-105 185l105 185h95z" />
    <glyph glyph-name="guilsinglright" unicode="&#x203a;" horiz-adv-x="221" 
d="M113 252l-108 185h94l106 -185l-105 -185h-95z" />
    <glyph glyph-name="fi" unicode="&#xfb01;" horiz-adv-x="489" 
d="M200 0h-131v396h-66v93h66v26c0 63 39 185 217 185c47 0 89 -8 116 -20l-19 -103c-22 8 -52 16 -92 16c-71 0 -91 -40 -91 -86v-18h244v-489h-132v396h-112v-396z" />
    <glyph glyph-name="fl" unicode="&#xfb02;" horiz-adv-x="489" 
d="M200 0h-131v396h-66v93h66v19c0 36 16 102 60 141c33 29 80 51 159 51c61 0 121 -13 156 -26v-674h-132v591c-10 4 -23 6 -42 6c-51 0 -70 -40 -70 -83v-25h71v-93h-71v-396z" />
    <glyph glyph-name="endash" unicode="&#x2013;" horiz-adv-x="500" 
d="M30 305h440v-90h-440v90z" />
    <glyph glyph-name="dagger" unicode="&#x2020;" horiz-adv-x="425" 
d="M157 674h111l-6 -189l131 6v-107l-131 6l6 -441h-111l6 441l-131 -6v107l131 -6z" />
    <glyph glyph-name="daggerdbl" unicode="&#x2021;" horiz-adv-x="425" 
d="M157 674h111l-6 -180l131 6v-107l-131 6v-171l131 6v-107l-131 6l6 -183h-111l5 183l-130 -6v107l131 -6v171l-131 -6v107l131 -6z" />
    <glyph glyph-name="periodcentered" unicode="&#xb7;" horiz-adv-x="233" 
d="M117 183c-42 0 -76 34 -76 86c0 51 36 87 76 87c42 0 76 -32 76 -87c0 -52 -31 -86 -76 -86z" />
    <glyph glyph-name="paragraph" unicode="&#xb6;" horiz-adv-x="431" 
d="M242 -50h-72v314h-7c-30 0 -142 51 -142 188c0 112 66 222 243 222c55 0 77 -3 108 -8v-716h-72v651h-58v-651z" />
    <glyph glyph-name="bullet" unicode="&#x2022;" horiz-adv-x="287" 
d="M143 158c-59 0 -105 43 -105 108c0 68 46 111 106 111c58 0 105 -41 105 -110c0 -66 -44 -109 -106 -109z" />
    <glyph glyph-name="quotesinglbase" unicode="&#x201a;" horiz-adv-x="190" 
d="M71 -100l-67 -9c29 83 56 171 67 250l113 10c-28 -90 -70 -179 -113 -251z" />
    <glyph glyph-name="quotedblbase" unicode="&#x201e;" horiz-adv-x="337" 
d="M68 -100l-68 -9c29 83 56 171 67 250l113 10c-27 -90 -70 -179 -112 -251zM223 -100l-68 -9c29 83 56 171 67 250l113 10c-27 -90 -69 -179 -112 -251z" />
    <glyph glyph-name="quotedblright" unicode="&#x201d;" horiz-adv-x="337" 
d="M67 674l113 8c-27 -90 -70 -180 -112 -252l-68 -9c29 83 56 174 67 253zM222 674l113 8c-27 -90 -69 -180 -112 -252l-68 -9c29 83 56 174 67 253z" />
    <glyph glyph-name="guillemotright" unicode="&#xbb;" horiz-adv-x="383" 
d="M114 252l-108 185h94l106 -185l-104 -185h-96zM275 252l-108 185h94l106 -185l-105 -185h-95z" />
    <glyph glyph-name="ellipsis" unicode="&#x2026;" horiz-adv-x="1000" 
d="M166 -8c-41 0 -76 34 -76 87c0 50 36 87 77 87c42 0 76 -33 76 -87c0 -53 -31 -87 -77 -87zM500 -8c-42 0 -76 34 -76 87c0 50 36 87 77 87c42 0 76 -33 76 -87c0 -53 -31 -87 -77 -87zM834 -8c-42 0 -76 34 -76 87c0 50 36 87 77 87c42 0 76 -33 76 -87
c0 -53 -31 -87 -77 -87z" />
    <glyph glyph-name="perthousand" unicode="&#x2030;" horiz-adv-x="958" 
d="M511 392c97 0 128 -107 128 -196c0 -138 -63 -202 -129 -202c-91 0 -131 100 -131 197c0 105 47 201 132 201zM510 323c-29 0 -43 -47 -43 -129c-1 -84 12 -130 43 -130c30 0 41 48 41 129c0 76 -9 130 -41 130zM812 392c97 0 128 -107 128 -196
c0 -138 -63 -202 -129 -202c-91 0 -131 100 -131 197c0 105 47 201 132 201zM811 323c-30 0 -43 -47 -43 -129c-1 -84 12 -130 43 -130c30 0 41 48 41 129c0 76 -9 130 -41 130zM150 658c97 0 128 -107 128 -197c0 -138 -63 -202 -129 -202c-91 0 -131 99 -131 197
c0 106 47 202 132 202zM149 589c-29 0 -43 -48 -43 -130c-1 -84 12 -130 43 -130s41 48 41 129c0 76 -9 131 -41 131zM188 -8h-69l350 666h68z" />
    <glyph glyph-name="questiondown" unicode="&#xbf;" horiz-adv-x="334" 
d="M192 494c43 0 74 -32 74 -81c0 -47 -28 -81 -73 -81c-44 0 -76 34 -76 81c0 49 34 81 75 81zM135 271h111l2 -18c7 -60 -16 -108 -53 -166c-28 -44 -43 -69 -43 -108c0 -37 25 -61 67 -61c21 0 45 4 64 17l21 -101c-21 -14 -68 -29 -116 -29c-132 0 -169 86 -169 153
c0 69 38 122 73 173c28 41 44 72 43 118v22z" />
    <glyph glyph-name="grave" unicode="`" 
d="M29 689h114l69 -140h-83z" />
    <glyph glyph-name="acute" unicode="&#xb4;" 
d="M173 689h114l-101 -140h-82z" />
    <glyph glyph-name="circumflex" unicode="&#x2c6;" 
d="M105 689h91l86 -140h-90l-40 80h-2l-40 -80h-91z" />
    <glyph glyph-name="tilde" unicode="&#x2dc;" 
d="M88 557h-60c0 65 22 118 71 118c24 0 41 -10 57 -18c13 -8 24 -16 37 -16s21 5 22 37h58c0 -80 -28 -114 -70 -114c-20 0 -39 9 -53 16c-17 8 -25 17 -39 17c-13 0 -23 -14 -23 -40z" />
    <glyph glyph-name="macron" unicode="&#xaf;" 
d="M44 656h213v-74h-213v74z" />
    <glyph glyph-name="breve" unicode="&#x2d8;" 
d="M31 679h65c4 -34 24 -53 53 -53c37 0 55 25 56 53h64c2 -72 -48 -127 -121 -127c-71 0 -119 55 -117 127z" />
    <glyph glyph-name="dotaccent" unicode="&#x2d9;" 
d="M150 560c-33 0 -60 27 -60 64s28 64 60 64c34 0 60 -26 60 -64c0 -37 -25 -64 -60 -64z" />
    <glyph glyph-name="dieresis" unicode="&#xa8;" 
d="M61 560c-33 0 -60 27 -60 64s27 64 60 64c34 0 60 -26 60 -64c0 -37 -25 -64 -60 -64zM239 560c-34 0 -61 27 -61 64s28 64 61 64s59 -26 59 -64c0 -37 -25 -64 -59 -64z" />
    <glyph glyph-name="ring" unicode="&#x2da;" 
d="M117 538c-69 0 -104 40 -104 89c0 52 34 94 105 94c67 0 101 -39 101 -91c0 -51 -37 -92 -102 -92zM115 582c33 0 42 27 42 48s-8 47 -43 47c-29 0 -38 -28 -38 -49c0 -17 9 -46 39 -46z" />
    <glyph glyph-name="cedilla" unicode="&#xb8;" 
d="M131 5h69l-24 -49c35 -6 67 -33 67 -73c0 -64 -54 -87 -111 -87c-27 0 -56 8 -75 18l19 56c16 -8 36 -14 53 -14c16 0 31 7 31 25c0 20 -23 33 -68 37z" />
    <glyph glyph-name="hungarumlaut" unicode="&#x2dd;" 
d="M121 689h95l-100 -140h-67zM259 689h95l-100 -140h-67z" />
    <glyph glyph-name="ogonek" unicode="&#x2db;" 
d="M94 5h80c-14 -25 -26 -58 -26 -83s18 -43 40 -43c17 0 29 3 39 7l16 -67c-29 -20 -62 -24 -88 -24c-65 0 -98 38 -98 95c0 49 26 96 37 115z" />
    <glyph glyph-name="caron" unicode="&#x2c7;" 
d="M196 549h-92l-85 140h89l41 -80h2l40 80h91z" />
    <glyph glyph-name="emdash" unicode="&#x2014;" horiz-adv-x="1000" 
d="M30 305h940v-90h-940v90z" />
    <glyph glyph-name="AE" unicode="&#xc6;" horiz-adv-x="595" 
d="M122 0h-129l203 674h369v-114h-178l9 -166h163v-109h-152l10 -171h163v-114h-278l-12 184h-123zM191 286h89l-8 167c-2 39 -5 85 -8 130h-3c-12 -56 -29 -123 -37 -159z" />
    <glyph glyph-name="ordfeminine" unicode="&#xaa;" horiz-adv-x="302" 
d="M268 263h-71l-5 33h-2c-18 -25 -43 -38 -74 -38c-48 0 -85 38 -85 96c0 85 75 117 151 118v8c0 19 -14 40 -51 40c-28 0 -48 -8 -64 -19l-14 61c26 16 60 26 93 26c97 0 118 -72 118 -137v-113c0 -25 1 -52 4 -75zM184 362v53c-34 0 -75 -11 -75 -52c0 -23 16 -38 35 -38
c12 0 26 6 34 20c3 5 6 11 6 17z" />
    <glyph glyph-name="Lslash" unicode="&#x141;" horiz-adv-x="382" 
d="M364 0h-304v234l-60 -47v111l60 47v329h131v-238l94 72v-111l-94 -71v-215h173v-111z" />
    <glyph glyph-name="Oslash" unicode="&#xd8;" horiz-adv-x="481" 
d="M107 -51l-66 36l43 96c-43 65 -59 159 -59 258c0 180 72 343 218 343c36 0 68 -9 96 -27l31 70l69 -29l-42 -95c46 -68 59 -167 59 -252c0 -254 -89 -357 -215 -357c-38 0 -72 10 -101 31zM160 235l129 305c-10 18 -27 28 -47 28c-54 0 -89 -78 -89 -228
c0 -33 0 -69 5 -105h2zM321 443l-133 -304c11 -23 33 -33 54 -33c55 0 86 82 86 237c0 32 -1 66 -5 100h-2z" />
    <glyph glyph-name="OE" unicode="&#x152;" horiz-adv-x="650" 
d="M619 114v-114h-263c-14 0 -28 -2 -40 -4c-14 -2 -28 -4 -42 -4c-199 0 -249 173 -249 345c0 186 76 345 255 345c16 0 31 -2 44 -4c14 -2 26 -4 37 -4h246v-114h-162v-155h154v-109h-154v-182h174zM314 114v444c-10 6 -23 10 -42 10c-57 0 -111 -65 -111 -227
c-1 -167 48 -235 114 -235c16 0 31 3 39 8z" />
    <glyph glyph-name="ordmasculine" unicode="&#xba;" horiz-adv-x="311" 
d="M155 588c80 0 122 -64 122 -163c0 -134 -70 -167 -123 -167c-78 0 -124 61 -124 164c0 113 59 166 125 166zM154 519c-34 0 -41 -63 -41 -96c0 -53 11 -96 41 -96c34 0 39 51 39 96c0 44 -7 96 -39 96z" />
    <glyph glyph-name="ae" unicode="&#xe6;" horiz-adv-x="633" 
d="M601 214h-232c0 -92 49 -124 107 -124c37 0 66 8 90 20l18 -91c-42 -21 -88 -27 -131 -27c-66 0 -127 28 -154 85h-3c-33 -56 -79 -85 -142 -85c-78 0 -135 64 -135 154c0 120 112 169 221 170v15c0 38 -26 69 -76 69c-32 0 -69 -13 -90 -27l-24 87c37 23 90 37 139 37
c59 0 106 -27 126 -77h2c30 53 78 77 133 77c94 0 155 -85 155 -231c0 -19 -2 -35 -4 -52zM242 160v74c-44 0 -106 -14 -106 -83c0 -43 27 -61 50 -61c22 0 44 15 52 43c3 8 4 17 4 27zM369 299h116c1 55 -14 107 -53 107c-43 0 -62 -64 -63 -107z" />
    <glyph glyph-name="dotlessi" unicode="&#x131;" horiz-adv-x="223" 
d="M177 0h-131v489h131v-489z" />
    <glyph glyph-name="lslash" unicode="&#x142;" horiz-adv-x="227" 
d="M179 0h-131v275l-55 -46v108l55 47v308h131v-230l56 47v-109l-56 -47v-353z" />
    <glyph glyph-name="oslash" unicode="&#xf8;" horiz-adv-x="431" 
d="M217 497c33 0 62 -8 88 -24l33 57l58 -31l-41 -73c31 -43 48 -104 48 -180c0 -204 -113 -254 -186 -254c-34 0 -65 8 -91 24l-32 -57l-55 37l37 66c-31 43 -47 104 -47 181c0 176 92 254 188 254zM158 182l97 191c-7 16 -19 25 -39 25c-58 0 -66 -98 -66 -152
c0 -19 1 -40 4 -62zM273 300l-94 -183c7 -16 19 -25 38 -25c49 0 64 72 64 141c0 20 0 43 -3 67h-5z" />
    <glyph glyph-name="oe" unicode="&#x153;" horiz-adv-x="665" 
d="M636 203h-234c5 -84 51 -111 105 -111c39 0 70 8 94 16l17 -89c-39 -22 -87 -27 -129 -27c-62 0 -118 22 -149 83h-2c-28 -58 -85 -83 -133 -83c-104 0 -176 91 -176 251c0 175 92 254 187 254c51 0 100 -23 126 -82h2c33 54 79 82 137 82c98 0 158 -87 158 -231
c0 -31 -2 -52 -3 -63zM218 398c-51 0 -59 -89 -59 -154c0 -83 14 -152 59 -152c50 0 58 77 58 155c0 69 -10 151 -58 151zM404 288h115c1 63 -14 112 -51 112c-45 0 -63 -61 -64 -112z" />
    <glyph glyph-name="germandbls" unicode="&#xdf;" horiz-adv-x="493" 
d="M177 0h-131v432c0 109 23 168 66 210c39 38 92 58 151 58c120 0 180 -78 180 -170c0 -28 -10 -61 -23 -77c-31 -17 -50 -41 -50 -68s13 -45 37 -73c46 -53 64 -95 64 -155c0 -100 -75 -165 -172 -165c-34 0 -63 5 -86 13l15 100c19 -9 40 -12 62 -12c38 0 57 27 57 53
c0 30 -14 52 -43 86c-36 43 -59 77 -59 131c0 50 30 94 67 115c7 15 7 33 7 47c0 42 -27 70 -63 70c-46 0 -79 -39 -79 -152v-443z" />
    <glyph glyph-name="onesuperior" unicode="&#xb9;" horiz-adv-x="239" 
d="M192 417h-94v307h-2l-70 -33l-18 69l100 47h84v-390z" />
    <glyph glyph-name="logicalnot" unicode="&#xac;" horiz-adv-x="596" 
d="M40 421h516v-315h-83v233h-433v82z" />
    <glyph glyph-name="mu" unicode="&#xb5;" horiz-adv-x="455" 
d="M303 49h-3c-12 -26 -41 -50 -75 -50c-21 0 -40 6 -54 23v-39c0 -71 5 -144 11 -175h-121c-9 25 -16 89 -16 192v489h132v-309c0 -55 16 -83 46 -83c25 0 39 19 46 36c4 9 7 27 7 44v312h131v-347c0 -41 8 -53 34 -53l-12 -91c-9 -4 -24 -6 -40 -6c-46 0 -70 21 -86 57z
" />
    <glyph glyph-name="trademark" unicode="&#x2122;" horiz-adv-x="539" 
d="M25 674h190v-64h-57v-209h-77v209h-56v64zM526 401h-70l-4 120c0 30 0 64 -1 106h-3c-7 -46 -13 -82 -17 -106l-20 -115h-70l-17 116c-3 26 -8 69 -13 105h-3c-1 -37 -1 -75 -3 -106l-5 -120h-67l13 273h111l13 -65c4 -28 6 -43 11 -88h1c4 33 9 60 13 87l15 66h104z" />
    <glyph glyph-name="Eth" unicode="&#xd0;" horiz-adv-x="493" 
d="M0 303v91h61v270c32 8 81 13 133 13c85 0 144 -20 187 -60c58 -52 87 -141 87 -272c0 -137 -35 -233 -93 -286c-46 -43 -112 -65 -206 -65c-42 0 -83 4 -108 8v301h-61zM265 394v-91h-74v-200c7 -2 17 -2 24 -2c63 0 118 62 118 249c0 138 -36 222 -116 222
c-10 0 -18 -1 -26 -3v-175h74z" />
    <glyph glyph-name="onehalf" unicode="&#xbd;" horiz-adv-x="667" 
d="M190 263h-94v307h-2l-71 -33l-17 69l100 47h84v-390zM159 -8h-69l349 666h68zM385 0v53l47 57c51 63 92 108 92 153c0 38 -21 53 -50 53c-25 0 -48 -11 -64 -23l-20 69c21 18 61 33 109 33c96 0 126 -60 126 -113c0 -73 -56 -128 -105 -180l-18 -19v-3h127v-80h-244z" />
    <glyph glyph-name="plusminus" unicode="&#xb1;" horiz-adv-x="596" 
d="M256 567h84v-173h216v-82h-216v-175h-84v175h-216v82h216v173zM40 82h516v-82h-516v82z" />
    <glyph glyph-name="Thorn" unicode="&#xde;" horiz-adv-x="453" 
d="M58 0v674h128v-116c12 2 26 2 42 2c54 0 103 -8 146 -46s59 -94 59 -151c0 -168 -118 -224 -210 -224c-15 0 -28 2 -37 4v-143h-128zM186 451v-201c9 -2 18 -3 29 -3c58 0 90 45 90 106c0 57 -23 101 -85 101c-13 0 -24 -1 -34 -3z" />
    <glyph glyph-name="onequarter" unicode="&#xbc;" horiz-adv-x="667" 
d="M201 263h-95v307h-2l-70 -33l-17 69l100 47h84v-390zM185 -8h-68l349 666h68zM591 0h-84v89h-148v60l140 242h92v-233h42v-69h-42v-89zM507 158v71c0 26 1 49 3 66h-2c-10 -19 -15 -34 -25 -52l-47 -83v-2h71z" />
    <glyph glyph-name="divide" unicode="&#xf7;" horiz-adv-x="596" 
d="M298 377c-35 0 -58 27 -58 61c0 36 24 62 59 62s58 -26 58 -62c0 -34 -20 -61 -59 -61zM556 226h-516v82h516v-82zM298 34c-35 0 -58 27 -58 61c0 35 24 62 59 62s58 -27 58 -62c0 -34 -20 -61 -59 -61z" />
    <glyph glyph-name="brokenbar" unicode="&#xa6;" horiz-adv-x="218" 
d="M61 174h97v-350h-97v350zM61 674h97v-350h-97v350z" />
    <glyph glyph-name="degree" unicode="&#xb0;" horiz-adv-x="287" 
d="M147 682c75 0 120 -55 120 -119c0 -80 -67 -123 -122 -123c-69 0 -119 50 -119 117c0 71 60 125 121 125zM147 631c-33 0 -62 -34 -62 -73c0 -37 29 -67 62 -67c34 0 62 28 62 68c0 36 -20 72 -62 72z" />
    <glyph glyph-name="thorn" unicode="&#xfe;" horiz-adv-x="447" 
d="M45 692h130v-262h2c20 43 53 67 97 67c100 0 144 -117 144 -252c0 -173 -77 -253 -150 -253c-48 0 -77 26 -90 53h-2v-237h-131v884zM176 311v-131c0 -19 3 -36 8 -45c10 -28 26 -36 40 -36c47 0 63 67 63 145c0 90 -22 143 -60 143c-20 0 -37 -18 -44 -39
c-5 -11 -7 -22 -7 -37z" />
    <glyph glyph-name="threequarters" unicode="&#xbe;" horiz-adv-x="667" 
d="M56 569l-15 66c23 12 58 23 95 23c84 0 117 -49 117 -95c0 -44 -25 -74 -65 -91v-2c42 -8 76 -45 76 -91c0 -70 -58 -121 -152 -121c-38 0 -67 8 -85 19l14 69c17 -9 40 -17 66 -17c33 0 59 22 59 53c0 37 -32 57 -74 57h-12v62h7c33 0 73 12 73 45c0 26 -18 41 -45 41
c-23 0 -41 -7 -59 -18zM202 -8h-69l349 666h68zM597 0h-85v89h-147v60l140 242h92v-233h42v-69h-42v-89zM512 158v71c0 26 2 49 4 66h-2c-10 -19 -15 -34 -25 -52l-47 -83v-2h70z" />
    <glyph glyph-name="twosuperior" unicode="&#xb2;" horiz-adv-x="274" 
d="M8 417v53l46 57c52 63 92 108 92 153c0 38 -21 53 -50 53c-24 0 -48 -11 -64 -23l-19 69c20 18 60 33 108 33c96 0 126 -60 126 -113c0 -73 -56 -128 -105 -180l-17 -19v-3h126v-80h-243z" />
    <glyph glyph-name="registered" unicode="&#xae;" horiz-adv-x="374" 
d="M167 499v-53h-41v147c9 2 31 6 60 6c30 0 44 -5 55 -12c9 -6 15 -18 15 -33c0 -14 -13 -28 -33 -33v-2c16 -5 25 -17 30 -38c4 -21 7 -30 9 -35h-45c-5 6 -8 18 -11 31c-2 15 -10 22 -24 22h-15zM169 565v-35h13c16 0 27 7 27 18c0 12 -9 18 -25 18c-6 0 -12 -1 -15 -1z
M187 682c90 0 160 -72 160 -160c0 -89 -70 -161 -160 -161c-89 0 -160 72 -160 161c0 88 71 160 160 160zM187 642c-65 0 -113 -53 -113 -121c0 -67 48 -121 113 -121s113 54 113 122c0 67 -48 120 -113 120z" />
    <glyph glyph-name="minus" unicode="&#x2212;" horiz-adv-x="596" 
d="M40 308h516v-82h-516v82z" />
    <glyph glyph-name="eth" unicode="&#xf0;" horiz-adv-x="431" 
d="M217 92c46 0 55 76 55 149c0 45 0 85 -9 115c-7 25 -20 44 -45 44c-50 0 -59 -97 -59 -154c0 -85 16 -154 58 -154zM84 504l-28 43l82 43c-16 16 -39 34 -62 51l75 67c26 -17 56 -40 86 -67l92 49l28 -46l-81 -41c34 -35 61 -79 85 -125c32 -64 42 -137 42 -218
c0 -217 -112 -268 -190 -268c-116 0 -184 93 -184 251c0 167 92 242 171 242c13 0 24 -3 36 -10l2 5c-14 27 -35 56 -56 75z" />
    <glyph glyph-name="multiply" unicode="&#xd7;" horiz-adv-x="596" 
d="M40 466l56 60l202 -205l202 205l56 -60l-200 -203l200 -202l-59 -61l-199 204l-200 -204l-58 61l199 202z" />
    <glyph glyph-name="threesuperior" unicode="&#xb3;" horiz-adv-x="260" 
d="M35 723l-14 66c22 12 57 23 94 23c84 0 117 -49 117 -95c0 -44 -25 -74 -65 -91v-2c42 -8 76 -45 76 -91c0 -70 -58 -121 -152 -121c-37 0 -66 8 -85 19l14 69c17 -9 40 -17 67 -17c33 0 58 22 58 53c0 37 -32 57 -74 57h-12v62h8c32 0 73 12 73 45c0 26 -19 41 -46 41
c-23 0 -40 -7 -59 -18z" />
    <glyph glyph-name="copyright" unicode="&#xa9;" horiz-adv-x="677" 
d="M340 648c171 0 306 -138 306 -308c0 -172 -135 -310 -306 -310c-172 0 -309 138 -309 310c0 170 137 308 309 308zM339 592c-136 0 -243 -113 -243 -253s107 -253 243 -253c135 0 242 113 242 253s-107 253 -242 253zM474 494l-15 -54c-13 7 -48 21 -93 21
c-76 0 -126 -48 -126 -125c0 -74 49 -124 122 -124c39 0 73 10 95 21l15 -52c-35 -19 -71 -28 -121 -28c-114 0 -182 80 -182 181c0 115 85 186 200 186c45 0 92 -15 105 -26z" />
    <glyph glyph-name="Aacute" unicode="&#xc1;" horiz-adv-x="458" 
d="M286 154h-121l-30 -154h-127l146 674h157l131 -674h-127zM178 256h96l-22 141c-7 41 -16 108 -22 153h-3c-7 -45 -17 -115 -24 -154zM255 823h133l-122 -113h-93z" />
    <glyph glyph-name="Acircumflex" unicode="&#xc2;" horiz-adv-x="458" 
d="M286 154h-121l-30 -154h-127l146 674h157l131 -674h-127zM178 256h96l-22 141c-7 41 -16 108 -22 153h-3c-7 -45 -17 -115 -24 -154zM180 820h102l85 -110h-96l-39 51h-2l-38 -51h-93z" />
    <glyph glyph-name="Adieresis" unicode="&#xc4;" horiz-adv-x="458" 
d="M286 154h-121l-30 -154h-127l146 674h157l131 -674h-127zM178 256h96l-22 141c-7 41 -16 108 -22 153h-3c-7 -45 -17 -115 -24 -154zM144 712c-32 0 -59 28 -59 64s28 64 59 64c32 0 59 -28 59 -64s-27 -64 -59 -64zM328 712c-32 0 -60 28 -60 64s28 64 60 64
s59 -28 59 -64s-27 -64 -59 -64z" />
    <glyph glyph-name="Agrave" unicode="&#xc0;" horiz-adv-x="458" 
d="M286 154h-121l-30 -154h-127l146 674h157l131 -674h-127zM178 256h96l-22 141c-7 41 -16 108 -22 153h-3c-7 -45 -17 -115 -24 -154zM82 823h133l83 -113h-93z" />
    <glyph glyph-name="Aring" unicode="&#xc5;" horiz-adv-x="458" 
d="M286 154h-121l-30 -154h-127l146 674h157l131 -674h-127zM178 256h96l-22 141c-7 41 -16 108 -22 153h-3c-7 -45 -17 -115 -24 -154zM231 884c75 0 104 -43 104 -91s-32 -93 -104 -93c-75 0 -106 44 -106 90c0 47 33 94 106 94zM230 837c-28 0 -38 -25 -38 -47
c0 -19 10 -42 38 -42s38 21 38 44c0 22 -11 45 -38 45z" />
    <glyph glyph-name="Atilde" unicode="&#xc3;" horiz-adv-x="458" 
d="M286 154h-121l-30 -154h-127l146 674h157l131 -674h-127zM178 256h96l-22 141c-7 41 -16 108 -22 153h-3c-7 -45 -17 -115 -24 -154zM177 718h-59c-2 75 25 115 66 115c23 0 39 -8 53 -17s26 -17 37 -17c15 0 20 9 24 38h58c2 -84 -23 -115 -69 -115c-22 0 -40 8 -54 16
c-14 9 -23 15 -34 15s-20 -11 -22 -35z" />
    <glyph glyph-name="Ccedilla" unicode="&#xc7;" horiz-adv-x="395" 
d="M368 120l13 -110c-17 -8 -50 -15 -91 -16l-19 -38c36 -6 68 -33 68 -73c0 -64 -54 -87 -111 -87c-27 0 -57 8 -75 18l19 56c16 -8 36 -14 52 -14s32 7 32 25c0 20 -24 33 -68 37l36 81c-135 28 -199 159 -199 328c0 254 141 353 272 353c46 0 78 -9 91 -18l-22 -110
c-15 7 -32 13 -61 13c-74 0 -141 -64 -141 -231c0 -161 61 -224 141 -224c22 0 47 5 63 10z" />
    <glyph glyph-name="Eacute" unicode="&#xc9;" horiz-adv-x="394" 
d="M343 405v-109h-154v-182h174v-114h-305v674h293v-114h-162v-155h154zM231 823h132l-122 -113h-93z" />
    <glyph glyph-name="Ecircumflex" unicode="&#xca;" horiz-adv-x="394" 
d="M343 405v-109h-154v-182h174v-114h-305v674h293v-114h-162v-155h154zM156 820h103l84 -110h-96l-38 51h-2l-39 -51h-93z" />
    <glyph glyph-name="Edieresis" unicode="&#xcb;" horiz-adv-x="394" 
d="M343 405v-109h-154v-182h174v-114h-305v674h293v-114h-162v-155h154zM115 714c-32 0 -59 28 -59 64s28 64 59 64c32 0 59 -28 59 -64s-27 -64 -59 -64zM299 714c-32 0 -59 28 -59 64s27 64 59 64c33 0 59 -28 59 -64s-26 -64 -59 -64z" />
    <glyph glyph-name="Egrave" unicode="&#xc8;" horiz-adv-x="394" 
d="M343 405v-109h-154v-182h174v-114h-305v674h293v-114h-162v-155h154zM62 823h133l82 -113h-93z" />
    <glyph glyph-name="Iacute" unicode="&#xcd;" horiz-adv-x="248" 
d="M58 674h131v-674h-131v674zM143 823h132l-122 -113h-93z" />
    <glyph glyph-name="Icircumflex" unicode="&#xce;" horiz-adv-x="248" 
d="M58 674h131v-674h-131v674zM72 820h102l84 -110h-95l-39 51h-2l-39 -51h-92z" />
    <glyph glyph-name="Idieresis" unicode="&#xcf;" horiz-adv-x="248" 
d="M58 674h131v-674h-131v674zM32 714c-32 0 -60 28 -60 64s28 64 60 64s59 -28 59 -64s-27 -64 -59 -64zM216 714c-33 0 -60 28 -60 64s28 64 60 64s59 -28 59 -64s-27 -64 -59 -64z" />
    <glyph glyph-name="Igrave" unicode="&#xcc;" horiz-adv-x="248" 
d="M58 674h131v-674h-131v674zM-30 823h132l83 -113h-93z" />
    <glyph glyph-name="Ntilde" unicode="&#xd1;" horiz-adv-x="516" 
d="M173 0h-115v674h120l104 -264c20 -52 53 -139 72 -197h2c-4 71 -13 188 -13 312v149h115v-674h-120l-103 256c-22 57 -53 142 -68 203h-2c3 -68 8 -172 8 -307v-152zM201 718h-59c-2 75 26 115 66 115c23 0 39 -8 53 -17s26 -17 37 -17c15 0 21 9 24 38h58
c3 -84 -23 -115 -69 -115c-22 0 -40 8 -54 16c-13 9 -23 15 -34 15s-19 -11 -22 -35z" />
    <glyph glyph-name="Oacute" unicode="&#xd3;" horiz-adv-x="481" 
d="M247 682c163 0 209 -179 209 -333c0 -254 -90 -357 -218 -357c-153 0 -213 162 -213 347c0 184 73 343 222 343zM242 568c-52 0 -81 -86 -81 -231c0 -153 29 -231 82 -231c55 0 76 100 76 237c0 118 -18 225 -77 225zM267 823h133l-122 -113h-93z" />
    <glyph glyph-name="Ocircumflex" unicode="&#xd4;" horiz-adv-x="481" 
d="M247 682c163 0 209 -179 209 -333c0 -254 -90 -357 -218 -357c-153 0 -213 162 -213 347c0 184 73 343 222 343zM242 568c-52 0 -81 -86 -81 -231c0 -153 29 -231 82 -231c55 0 76 100 76 237c0 118 -18 225 -77 225zM188 820h102l85 -110h-96l-39 51h-2l-38 -51h-93z
" />
    <glyph glyph-name="Odieresis" unicode="&#xd6;" horiz-adv-x="481" 
d="M247 682c163 0 209 -179 209 -333c0 -254 -90 -357 -218 -357c-153 0 -213 162 -213 347c0 184 73 343 222 343zM242 568c-52 0 -81 -86 -81 -231c0 -153 29 -231 82 -231c55 0 76 100 76 237c0 118 -18 225 -77 225zM147 714c-31 0 -59 28 -59 64s28 64 59 64
c33 0 59 -28 59 -64s-26 -64 -59 -64zM332 714c-33 0 -60 28 -60 64s28 64 60 64s59 -28 59 -64s-27 -64 -59 -64z" />
    <glyph glyph-name="Ograve" unicode="&#xd2;" horiz-adv-x="481" 
d="M247 682c163 0 209 -179 209 -333c0 -254 -90 -357 -218 -357c-153 0 -213 162 -213 347c0 184 73 343 222 343zM242 568c-52 0 -81 -86 -81 -231c0 -153 29 -231 82 -231c55 0 76 100 76 237c0 118 -18 225 -77 225zM90 823h132l83 -113h-93z" />
    <glyph glyph-name="Otilde" unicode="&#xd5;" horiz-adv-x="481" 
d="M247 682c163 0 209 -179 209 -333c0 -254 -90 -357 -218 -357c-153 0 -213 162 -213 347c0 184 73 343 222 343zM242 568c-52 0 -81 -86 -81 -231c0 -153 29 -231 82 -231c55 0 76 100 76 237c0 118 -18 225 -77 225zM181 713h-59c-3 75 25 116 66 116c22 0 39 -8 52 -17
c15 -9 26 -17 37 -17c15 0 21 9 25 37h58c2 -83 -24 -114 -69 -114c-23 0 -40 7 -54 15c-14 9 -24 16 -35 16s-19 -12 -21 -36z" />
    <glyph glyph-name="Scaron" unicode="&#x160;" horiz-adv-x="394" 
d="M24 21l19 113c27 -15 73 -26 111 -26c62 0 92 32 92 76c0 49 -30 73 -87 110c-92 56 -127 127 -127 188c0 108 72 198 213 198c44 0 86 -12 106 -24l-21 -113c-19 12 -48 23 -86 23c-56 0 -83 -34 -83 -70c0 -40 20 -61 93 -105c89 -54 122 -122 122 -193
c0 -123 -91 -204 -223 -204c-54 0 -107 14 -129 27zM261 710h-102l-84 110h95l39 -53h2l39 53h92z" />
    <glyph glyph-name="Uacute" unicode="&#xda;" horiz-adv-x="500" 
d="M54 674h131v-438c0 -99 30 -129 64 -129c38 0 65 27 65 129v438h131v-415c0 -173 -65 -267 -195 -267c-141 0 -196 97 -196 266v416zM263 823h133l-122 -113h-93z" />
    <glyph glyph-name="Ucircumflex" unicode="&#xdb;" horiz-adv-x="500" 
d="M54 674h131v-438c0 -99 30 -129 64 -129c38 0 65 27 65 129v438h131v-415c0 -173 -65 -267 -195 -267c-141 0 -196 97 -196 266v416zM201 820h102l85 -110h-96l-39 51h-2l-39 -51h-92z" />
    <glyph glyph-name="Udieresis" unicode="&#xdc;" horiz-adv-x="500" 
d="M54 674h131v-438c0 -99 30 -129 64 -129c38 0 65 27 65 129v438h131v-415c0 -173 -65 -267 -195 -267c-141 0 -196 97 -196 266v416zM157 714c-32 0 -59 28 -59 64s28 64 59 64c32 0 59 -28 59 -64s-27 -64 -59 -64zM341 714c-33 0 -60 28 -60 64s28 64 60 64
s59 -28 59 -64s-27 -64 -59 -64z" />
    <glyph glyph-name="Ugrave" unicode="&#xd9;" horiz-adv-x="500" 
d="M54 674h131v-438c0 -99 30 -129 64 -129c38 0 65 27 65 129v438h131v-415c0 -173 -65 -267 -195 -267c-141 0 -196 97 -196 266v416zM101 823h133l83 -113h-93z" />
    <glyph glyph-name="Yacute" unicode="&#xdd;" horiz-adv-x="402" 
d="M264 0h-131v258l-148 416h140l46 -161c12 -43 25 -93 35 -143h2c8 49 19 98 31 146l40 158h136l-151 -411v-263zM230 823h133l-123 -113h-93z" />
    <glyph glyph-name="Ydieresis" unicode="&#x178;" horiz-adv-x="402" 
d="M264 0h-131v258l-148 416h140l46 -161c12 -43 25 -93 35 -143h2c8 49 19 98 31 146l40 158h136l-151 -411v-263zM113 712c-32 0 -59 28 -59 64s28 64 59 64c32 0 59 -28 59 -64s-27 -64 -59 -64zM297 712c-32 0 -60 28 -60 64s28 64 60 64c33 0 59 -28 59 -64
s-26 -64 -59 -64z" />
    <glyph glyph-name="Zcaron" unicode="&#x17d;" horiz-adv-x="387" 
d="M11 0v77l213 480v3h-193v114h341v-97l-204 -460v-3h203v-114h-360zM256 710h-102l-85 110h96l39 -53h2l38 53h93z" />
    <glyph glyph-name="aacute" unicode="&#xe1;" horiz-adv-x="422" 
d="M383 0h-118l-7 48h-2c-27 -38 -65 -56 -108 -56c-74 0 -129 62 -129 149c0 128 113 181 224 182v11c0 38 -23 66 -69 66c-39 0 -71 -10 -100 -28l-24 88c27 16 84 37 152 37c149 0 173 -104 173 -203v-182c0 -39 2 -79 8 -112zM247 153v85c-44 -1 -104 -15 -104 -83
c0 -49 27 -67 47 -67c21 0 45 13 54 42c2 7 3 15 3 23zM230 689h114l-101 -140h-82z" />
    <glyph glyph-name="acircumflex" unicode="&#xe2;" horiz-adv-x="422" 
d="M383 0h-118l-7 48h-2c-27 -38 -65 -56 -108 -56c-74 0 -129 62 -129 149c0 128 113 181 224 182v11c0 38 -23 66 -69 66c-39 0 -71 -10 -100 -28l-24 88c27 16 84 37 152 37c149 0 173 -104 173 -203v-182c0 -39 2 -79 8 -112zM247 153v85c-44 -1 -104 -15 -104 -83
c0 -49 27 -67 47 -67c21 0 45 13 54 42c2 7 3 15 3 23zM165 689h91l85 -140h-89l-41 80h-2l-39 -80h-91z" />
    <glyph glyph-name="adieresis" unicode="&#xe4;" horiz-adv-x="422" 
d="M383 0h-118l-7 48h-2c-27 -38 -65 -56 -108 -56c-74 0 -129 62 -129 149c0 128 113 181 224 182v11c0 38 -23 66 -69 66c-39 0 -71 -10 -100 -28l-24 88c27 16 84 37 152 37c149 0 173 -104 173 -203v-182c0 -39 2 -79 8 -112zM247 153v85c-44 -1 -104 -15 -104 -83
c0 -49 27 -67 47 -67c21 0 45 13 54 42c2 7 3 15 3 23zM122 560c-33 0 -60 27 -60 64s27 64 60 64c34 0 60 -26 60 -64c0 -37 -25 -64 -60 -64zM300 560c-34 0 -61 27 -61 64s28 64 61 64s59 -26 59 -64c0 -37 -25 -64 -59 -64z" />
    <glyph glyph-name="agrave" unicode="&#xe0;" horiz-adv-x="422" 
d="M383 0h-118l-7 48h-2c-27 -38 -65 -56 -108 -56c-74 0 -129 62 -129 149c0 128 113 181 224 182v11c0 38 -23 66 -69 66c-39 0 -71 -10 -100 -28l-24 88c27 16 84 37 152 37c149 0 173 -104 173 -203v-182c0 -39 2 -79 8 -112zM247 153v85c-44 -1 -104 -15 -104 -83
c0 -49 27 -67 47 -67c21 0 45 13 54 42c2 7 3 15 3 23zM78 689h115l68 -140h-82z" />
    <glyph glyph-name="aring" unicode="&#xe5;" horiz-adv-x="422" 
d="M383 0h-118l-7 48h-2c-27 -38 -65 -56 -108 -56c-74 0 -129 62 -129 149c0 128 113 181 224 182v11c0 38 -23 66 -69 66c-39 0 -71 -10 -100 -28l-24 88c27 16 84 37 152 37c149 0 173 -104 173 -203v-182c0 -39 2 -79 8 -112zM247 153v85c-44 -1 -104 -15 -104 -83
c0 -49 27 -67 47 -67c21 0 45 13 54 42c2 7 3 15 3 23zM213 538c-69 0 -104 40 -104 89c0 52 34 94 105 94c67 0 101 -39 101 -91c0 -51 -37 -92 -102 -92zM211 582c33 0 42 27 42 48s-8 47 -43 47c-29 0 -38 -28 -38 -49c0 -17 9 -46 39 -46z" />
    <glyph glyph-name="atilde" unicode="&#xe3;" horiz-adv-x="422" 
d="M383 0h-118l-7 48h-2c-27 -38 -65 -56 -108 -56c-74 0 -129 62 -129 149c0 128 113 181 224 182v11c0 38 -23 66 -69 66c-39 0 -71 -10 -100 -28l-24 88c27 16 84 37 152 37c149 0 173 -104 173 -203v-182c0 -39 2 -79 8 -112zM247 153v85c-44 -1 -104 -15 -104 -83
c0 -49 27 -67 47 -67c21 0 45 13 54 42c2 7 3 15 3 23zM148 557h-60c0 65 23 118 71 118c25 0 42 -10 58 -18c12 -8 24 -16 37 -16s21 5 21 37h58c0 -80 -27 -114 -70 -114c-19 0 -38 9 -53 16c-16 8 -25 17 -39 17c-12 0 -22 -14 -23 -40z" />
    <glyph glyph-name="ccedilla" unicode="&#xe7;" horiz-adv-x="323" 
d="M306 111l11 -103c-12 -6 -43 -13 -78 -14l-19 -38c35 -6 67 -33 67 -73c0 -64 -54 -87 -111 -87c-27 0 -56 8 -75 18l19 56c16 -8 36 -14 53 -14c16 0 31 7 31 25c0 20 -23 33 -68 37l38 84c-90 24 -145 106 -145 238c0 151 89 256 224 256c31 0 59 -7 72 -13l-17 -103
c-11 4 -27 9 -49 9c-63 0 -100 -60 -100 -145c0 -89 37 -143 98 -143c19 0 35 3 49 10z" />
    <glyph glyph-name="eacute" unicode="&#xe9;" horiz-adv-x="419" 
d="M387 198h-232c2 -76 46 -104 104 -104c37 0 70 8 93 16l18 -94c-34 -13 -85 -22 -135 -22c-133 0 -206 88 -206 241c0 164 85 262 196 262c105 0 166 -83 166 -231c0 -35 -1 -54 -4 -68zM156 290h116c0 63 -16 112 -55 112c-43 0 -60 -63 -61 -112zM248 689h114
l-101 -140h-82z" />
    <glyph glyph-name="ecircumflex" unicode="&#xea;" horiz-adv-x="419" 
d="M387 198h-232c2 -76 46 -104 104 -104c37 0 70 8 93 16l18 -94c-34 -13 -85 -22 -135 -22c-133 0 -206 88 -206 241c0 164 85 262 196 262c105 0 166 -83 166 -231c0 -35 -1 -54 -4 -68zM156 290h116c0 63 -16 112 -55 112c-43 0 -60 -63 -61 -112zM179 689h91l85 -140
h-89l-41 80h-2l-40 -80h-90z" />
    <glyph glyph-name="edieresis" unicode="&#xeb;" horiz-adv-x="419" 
d="M387 198h-232c2 -76 46 -104 104 -104c37 0 70 8 93 16l18 -94c-34 -13 -85 -22 -135 -22c-133 0 -206 88 -206 241c0 164 85 262 196 262c105 0 166 -83 166 -231c0 -35 -1 -54 -4 -68zM156 290h116c0 63 -16 112 -55 112c-43 0 -60 -63 -61 -112zM139 560
c-33 0 -60 27 -60 64s27 64 60 64c34 0 60 -26 60 -64c0 -37 -25 -64 -60 -64zM317 560c-34 0 -61 27 -61 64s28 64 61 64s59 -26 59 -64c0 -37 -25 -64 -59 -64z" />
    <glyph glyph-name="egrave" unicode="&#xe8;" horiz-adv-x="419" 
d="M387 198h-232c2 -76 46 -104 104 -104c37 0 70 8 93 16l18 -94c-34 -13 -85 -22 -135 -22c-133 0 -206 88 -206 241c0 164 85 262 196 262c105 0 166 -83 166 -231c0 -35 -1 -54 -4 -68zM156 290h116c0 63 -16 112 -55 112c-43 0 -60 -63 -61 -112zM93 689h115l68 -140
h-82z" />
    <glyph glyph-name="iacute" unicode="&#xed;" horiz-adv-x="223" 
d="M177 0h-131v489h131v-489zM135 689h114l-101 -140h-82z" />
    <glyph glyph-name="icircumflex" unicode="&#xee;" horiz-adv-x="223" 
d="M177 0h-131v489h131v-489zM67 689h91l85 -140h-89l-40 80h-2l-40 -80h-91z" />
    <glyph glyph-name="idieresis" unicode="&#xef;" horiz-adv-x="223" 
d="M177 0h-131v489h131v-489zM23 560c-33 0 -60 27 -60 64s27 64 60 64c34 0 60 -26 60 -64c0 -37 -25 -64 -60 -64zM201 560c-34 0 -61 27 -61 64s28 64 61 64s59 -26 59 -64c0 -37 -25 -64 -59 -64z" />
    <glyph glyph-name="igrave" unicode="&#xec;" horiz-adv-x="223" 
d="M177 0h-131v489h131v-489zM-24 689h115l68 -140h-82z" />
    <glyph glyph-name="ntilde" unicode="&#xf1;" horiz-adv-x="458" 
d="M46 0v342c0 54 -3 101 -4 147h113l6 -56h2c26 39 68 64 119 64c93 0 130 -74 130 -183v-314h-131v306c0 42 -10 81 -48 81c-22 0 -40 -15 -49 -44c-4 -10 -7 -26 -7 -45v-298h-131zM171 557h-60c0 65 22 118 71 118c24 0 41 -10 57 -18c13 -8 24 -16 37 -16s21 5 22 37
h58c0 -80 -28 -114 -70 -114c-20 0 -39 9 -53 16c-17 8 -25 17 -39 17c-13 0 -23 -14 -23 -40z" />
    <glyph glyph-name="oacute" unicode="&#xf3;" horiz-adv-x="431" 
d="M218 497c115 0 185 -97 185 -251c0 -204 -113 -254 -187 -254c-117 0 -187 92 -187 251c0 176 92 254 189 254zM217 398c-48 0 -58 -85 -58 -152c0 -84 13 -154 60 -154c42 0 53 82 53 154c0 67 -11 152 -55 152zM243 689h114l-101 -140h-82z" />
    <glyph glyph-name="ocircumflex" unicode="&#xf4;" horiz-adv-x="431" 
d="M218 497c115 0 185 -97 185 -251c0 -204 -113 -254 -187 -254c-117 0 -187 92 -187 251c0 176 92 254 189 254zM217 398c-48 0 -58 -85 -58 -152c0 -84 13 -154 60 -154c42 0 53 82 53 154c0 67 -11 152 -55 152zM171 689h91l85 -140h-89l-41 80h-2l-39 -80h-91z" />
    <glyph glyph-name="odieresis" unicode="&#xf6;" horiz-adv-x="431" 
d="M218 497c115 0 185 -97 185 -251c0 -204 -113 -254 -187 -254c-117 0 -187 92 -187 251c0 176 92 254 189 254zM217 398c-48 0 -58 -85 -58 -152c0 -84 13 -154 60 -154c42 0 53 82 53 154c0 67 -11 152 -55 152zM127 560c-33 0 -60 27 -60 64s27 64 60 64
c34 0 60 -26 60 -64c0 -37 -25 -64 -60 -64zM305 560c-34 0 -61 27 -61 64s28 64 61 64s59 -26 59 -64c0 -37 -25 -64 -59 -64z" />
    <glyph glyph-name="ograve" unicode="&#xf2;" horiz-adv-x="431" 
d="M218 497c115 0 185 -97 185 -251c0 -204 -113 -254 -187 -254c-117 0 -187 92 -187 251c0 176 92 254 189 254zM217 398c-48 0 -58 -85 -58 -152c0 -84 13 -154 60 -154c42 0 53 82 53 154c0 67 -11 152 -55 152zM84 689h115l68 -140h-82z" />
    <glyph glyph-name="otilde" unicode="&#xf5;" horiz-adv-x="431" 
d="M218 497c115 0 185 -97 185 -251c0 -204 -113 -254 -187 -254c-117 0 -187 92 -187 251c0 176 92 254 189 254zM217 398c-48 0 -58 -85 -58 -152c0 -84 13 -154 60 -154c42 0 53 82 53 154c0 67 -11 152 -55 152zM154 557h-60c0 65 22 118 71 118c24 0 41 -10 57 -18
c13 -8 24 -16 37 -16s21 5 22 37h58c0 -80 -28 -114 -70 -114c-20 0 -39 9 -53 16c-17 8 -25 17 -39 17c-13 0 -23 -14 -23 -40z" />
    <glyph glyph-name="scaron" unicode="&#x161;" horiz-adv-x="324" 
d="M18 22l24 96c19 -12 55 -26 88 -26c34 0 53 15 53 44c0 25 -14 41 -57 66c-80 45 -99 96 -99 141c0 88 63 154 161 154c41 0 73 -10 99 -22l-23 -96c-19 11 -42 20 -68 20c-33 0 -49 -20 -49 -42s11 -34 57 -61c72 -41 99 -92 99 -148c0 -100 -72 -154 -173 -154
c-41 0 -89 11 -112 28zM208 549h-92l-85 140h89l41 -80h2l40 80h91z" />
    <glyph glyph-name="uacute" unicode="&#xfa;" horiz-adv-x="452" 
d="M404 489v-340c0 -52 2 -103 4 -149h-113l-7 52h-2c-23 -33 -63 -60 -113 -60c-93 0 -131 69 -131 201v296h132v-282c0 -64 12 -105 49 -105c22 0 36 17 42 33c5 10 8 25 8 42v312h131zM252 689h114l-101 -140h-82z" />
    <glyph glyph-name="ucircumflex" unicode="&#xfb;" horiz-adv-x="452" 
d="M404 489v-340c0 -52 2 -103 4 -149h-113l-7 52h-2c-23 -33 -63 -60 -113 -60c-93 0 -131 69 -131 201v296h132v-282c0 -64 12 -105 49 -105c22 0 36 17 42 33c5 10 8 25 8 42v312h131zM181 689h91l86 -140h-90l-40 80h-2l-40 -80h-91z" />
    <glyph glyph-name="udieresis" unicode="&#xfc;" horiz-adv-x="452" 
d="M404 489v-340c0 -52 2 -103 4 -149h-113l-7 52h-2c-23 -33 -63 -60 -113 -60c-93 0 -131 69 -131 201v296h132v-282c0 -64 12 -105 49 -105c22 0 36 17 42 33c5 10 8 25 8 42v312h131zM140 560c-33 0 -60 27 -60 64s27 64 60 64c34 0 60 -26 60 -64
c0 -37 -25 -64 -60 -64zM318 560c-34 0 -61 27 -61 64s28 64 61 64s59 -26 59 -64c0 -37 -25 -64 -59 -64z" />
    <glyph glyph-name="ugrave" unicode="&#xf9;" horiz-adv-x="452" 
d="M404 489v-340c0 -52 2 -103 4 -149h-113l-7 52h-2c-23 -33 -63 -60 -113 -60c-93 0 -131 69 -131 201v296h132v-282c0 -64 12 -105 49 -105c22 0 36 17 42 33c5 10 8 25 8 42v312h131zM97 689h114l69 -140h-82z" />
    <glyph glyph-name="yacute" unicode="&#xfd;" horiz-adv-x="391" 
d="M5 489h141l48 -254c5 -29 9 -56 13 -82h2c4 25 8 53 12 80l41 256h128l-100 -377c-24 -92 -56 -187 -109 -250c-41 -48 -91 -71 -111 -77l-40 113c23 8 45 23 65 41c18 17 32 37 41 58c4 9 7 14 7 21c0 6 -2 12 -4 18zM220 689h114l-101 -140h-82z" />
    <glyph glyph-name="ydieresis" unicode="&#xff;" horiz-adv-x="391" 
d="M5 489h141l48 -254c5 -29 9 -56 13 -82h2c4 25 8 53 12 80l41 256h128l-100 -377c-24 -92 -56 -187 -109 -250c-41 -48 -91 -71 -111 -77l-40 113c23 8 45 23 65 41c18 17 32 37 41 58c4 9 7 14 7 21c0 6 -2 12 -4 18zM110 560c-33 0 -60 27 -60 64s28 64 60 64
c34 0 60 -26 60 -64c0 -37 -25 -64 -60 -64zM288 560c-34 0 -60 27 -60 64s27 64 60 64c34 0 59 -26 59 -64c0 -37 -25 -64 -59 -64z" />
    <glyph glyph-name="zcaron" unicode="&#x17e;" horiz-adv-x="351" 
d="M18 0v82l120 218c16 28 37 60 46 79v3h-151v107h294v-89l-117 -210c-17 -29 -36 -60 -47 -80v-3h168v-107h-313zM232 549h-92l-85 140h89l41 -80h2l40 80h91z" />
    <glyph glyph-name="Dcroat" unicode="&#x110;" horiz-adv-x="493" 
d="M0 303v91h61v270c32 8 81 13 133 13c85 0 144 -20 187 -60c58 -52 87 -141 87 -272c0 -137 -35 -233 -93 -286c-46 -43 -112 -65 -206 -65c-42 0 -83 4 -108 8v301h-61zM265 394v-91h-74v-200c7 -2 17 -2 24 -2c63 0 118 62 118 249c0 138 -36 222 -116 222
c-10 0 -18 -1 -26 -3v-175h74z" />
    <glyph glyph-name="Eng" unicode="&#x14a;" horiz-adv-x="516" 
d="M173 0h-115v674h120l104 -264c20 -52 53 -139 72 -197h2c-4 71 -13 188 -13 312v149h115v-643c0 -128 -49 -212 -167 -233l-32 98c53 16 80 47 81 89l-105 271c-22 57 -53 142 -68 203h-2c3 -68 8 -172 8 -307v-152z" />
    <glyph glyph-name="Hbar" unicode="&#x126;" horiz-adv-x="515" 
d="M501 470h-44v-470h-131v265h-137v-265h-131v470h-44v89h44v115h131v-115h137v115h131v-115h44v-89zM326 387v83h-137v-83h137z" />
    <glyph glyph-name="Tbar" unicode="&#x166;" horiz-adv-x="393" 
d="M382 553h-120v-163h80v-89h-80v-301h-131v301h-81v89h81v163h-119v121h370v-121z" />
    <glyph glyph-name="uni021C" unicode="&#x21c;" horiz-adv-x="388" 
d="M36 -123l-18 105c92 15 213 85 213 195c0 41 -25 101 -94 101c-19 0 -48 -5 -72 -13l-18 94c72 13 154 75 154 151c0 40 -31 65 -71 65c-30 0 -65 -11 -86 -20l-22 94c24 15 83 33 138 33c96 0 166 -69 166 -151c0 -85 -49 -142 -102 -169v-2c72 -16 141 -76 141 -177
c0 -185 -198 -298 -329 -306z" />
    <glyph glyph-name="dcroat" unicode="&#x111;" horiz-adv-x="447" 
d="M461 533h-60v-388c0 -47 2 -100 4 -145h-113l-7 55h-2c-18 -34 -57 -63 -102 -63c-104 0 -152 115 -152 252c0 170 74 253 157 253c43 0 70 -21 82 -49h2v85h-128v81h128v78h131v-78h60v-81zM270 172v129c0 9 0 19 -1 29c-5 30 -21 57 -47 57c-46 0 -63 -67 -63 -146
c0 -93 25 -142 62 -142c16 0 35 9 45 43c3 7 4 18 4 30z" />
    <glyph glyph-name="eng" unicode="&#x14b;" horiz-adv-x="458" 
d="M46 0v342c0 54 -3 101 -4 147h113l6 -56h2c26 39 68 64 119 64c93 0 130 -74 130 -183v-278c0 -153 -78 -211 -170 -225l-29 99c42 11 68 32 68 108v288c0 42 -10 81 -48 81c-22 0 -40 -15 -49 -44c-4 -10 -7 -26 -7 -45v-298h-131z" />
    <glyph glyph-name="hbar" unicode="&#x127;" horiz-adv-x="458" 
d="M412 0h-131v297c0 48 -9 90 -48 90c-22 0 -41 -13 -51 -46c-2 -8 -5 -26 -5 -37v-304h-131v533h-61v81h61v78h131v-78h132v-81h-132v-95h2c11 17 26 31 42 42c19 11 42 17 66 17c90 0 125 -76 125 -200v-297z" />
    <glyph glyph-name="kgreenlandic" unicode="&#x138;" horiz-adv-x="413" 
d="M176 489v-214h2c9 28 16 48 25 68l63 146h141l-118 -205l125 -284h-146l-70 201l-22 -42v-159h-131v489h131z" />
    <glyph glyph-name="napostrophe" unicode="&#x149;" horiz-adv-x="458" 
d="M53 520l-57 33c13 16 30 46 30 79c0 26 -15 49 -28 59l90 12c17 -10 33 -34 33 -67c0 -61 -50 -101 -68 -116zM46 0v342c0 54 -3 101 -4 147h113l6 -56h2c26 39 68 64 119 64c93 0 130 -74 130 -183v-314h-131v306c0 42 -10 81 -48 81c-22 0 -40 -15 -49 -44
c-4 -10 -7 -26 -7 -45v-298h-131z" />
    <glyph glyph-name="tbar" unicode="&#x167;" horiz-adv-x="311" 
d="M296 396h-96v-70h75v-82h-75v-71c0 -57 24 -71 50 -71c13 0 23 1 34 3l1 -102c-18 -5 -45 -9 -80 -9c-38 0 -71 9 -94 31c-27 26 -42 63 -42 140v79h-56v82h56v70h-58v93h58v101l131 31v-132h96v-93z" />
    <glyph glyph-name="uni021D" unicode="&#x21d;" horiz-adv-x="361" 
d="M27 -200l-10 106c70 2 195 41 195 149c0 31 -16 76 -86 76c-19 0 -42 -4 -65 -12l-19 94c70 18 143 46 143 112c0 42 -29 66 -67 66c-30 0 -53 -10 -75 -20l-24 94c25 15 73 32 127 32c97 0 159 -58 159 -140c0 -69 -37 -117 -91 -142v-3c72 -15 128 -61 128 -150
c0 -167 -179 -259 -315 -262z" />
    <glyph glyph-name="IJ" unicode="&#x132;" horiz-adv-x="544" 
d="M58 674h131v-674h-131v674zM363 209v465h131v-459c0 -194 -93 -223 -189 -223c-27 0 -51 4 -66 10l11 110c12 -4 26 -5 43 -5c38 0 70 15 70 102z" />
    <glyph glyph-name="ij" unicode="&#x133;" horiz-adv-x="447" 
d="M177 0h-131v489h131v-489zM110 690c38 0 67 -27 67 -71c1 -42 -29 -71 -69 -71c-36 0 -66 29 -65 71c-1 44 31 71 67 71zM194 -200l-10 104c23 3 48 8 64 26c18 20 22 55 22 130v429h131v-454c0 -109 -23 -160 -65 -193c-36 -29 -95 -42 -142 -42zM335 690
c38 0 67 -27 67 -71c1 -42 -29 -71 -68 -71c-37 0 -66 29 -66 71c0 44 31 71 67 71z" />
    <glyph glyph-name="zero.slash" unicode="&#xf638;" horiz-adv-x="426" 
d="M152 247l109 254c-8 27 -23 45 -46 45c-44 0 -68 -70 -68 -221c0 -26 2 -50 5 -78zM274 406l-109 -261c9 -24 24 -41 47 -41c45 0 67 72 67 221c0 27 -1 52 -5 81zM218 658c150 0 185 -175 185 -330c0 -233 -85 -336 -190 -336c-142 0 -190 163 -190 330
c0 187 60 336 195 336z" />
    <glyph glyph-name="Euro" unicode="&#x20ac;" horiz-adv-x="426" 
d="M392 123l14 -108c-19 -9 -61 -23 -105 -23c-56 0 -115 19 -159 72c-33 38 -58 94 -67 174h-51v67h46v12c0 12 1 25 1 35h-47v68h54c8 61 29 108 54 143c42 63 102 95 181 95c43 0 73 -12 92 -20l-21 -109c-13 7 -41 17 -66 17c-32 0 -59 -11 -79 -42
c-13 -18 -24 -45 -30 -84h153v-68h-160c-1 -10 -1 -23 -1 -36v-11h161v-67h-156c4 -44 15 -73 29 -93c20 -31 51 -41 81 -41c27 0 60 11 76 19z" />
    <glyph glyph-name="Aringacute" unicode="&#x1fa;" horiz-adv-x="458" 
d="M238 689c-70 0 -99 41 -99 79c0 40 33 83 100 83c70 0 97 -39 97 -81c0 -39 -30 -81 -98 -81zM237 733c29 0 39 19 39 37c0 17 -10 37 -40 37c-28 0 -37 -20 -37 -37c0 -16 10 -37 38 -37zM288 958h135l-146 -90h-95zM286 154h-121l-30 -154h-127l146 674h157l131 -674
h-127zM178 256h96l-22 141c-7 41 -16 108 -22 153h-3c-7 -45 -17 -115 -24 -154z" />
    <glyph glyph-name="estimated" unicode="&#x212e;" horiz-adv-x="817" 
d="M782 316h-605c-3 0 -5 -1 -5 -4v-183c0 -8 4 -15 9 -21c57 -61 139 -99 229 -99c96 0 182 43 240 111h55c-68 -79 -176 -131 -296 -131c-206 0 -374 150 -374 336s168 336 374 336s373 -150 373 -336v-9zM646 340v184c0 9 -4 16 -10 22c-58 58 -138 95 -226 95
c-90 0 -170 -38 -228 -98c-6 -6 -10 -14 -10 -23v-180c0 -3 2 -5 5 -5h464c3 0 5 2 5 5z" />
    <glyph glyph-name="zero.oldstyle" unicode="&#xf730;" horiz-adv-x="431" 
d="M215 -8c-91 0 -186 71 -186 253c0 181 95 252 186 252c92 0 187 -71 187 -252c0 -182 -95 -253 -187 -253zM215 92c41 0 65 47 65 153s-25 152 -65 152s-64 -46 -64 -152s25 -153 64 -153z" />
    <glyph glyph-name="one.oldstyle" unicode="&#xf731;" horiz-adv-x="321" 
d="M258 0h-129v374h-2l-92 -51l-22 98l142 72h103v-493z" />
    <glyph glyph-name="two.oldstyle" unicode="&#xf732;" horiz-adv-x="365" 
d="M343 0h-325v76l44 42c71 67 134 134 134 199c0 49 -28 74 -74 74c-29 0 -55 -11 -76 -24l-31 86c34 22 90 44 150 44c90 0 155 -59 155 -156c0 -88 -51 -148 -118 -210l-26 -26v-2c22 2 65 5 87 5h80v-108z" />
    <glyph glyph-name="three.oldstyle" unicode="&#xf733;" horiz-adv-x="357" 
d="M16 -113l13 101c12 -4 38 -7 62 -7c68 0 114 35 114 88c0 50 -39 81 -99 81c-14 0 -30 0 -40 -1l-1 100l27 2c54 5 102 33 102 80c0 39 -27 59 -69 59c-30 0 -60 -8 -82 -18l-18 96c25 15 73 29 128 29c96 0 163 -58 163 -139c0 -74 -50 -126 -105 -139v-3
c72 -14 124 -69 124 -148c0 -122 -110 -193 -226 -193c-42 0 -74 6 -93 12z" />
    <glyph glyph-name="four.oldstyle" unicode="&#xf734;" horiz-adv-x="419" 
d="M403 39h-65v-157h-112v157h-214v88l200 364h126v-350h65v-102zM226 141v128c0 31 0 61 3 94h-2c-9 -29 -28 -73 -43 -102l-62 -117v-3h104z" />
    <glyph glyph-name="five.oldstyle" unicode="&#xf735;" horiz-adv-x="361" 
d="M21 -112l11 100c14 -3 32 -6 62 -6c53 0 110 31 110 95c0 27 -7 52 -26 68c-27 26 -82 37 -142 36l49 308h248l-15 -111h-147l-18 -110c53 -6 103 -26 137 -59c29 -29 45 -69 45 -121c0 -129 -101 -212 -232 -212c-31 0 -66 5 -82 12z" />
    <glyph glyph-name="six.oldstyle" unicode="&#xf736;" horiz-adv-x="432" 
d="M361 614l10 -98c-126 -12 -183 -82 -200 -158h2c18 24 52 42 86 42c73 0 143 -65 143 -191c0 -134 -86 -217 -185 -217c-98 0 -187 71 -187 248c0 198 117 362 331 374zM218 86c27 0 54 27 54 110c0 75 -25 112 -59 112c-14 0 -27 -9 -36 -21c-10 -13 -17 -40 -17 -77
c0 -97 28 -124 58 -124z" />
    <glyph glyph-name="seven.oldstyle" unicode="&#xf737;" horiz-adv-x="360" 
d="M342 489v-74c-12 -65 -139 -387 -216 -533l-121 16c73 132 178 371 206 477v2h-194v112h325z" />
    <glyph glyph-name="eight.oldstyle" unicode="&#xf738;" horiz-adv-x="440" 
d="M312 327v-4c55 -32 97 -80 97 -151c0 -117 -91 -180 -191 -180c-109 0 -187 68 -187 169c0 68 41 119 95 154v3c-51 36 -78 83 -78 133c0 105 83 166 181 166c85 0 165 -52 165 -155c0 -58 -29 -102 -82 -135zM226 535c-38 1 -57 -37 -57 -76c0 -38 22 -71 64 -95
c24 22 43 50 43 95c0 52 -25 75 -50 76zM221 79c40 0 64 35 64 80c0 53 -34 88 -76 112c-32 -21 -54 -57 -54 -105c0 -44 26 -87 66 -87z" />
    <glyph glyph-name="nine.oldstyle" unicode="&#xf739;" horiz-adv-x="432" 
d="M59 -121l-11 96c132 13 193 74 212 156l-2 1c-16 -23 -45 -39 -87 -39c-67 0 -141 65 -141 192c0 131 86 212 187 212c97 0 184 -81 184 -241c0 -219 -126 -370 -342 -377zM220 179c14 0 26 9 35 21s16 39 16 77c0 88 -26 125 -58 125c-26 0 -54 -25 -54 -109
c0 -79 28 -114 61 -114z" />
    <glyph glyph-name="percent.oldstyle" unicode="&#xf642;" horiz-adv-x="678" 
d="M150 617c97 0 128 -107 128 -196c0 -138 -63 -202 -129 -202c-91 0 -131 99 -131 197c0 105 47 201 132 201zM149 548c-29 0 -43 -48 -43 -129c-1 -84 12 -130 43 -130s41 48 41 128c0 77 -9 131 -41 131zM208 -10h-68l329 629h68zM532 392c97 0 128 -107 128 -196
c0 -138 -63 -202 -128 -202c-92 0 -132 100 -132 197c0 105 47 201 132 201zM531 323c-29 0 -43 -47 -43 -129c-1 -84 13 -130 44 -130c30 0 40 48 40 129c0 76 -9 130 -41 130z" />
    <glyph glyph-name="zero.fitted" unicode="&#xf639;" horiz-adv-x="426" 
d="M218 658c150 0 185 -175 185 -330c0 -233 -85 -336 -190 -336c-142 0 -190 163 -190 330c0 187 60 336 195 336zM216 546c-41 0 -62 -70 -61 -221c-2 -152 17 -221 61 -221c41 0 55 72 55 221c0 139 -13 221 -55 221z" />
    <glyph glyph-name="one.fitted" unicode="&#xf6dc;" horiz-adv-x="317" 
d="M130 0v527h-2l-110 -57l-22 103l149 77h114v-650h-129z" />
    <glyph glyph-name="two.fitted" unicode="&#xf63a;" horiz-adv-x="376" 
d="M355 0h-355v88l65 83c84 107 153 196 153 289c0 52 -30 89 -83 89c-41 0 -74 -18 -98 -33l-23 102c30 19 85 40 144 40c142 0 189 -95 189 -188c0 -122 -77 -220 -151 -307l-39 -46v-2h198v-115z" />
    <glyph glyph-name="three.fitted" unicode="&#xf63b;" horiz-adv-x="361" 
d="M-5 21l19 103c25 -15 62 -25 96 -25c64 0 99 39 99 94c0 72 -56 103 -122 103h-18v96h13c48 1 110 21 110 84c0 47 -30 75 -76 75c-29 0 -58 -11 -82 -26l-17 99c27 17 80 34 133 34c115 0 172 -74 172 -157c0 -65 -36 -119 -93 -146v-2c63 -21 111 -77 111 -165
c0 -99 -76 -196 -217 -196c-53 0 -99 13 -128 29z" />
    <glyph glyph-name="four.fitted" unicode="&#xf63c;" horiz-adv-x="418" 
d="M345 0h-116v155h-223v90l212 405h127v-390h64v-105h-64v-155zM117 260h112v133c0 35 3 73 6 107h-3c-15 -36 -28 -65 -46 -101l-69 -137v-2z" />
    <glyph glyph-name="five.fitted" unicode="&#xf63d;" horiz-adv-x="373" 
d="M338 650v-114h-173l-15 -116h20c28 -1 85 -14 123 -49c36 -35 56 -84 56 -149c0 -127 -84 -230 -226 -230c-47 0 -96 12 -122 26l20 104c24 -12 57 -23 92 -23c65 0 107 41 107 111c0 87 -66 116 -141 116c-18 0 -33 0 -47 -2l37 326h269z" />
    <glyph glyph-name="six.fitted" unicode="&#xf63e;" horiz-adv-x="426" 
d="M355 658v-106c-16 -1 -34 -3 -54 -7c-86 -19 -129 -91 -145 -173h3c23 31 57 52 100 52c88 0 147 -79 147 -202c0 -114 -58 -230 -185 -230c-123 0 -198 107 -198 268c0 142 47 239 107 303c42 47 105 78 159 88c31 6 52 6 66 7zM219 87c44 0 58 58 58 136
c-1 55 -19 107 -61 107c-21 0 -41 -14 -53 -44c-4 -7 -7 -27 -7 -57c0 -85 24 -142 63 -142z" />
    <glyph glyph-name="seven.fitted" unicode="&#xf63f;" horiz-adv-x="352" 
d="M0 650h354v-86l-204 -564h-128l199 533v2h-221v115z" />
    <glyph glyph-name="eight.fitted" unicode="&#xf640;" horiz-adv-x="426" 
d="M210 -8c-111 0 -190 71 -190 177c0 81 45 139 98 173v2c-55 36 -80 92 -80 143c0 106 84 171 184 171c93 0 168 -63 168 -160c0 -43 -17 -101 -85 -144v-2c60 -33 100 -93 100 -170c0 -120 -88 -190 -195 -190zM215 80c41 0 63 42 63 97c0 61 -38 101 -75 120
c-33 -23 -56 -63 -56 -113c0 -56 23 -104 68 -104zM217 570c-38 0 -56 -39 -56 -79c0 -46 26 -78 64 -98c28 15 45 55 45 93c0 44 -15 84 -53 84z" />
    <glyph glyph-name="nine.fitted" unicode="&#xf641;" horiz-adv-x="426" 
d="M74 -8v109c25 0 38 1 60 5c25 5 54 18 76 39c28 27 52 73 63 131h-3c-21 -23 -51 -40 -93 -40c-84 0 -153 75 -153 194c0 112 69 228 194 228c121 0 184 -110 184 -267c0 -147 -47 -250 -107 -314c-40 -43 -97 -72 -160 -82c-21 -3 -41 -3 -61 -3zM211 563
c-34 0 -59 -43 -58 -122c1 -63 21 -115 61 -115c23 0 43 17 50 34c5 13 6 26 6 69c0 86 -24 134 -59 134z" />
    <glyph glyph-name="zero.slashfitted" unicode="&#xe008;" horiz-adv-x="426" 
d="M152 247l109 254c-8 27 -23 45 -46 45c-44 0 -68 -70 -68 -221c0 -26 2 -50 5 -78zM274 406l-109 -261c9 -24 24 -41 47 -41c45 0 67 72 67 221c0 27 -1 52 -5 81zM218 658c150 0 185 -175 185 -330c0 -233 -85 -336 -190 -336c-142 0 -190 163 -190 330
c0 187 60 336 195 336z" />
    <glyph glyph-name="zero.taboldstyle" unicode="&#xf643;" horiz-adv-x="431" 
d="M215 -8c-91 0 -186 71 -186 253c0 181 95 252 186 252c92 0 187 -71 187 -252c0 -182 -95 -253 -187 -253zM215 92c41 0 65 47 65 153s-25 152 -65 152s-64 -46 -64 -152s25 -153 64 -153z" />
    <glyph glyph-name="one.taboldstyle" unicode="&#xf644;" horiz-adv-x="431" 
d="M323 0h-130v379h-2l-136 -60l-19 98l184 76h103v-493z" />
    <glyph glyph-name="two.taboldstyle" unicode="&#xf645;" horiz-adv-x="431" 
d="M375 0h-325v76l45 42c70 67 134 134 134 199c0 49 -29 74 -75 74c-28 0 -55 -11 -76 -24l-30 86c34 22 89 44 149 44c91 0 155 -59 155 -156c0 -88 -50 -148 -118 -210l-26 -26v-2c23 2 65 5 88 5h79v-108z" />
    <glyph glyph-name="three.taboldstyle" unicode="&#xf646;" horiz-adv-x="431" 
d="M51 -113l13 101c12 -4 38 -7 62 -7c68 0 114 35 114 88c0 50 -39 81 -99 81c-13 0 -30 0 -40 -1l-1 100l28 2c54 5 101 33 101 80c0 39 -27 59 -68 59c-31 0 -61 -8 -82 -18l-19 96c25 15 73 29 128 29c97 0 163 -58 163 -139c0 -74 -49 -126 -105 -139v-3
c72 -14 124 -69 124 -148c0 -122 -110 -193 -226 -193c-42 0 -74 6 -93 12z" />
    <glyph glyph-name="four.taboldstyle" unicode="&#xf647;" horiz-adv-x="431" 
d="M409 39h-65v-157h-112v157h-214v88l200 364h126v-350h65v-102zM232 141v128c0 31 0 61 4 94h-3c-9 -29 -28 -73 -43 -102l-62 -117v-3h104z" />
    <glyph glyph-name="five.taboldstyle" unicode="&#xf648;" horiz-adv-x="431" 
d="M51 -112l12 100c14 -3 32 -6 62 -6c53 0 110 31 110 95c0 27 -8 52 -26 68c-27 26 -83 37 -142 36l49 308h248l-15 -111h-147l-19 -110c54 -6 104 -26 138 -59c29 -29 45 -69 45 -121c0 -129 -102 -212 -232 -212c-31 0 -66 5 -83 12z" />
    <glyph glyph-name="six.taboldstyle" unicode="&#xf649;" horiz-adv-x="431" 
d="M361 614l11 -98c-127 -12 -184 -82 -200 -158h2c17 24 52 42 86 42c73 0 143 -65 143 -191c0 -134 -87 -217 -186 -217c-98 0 -186 71 -186 248c0 198 117 362 330 374zM219 86c27 0 54 27 54 110c0 75 -25 112 -59 112c-15 0 -27 -9 -37 -21c-10 -13 -16 -40 -16 -77
c0 -97 28 -124 58 -124z" />
    <glyph glyph-name="seven.taboldstyle" unicode="&#xf64a;" horiz-adv-x="431" 
d="M380 489v-74c-13 -65 -140 -387 -216 -533l-121 16c73 132 178 371 206 477v2h-195v112h326z" />
    <glyph glyph-name="eight.taboldstyle" unicode="&#xf64b;" horiz-adv-x="431" 
d="M306 327v-4c54 -32 96 -80 96 -151c0 -117 -91 -180 -191 -180c-109 0 -186 68 -186 169c0 68 41 119 94 154v3c-51 36 -77 83 -77 133c0 105 82 166 181 166c85 0 164 -52 164 -155c0 -58 -28 -102 -81 -135zM219 535c-37 1 -57 -37 -57 -76c0 -38 22 -71 65 -95
c24 22 43 50 43 95c0 52 -26 75 -51 76zM215 79c39 0 63 35 63 80c0 53 -34 88 -76 112c-31 -21 -53 -57 -53 -105c0 -44 25 -87 66 -87z" />
    <glyph glyph-name="nine.taboldstyle" unicode="&#xf64c;" horiz-adv-x="431" 
d="M59 -121l-11 96c132 13 193 74 212 156l-2 1c-16 -23 -45 -39 -87 -39c-67 0 -141 65 -141 192c0 131 86 212 187 212c97 0 183 -81 183 -241c0 -219 -125 -370 -341 -377zM220 179c14 0 26 9 35 21s16 39 16 77c0 88 -26 125 -58 125c-26 0 -55 -25 -55 -109
c0 -79 28 -114 62 -114z" />
    <glyph glyph-name="dollar.taboldstyle" unicode="&#xf653;" horiz-adv-x="431" 
d="M248 -70h-84v74c-43 2 -82 13 -108 26l20 93c28 -14 75 -25 106 -25c45 0 72 16 72 44c0 25 -18 42 -81 71c-82 39 -115 77 -115 139c0 58 44 109 120 129v84h84v-76c43 -1 71 -11 96 -22l-25 -92c-22 11 -51 19 -84 19c-45 0 -69 -17 -69 -39s13 -35 85 -65
c74 -32 111 -79 111 -140c0 -73 -52 -124 -128 -140v-80z" />
    <glyph glyph-name="cent.taboldstyle" unicode="&#xf654;" horiz-adv-x="431" 
d="M332 155l10 -89c-14 -6 -39 -12 -69 -13v-67h-76v70c-98 20 -146 102 -146 201c0 107 60 183 146 205v70h76v-64c26 -2 49 -8 64 -15l-15 -90c-16 7 -38 13 -67 13c-52 0 -86 -45 -86 -119c0 -73 38 -115 91 -115c29 0 51 5 72 13z" />
    <glyph glyph-name="Euro.taboldstyle" unicode="&#xf64e;" horiz-adv-x="431" 
d="M385 114l13 -103c-19 -9 -53 -19 -92 -19c-54 0 -112 18 -151 57c-30 31 -53 74 -64 129h-49v62h43c-1 10 -1 16 -1 20c0 7 0 16 1 27h-43v62h51c10 54 34 99 65 130c40 39 92 59 153 59c35 0 65 -7 85 -15l-19 -102c-13 4 -34 9 -57 9c-24 0 -49 -8 -65 -23
c-14 -14 -25 -32 -29 -58h128v-62h-138c-1 -10 -1 -19 -1 -26c0 -5 0 -11 1 -21h138v-62h-128c6 -23 15 -40 28 -53c17 -17 46 -25 70 -25c22 0 45 6 61 14z" />
    <glyph glyph-name="florin.taboldstyle" unicode="&#xf64f;" horiz-adv-x="431" 
d="M80 250v101h72l5 57c9 118 72 209 192 209c25 0 47 -5 62 -12l-17 -97c-12 4 -24 6 -38 6c-47 0 -68 -44 -74 -105l-6 -58h91v-101h-98l-17 -179c-10 -106 -47 -197 -171 -197c-27 0 -55 6 -72 15l19 95c12 -5 27 -8 38 -8c28 0 54 19 62 99l17 175h-65z" />
    <glyph glyph-name="sterling.taboldstyle" unicode="&#xf651;" horiz-adv-x="431" 
d="M386 0h-347v79c52 22 82 62 82 107c0 12 -1 26 -3 38h-73v75h57c-4 20 -7 41 -7 62c0 104 69 190 186 190c41 0 66 -9 82 -17l-19 -106c-14 7 -31 13 -56 13c-43 0 -68 -30 -68 -81c0 -19 3 -41 7 -61h111v-75h-99c1 -8 2 -14 2 -20c0 -45 -24 -76 -48 -94v-2h193v-108z
" />
    <glyph glyph-name="yen.taboldstyle" unicode="&#xf652;" horiz-adv-x="431" 
d="M275 0h-120v108h-119v67h119v46h-119v66h91l-114 243h131l47 -134c13 -36 22 -68 28 -95h2c7 28 15 60 28 97l46 132h123l-115 -243h91v-66h-119v-46h119v-67h-119v-108z" />
    <glyph glyph-name="numbersign.taboldstyle" unicode="&#xf650;" horiz-adv-x="431" 
d="M171 222h71l15 115h-72zM139 -32h-75l23 179h-72v75h82l14 115h-74v75h84l22 174h74l-22 -174h72l22 174h74l-23 -174h71v-75h-80l-14 -115h74v-75h-84l-22 -179h-75l23 179h-72z" />
    <glyph glyph-name="zero.superior" unicode="&#x2070;" horiz-adv-x="291" 
d="M146 412c-98 0 -130 101 -130 198c0 108 39 202 132 202c103 0 127 -108 127 -198c0 -134 -53 -202 -129 -202zM147 489c23 0 35 33 35 123c0 84 -10 123 -34 123c-23 0 -39 -34 -39 -123c0 -90 14 -123 38 -123z" />
    <glyph glyph-name="one.superior" horiz-adv-x="239" 
d="M192 417h-94v307h-2l-70 -33l-18 69l100 47h84v-390z" />
    <glyph glyph-name="two.superior" horiz-adv-x="274" 
d="M8 417v53l46 57c52 63 92 108 92 153c0 38 -21 53 -50 53c-24 0 -48 -11 -64 -23l-19 69c20 18 60 33 108 33c96 0 126 -60 126 -113c0 -73 -56 -128 -105 -180l-17 -19v-3h126v-80h-243z" />
    <glyph glyph-name="three.superior" horiz-adv-x="260" 
d="M35 723l-14 66c22 12 57 23 94 23c84 0 117 -49 117 -95c0 -44 -25 -74 -65 -91v-2c42 -8 76 -45 76 -91c0 -70 -58 -121 -152 -121c-37 0 -66 8 -85 19l14 69c17 -9 40 -17 67 -17c33 0 58 22 58 53c0 37 -32 57 -74 57h-12v62h8c32 0 73 12 73 45c0 26 -19 41 -46 41
c-23 0 -40 -7 -59 -18z" />
    <glyph glyph-name="four.superior" unicode="&#x2074;" horiz-adv-x="301" 
d="M243 417h-85v89h-148v60l141 242h92v-233h42v-69h-42v-89zM158 575v71c0 26 2 49 3 66h-2c-9 -19 -14 -34 -25 -52l-46 -83v-2h70z" />
    <glyph glyph-name="five.superior" unicode="&#x2075;" horiz-adv-x="275" 
d="M241 807v-79h-117l-6 -58h14c23 0 59 -8 83 -29s37 -51 37 -91c0 -74 -54 -138 -150 -138c-35 0 -69 8 -86 17l14 72c16 -7 40 -14 65 -14c38 0 64 19 64 56c0 46 -38 63 -91 63c-13 0 -23 -1 -34 -2l22 203h185z" />
    <glyph glyph-name="six.superior" unicode="&#x2076;" horiz-adv-x="295" 
d="M242 812v-74c-11 0 -22 -1 -35 -3c-57 -8 -83 -44 -94 -88h2c16 17 37 28 64 28c57 0 99 -47 99 -123c0 -70 -43 -140 -125 -140c-85 0 -134 67 -134 164c0 84 29 143 68 180c31 30 73 48 113 53c20 2 33 3 42 3zM151 480c26 0 34 35 34 73c0 27 -10 58 -37 58
c-13 0 -26 -9 -32 -24c-2 -5 -4 -16 -4 -34c0 -39 13 -73 39 -73z" />
    <glyph glyph-name="seven.superior" unicode="&#x2077;" horiz-adv-x="259" 
d="M12 807h238v-60l-132 -330h-93l130 308v2h-143v80z" />
    <glyph glyph-name="eight.superior" unicode="&#x2078;" 
d="M154 812c67 0 114 -40 114 -98c0 -27 -11 -61 -51 -85v-1c35 -17 62 -52 62 -99c0 -75 -58 -117 -132 -117c-78 0 -127 45 -127 109c0 46 25 79 59 99v1c-34 21 -49 54 -49 85c0 66 55 106 124 106zM151 474c25 0 38 23 38 51c0 33 -24 56 -46 64
c-18 -10 -34 -32 -34 -60c0 -31 16 -55 42 -55zM152 752c-25 0 -35 -23 -35 -44c0 -24 16 -42 40 -52c16 6 27 29 27 49c0 22 -9 47 -32 47z" />
    <glyph glyph-name="nine.superior" unicode="&#x2079;" horiz-adv-x="291" 
d="M49 412v75c15 0 24 0 39 2c18 3 37 10 52 21c18 14 32 39 39 67h-2c-13 -13 -32 -22 -58 -22c-55 0 -103 45 -103 118c0 69 48 139 130 139c83 0 126 -69 126 -164c0 -88 -30 -149 -68 -187c-29 -27 -69 -44 -116 -48c-14 -2 -27 -1 -39 -1zM143 744
c-21 0 -35 -26 -35 -65c0 -31 11 -62 36 -62c15 0 27 9 30 17s4 16 4 41c0 39 -12 69 -35 69z" />
    <glyph glyph-name="period.superior" unicode="&#xf6e8;" horiz-adv-x="152" 
d="M76 412c-30 0 -53 23 -53 59c0 35 25 59 54 59s53 -22 53 -59c0 -36 -22 -59 -54 -59z" />
    <glyph glyph-name="comma.superior" unicode="&#xf6e2;" horiz-adv-x="152" 
d="M59 349l-60 -6c19 56 35 118 43 170l93 6c-20 -58 -45 -120 -76 -170z" />
    <glyph glyph-name="dollar.superior" unicode="&#xf6e4;" horiz-adv-x="267" 
d="M156 365h-59v61c-29 2 -56 8 -73 16l15 74c20 -11 43 -18 71 -18s43 12 43 32c0 19 -9 31 -49 53c-54 30 -78 58 -78 107c0 45 28 84 80 101v61h59v-54c29 -2 50 -8 66 -16l-15 -71c-13 7 -36 16 -59 16c-32 0 -42 -14 -42 -30c0 -17 6 -26 51 -50c57 -30 76 -66 76 -110
c0 -53 -33 -93 -86 -106v-66z" />
    <glyph glyph-name="cent.superior" unicode="&#xf6e0;" horiz-adv-x="267" 
d="M188 412h-59v61c-32 6 -57 21 -76 45c-18 23 -29 56 -29 93c0 71 42 126 106 141v61h59v-56c18 -2 34 -5 45 -11l-11 -70c-16 8 -30 9 -48 9c-34 0 -57 -27 -57 -73c0 -45 27 -72 61 -72c21 0 35 3 51 9l7 -70c-12 -5 -27 -8 -49 -9v-58z" />
    <glyph glyph-name="hyphen.superior" unicode="&#xf6e6;" horiz-adv-x="160" 
d="M18 639h124v-65h-124v65z" />
    <glyph glyph-name="parenleft.superior" unicode="&#x207d;" horiz-adv-x="163" 
d="M99 847h66c-35 -55 -63 -132 -63 -245c0 -108 28 -185 63 -242h-66c-34 46 -70 127 -70 242c0 117 36 199 70 245z" />
    <glyph glyph-name="parenright.superior" unicode="&#x207e;" horiz-adv-x="163" 
d="M64 360h-66c35 56 63 135 63 245c0 109 -28 186 -63 242h66c34 -45 70 -125 70 -243c0 -114 -36 -197 -70 -244z" />
    <glyph glyph-name="zero.inferior" unicode="&#x2080;" horiz-adv-x="291" 
d="M146 -152c-98 0 -130 101 -130 198c0 108 39 202 132 202c103 0 127 -108 127 -198c0 -134 -53 -202 -129 -202zM147 -75c23 0 35 33 35 123c0 84 -10 123 -34 123c-23 0 -39 -34 -39 -123c0 -90 14 -123 38 -123z" />
    <glyph glyph-name="one.inferior" unicode="&#x2081;" horiz-adv-x="239" 
d="M192 -147h-94v307h-2l-70 -33l-18 69l100 47h84v-390z" />
    <glyph glyph-name="two.inferior" unicode="&#x2082;" horiz-adv-x="274" 
d="M8 -147v53l46 57c52 63 92 108 92 153c0 38 -21 53 -50 53c-24 0 -48 -11 -64 -23l-19 69c20 18 60 33 108 33c96 0 126 -60 126 -113c0 -73 -56 -128 -105 -180l-17 -19v-3h126v-80h-243z" />
    <glyph glyph-name="three.inferior" unicode="&#x2083;" horiz-adv-x="260" 
d="M35 159l-14 66c22 12 57 23 94 23c84 0 117 -49 117 -95c0 -44 -25 -74 -65 -91v-2c42 -8 76 -45 76 -91c0 -70 -58 -121 -152 -121c-37 0 -66 8 -85 19l14 69c17 -9 40 -17 67 -17c33 0 58 22 58 53c0 37 -32 57 -74 57h-12v62h8c32 0 73 12 73 45c0 26 -19 41 -46 41
c-23 0 -40 -7 -59 -18z" />
    <glyph glyph-name="four.inferior" unicode="&#x2084;" horiz-adv-x="301" 
d="M243 -147h-85v89h-148v60l141 242h92v-233h42v-69h-42v-89zM158 11v71c0 26 2 49 3 66h-2c-9 -19 -14 -34 -25 -52l-46 -83v-2h70z" />
    <glyph glyph-name="five.inferior" unicode="&#x2085;" horiz-adv-x="275" 
d="M241 243v-79h-117l-6 -58h14c23 0 59 -8 83 -29s37 -51 37 -91c0 -74 -54 -138 -150 -138c-35 0 -69 8 -86 17l14 72c16 -7 40 -14 65 -14c38 0 64 19 64 56c0 46 -38 63 -91 63c-13 0 -23 -1 -34 -2l22 203h185z" />
    <glyph glyph-name="six.inferior" unicode="&#x2086;" horiz-adv-x="295" 
d="M242 248v-74c-11 0 -22 -1 -35 -3c-57 -8 -83 -44 -94 -88h2c16 17 37 28 64 28c57 0 99 -47 99 -123c0 -70 -43 -140 -125 -140c-85 0 -134 67 -134 164c0 84 29 143 68 180c31 30 73 48 113 53c20 2 33 3 42 3zM151 -84c26 0 34 35 34 73c0 27 -10 58 -37 58
c-13 0 -26 -9 -32 -24c-2 -5 -4 -16 -4 -34c0 -39 13 -73 39 -73z" />
    <glyph glyph-name="seven.inferior" unicode="&#x2087;" horiz-adv-x="259" 
d="M12 243h238v-60l-132 -330h-93l130 308v2h-143v80z" />
    <glyph glyph-name="eight.inferior" unicode="&#x2088;" 
d="M154 248c67 0 114 -40 114 -98c0 -27 -11 -61 -51 -85v-1c35 -17 62 -52 62 -99c0 -75 -58 -117 -132 -117c-78 0 -127 45 -127 109c0 46 25 79 59 99v1c-34 21 -49 54 -49 85c0 66 55 106 124 106zM151 -90c25 0 38 23 38 51c0 33 -24 56 -46 64
c-18 -10 -34 -32 -34 -60c0 -31 16 -55 42 -55zM152 188c-25 0 -35 -23 -35 -44c0 -24 16 -42 40 -52c16 6 27 29 27 49c0 22 -9 47 -32 47z" />
    <glyph glyph-name="nine.inferior" unicode="&#x2089;" horiz-adv-x="291" 
d="M49 -152v75c15 0 24 0 39 2c18 3 37 10 52 21c18 14 32 39 39 67h-2c-13 -13 -32 -22 -58 -22c-55 0 -103 45 -103 118c0 69 48 139 130 139c83 0 126 -69 126 -164c0 -88 -30 -149 -68 -187c-29 -27 -69 -44 -116 -48c-14 -2 -27 -1 -39 -1zM143 180
c-21 0 -35 -26 -35 -65c0 -31 11 -62 36 -62c15 0 27 9 30 17s4 16 4 41c0 39 -12 69 -35 69z" />
    <glyph glyph-name="period.inferior" unicode="&#xf6e7;" horiz-adv-x="152" 
d="M76 -152c-30 0 -53 23 -53 59c0 35 25 59 54 59s53 -22 53 -59c0 -36 -22 -59 -54 -59z" />
    <glyph glyph-name="comma.inferior" unicode="&#xf6e1;" horiz-adv-x="152" 
d="M59 -215l-60 -6c19 56 35 118 43 170l93 6c-20 -58 -45 -120 -76 -170z" />
    <glyph glyph-name="dollar.inferior" unicode="&#xf6e3;" horiz-adv-x="267" 
d="M156 -199h-59v61c-29 2 -56 8 -73 16l15 74c20 -11 43 -18 71 -18s43 12 43 32c0 19 -9 31 -49 53c-54 30 -78 58 -78 107c0 45 28 84 80 101v61h59v-54c29 -2 50 -8 66 -16l-15 -71c-13 7 -36 16 -59 16c-32 0 -42 -14 -42 -30c0 -17 6 -26 51 -50
c57 -30 76 -66 76 -110c0 -53 -33 -93 -86 -106v-66z" />
    <glyph glyph-name="cent.inferior" unicode="&#xf6df;" horiz-adv-x="267" 
d="M188 -152h-59v61c-32 6 -57 21 -76 45c-18 23 -29 56 -29 93c0 71 42 126 106 141v61h59v-56c18 -2 34 -5 45 -11l-11 -70c-16 8 -30 9 -48 9c-34 0 -57 -27 -57 -73c0 -45 27 -72 61 -72c21 0 35 3 51 9l7 -70c-12 -5 -27 -8 -49 -9v-58z" />
    <glyph glyph-name="hyphen.inferior" unicode="&#xf6e5;" horiz-adv-x="160" 
d="M18 75h124v-65h-124v65z" />
    <glyph glyph-name="parenleft.inferior" unicode="&#x208d;" horiz-adv-x="163" 
d="M99 283h66c-35 -55 -63 -132 -63 -245c0 -108 28 -185 63 -242h-66c-34 46 -70 127 -70 242c0 117 36 199 70 245z" />
    <glyph glyph-name="parenright.inferior" unicode="&#x208e;" horiz-adv-x="163" 
d="M64 -204h-66c35 56 63 135 63 245c0 109 -28 186 -63 242h66c34 -45 70 -125 70 -243c0 -114 -36 -197 -70 -244z" />
    <glyph glyph-name="zero.numerator" unicode="&#xf661;" horiz-adv-x="291" 
d="M146 258c-98 0 -130 101 -130 198c0 108 39 202 132 202c103 0 127 -108 127 -198c0 -134 -53 -202 -129 -202zM147 335c23 0 35 33 35 123c0 84 -10 123 -34 123c-23 0 -39 -34 -39 -123c0 -90 14 -123 38 -123z" />
    <glyph glyph-name="one.numerator" unicode="&#xf662;" horiz-adv-x="239" 
d="M192 263h-94v307h-2l-70 -33l-18 69l100 47h84v-390z" />
    <glyph glyph-name="two.numerator" unicode="&#xf663;" horiz-adv-x="274" 
d="M8 263v53l46 57c52 63 92 108 92 153c0 38 -21 53 -50 53c-24 0 -48 -11 -64 -23l-19 69c20 18 60 33 108 33c96 0 126 -60 126 -113c0 -73 -56 -128 -105 -180l-17 -19v-3h126v-80h-243z" />
    <glyph glyph-name="three.numerator" unicode="&#xf664;" horiz-adv-x="260" 
d="M35 569l-14 66c22 12 57 23 94 23c84 0 117 -49 117 -95c0 -44 -25 -74 -65 -91v-2c42 -8 76 -45 76 -91c0 -70 -58 -121 -152 -121c-37 0 -66 8 -85 19l14 69c17 -9 40 -17 67 -17c33 0 58 22 58 53c0 37 -32 57 -74 57h-12v62h8c32 0 73 12 73 45c0 26 -19 41 -46 41
c-23 0 -40 -7 -59 -18z" />
    <glyph glyph-name="four.numerator" unicode="&#xf665;" horiz-adv-x="301" 
d="M243 263h-85v89h-148v60l141 242h92v-233h42v-69h-42v-89zM158 421v71c0 26 2 49 3 66h-2c-9 -19 -14 -34 -25 -52l-46 -83v-2h70z" />
    <glyph glyph-name="five.numerator" unicode="&#xf666;" horiz-adv-x="275" 
d="M241 653v-79h-117l-6 -58h14c23 0 59 -8 83 -29s37 -51 37 -91c0 -74 -54 -138 -150 -138c-35 0 -69 8 -86 17l14 72c16 -7 40 -14 65 -14c38 0 64 19 64 56c0 46 -38 63 -91 63c-13 0 -23 -1 -34 -2l22 203h185z" />
    <glyph glyph-name="six.numerator" unicode="&#xf667;" horiz-adv-x="295" 
d="M242 658v-74c-11 0 -22 -1 -35 -3c-57 -8 -83 -44 -94 -88h2c16 17 37 28 64 28c57 0 99 -47 99 -123c0 -70 -43 -140 -125 -140c-85 0 -134 67 -134 164c0 84 29 143 68 180c31 30 73 48 113 53c20 2 33 3 42 3zM151 326c26 0 34 35 34 73c0 27 -10 58 -37 58
c-13 0 -26 -9 -32 -24c-2 -5 -4 -16 -4 -34c0 -39 13 -73 39 -73z" />
    <glyph glyph-name="seven.numerator" unicode="&#xf668;" horiz-adv-x="259" 
d="M12 653h238v-60l-132 -330h-93l130 308v2h-143v80z" />
    <glyph glyph-name="eight.numerator" unicode="&#xf669;" 
d="M154 658c67 0 114 -40 114 -98c0 -27 -11 -61 -51 -85v-1c35 -17 62 -52 62 -99c0 -75 -58 -117 -132 -117c-78 0 -127 45 -127 109c0 46 25 79 59 99v1c-34 21 -49 54 -49 85c0 66 55 106 124 106zM151 320c25 0 38 23 38 51c0 33 -24 56 -46 64
c-18 -10 -34 -32 -34 -60c0 -31 16 -55 42 -55zM152 598c-25 0 -35 -23 -35 -44c0 -24 16 -42 40 -52c16 6 27 29 27 49c0 22 -9 47 -32 47z" />
    <glyph glyph-name="nine.numerator" unicode="&#xf66a;" horiz-adv-x="291" 
d="M49 258v75c15 0 24 0 39 2c18 3 37 10 52 21c18 14 32 39 39 67h-2c-13 -13 -32 -22 -58 -22c-55 0 -103 45 -103 118c0 69 48 139 130 139c83 0 126 -69 126 -164c0 -88 -30 -149 -68 -187c-29 -27 -69 -44 -116 -48c-14 -2 -27 -1 -39 -1zM143 590
c-21 0 -35 -26 -35 -65c0 -31 11 -62 36 -62c15 0 27 9 30 17s4 16 4 41c0 39 -12 69 -35 69z" />
    <glyph glyph-name="period.numerator" unicode="&#xf66c;" horiz-adv-x="152" 
d="M76 258c-30 0 -53 23 -53 59c0 35 25 59 54 59s53 -22 53 -59c0 -36 -22 -59 -54 -59z" />
    <glyph glyph-name="comma.numerator" unicode="&#xf66b;" horiz-adv-x="152" 
d="M59 195l-60 -6c19 56 35 118 43 170l93 6c-20 -58 -45 -120 -76 -170z" />
    <glyph glyph-name="dollar.numerator" unicode="&#xf62f;" horiz-adv-x="267" 
d="M156 211h-59v61c-29 2 -56 8 -73 16l15 74c20 -11 43 -18 71 -18s43 12 43 32c0 19 -9 31 -49 53c-54 30 -78 58 -78 107c0 45 28 84 80 101v61h59v-54c29 -2 50 -8 66 -16l-15 -71c-13 7 -36 16 -59 16c-32 0 -42 -14 -42 -30c0 -17 6 -26 51 -50c57 -30 76 -66 76 -110
c0 -53 -33 -93 -86 -106v-66z" />
    <glyph glyph-name="cent.numerator" unicode="&#xf62e;" horiz-adv-x="267" 
d="M188 258h-59v61c-32 6 -57 21 -76 45c-18 23 -29 56 -29 93c0 71 42 126 106 141v61h59v-56c18 -2 34 -5 45 -11l-11 -70c-16 8 -30 9 -48 9c-34 0 -57 -27 -57 -73c0 -45 27 -72 61 -72c21 0 35 3 51 9l7 -70c-12 -5 -27 -8 -49 -9v-58z" />
    <glyph glyph-name="hyphen.numerator" unicode="&#xf630;" horiz-adv-x="160" 
d="M18 485h124v-65h-124v65z" />
    <glyph glyph-name="parenleft.numerator" unicode="&#xf631;" horiz-adv-x="163" 
d="M99 693h66c-35 -55 -63 -132 -63 -245c0 -108 28 -185 63 -242h-66c-34 46 -70 127 -70 242c0 117 36 199 70 245z" />
    <glyph glyph-name="parenright.numerator" unicode="&#xf632;" horiz-adv-x="163" 
d="M64 206h-66c35 56 63 135 63 245c0 109 -28 186 -63 242h66c34 -45 70 -125 70 -243c0 -114 -36 -197 -70 -244z" />
    <glyph glyph-name="zero.denominator" unicode="&#xf655;" horiz-adv-x="291" 
d="M146 -5c-98 0 -130 101 -130 198c0 108 39 202 132 202c103 0 127 -108 127 -198c0 -134 -53 -202 -129 -202zM147 72c23 0 35 33 35 123c0 84 -10 123 -34 123c-23 0 -39 -34 -39 -123c0 -90 14 -123 38 -123z" />
    <glyph glyph-name="one.denominator" unicode="&#xf656;" horiz-adv-x="239" 
d="M192 0h-94v307h-2l-70 -33l-18 69l100 47h84v-390z" />
    <glyph glyph-name="two.denominator" unicode="&#xf657;" horiz-adv-x="274" 
d="M8 0v53l46 57c52 63 92 108 92 153c0 38 -21 53 -50 53c-24 0 -48 -11 -64 -23l-19 69c20 18 60 33 108 33c96 0 126 -60 126 -113c0 -73 -56 -128 -105 -180l-17 -19v-3h126v-80h-243z" />
    <glyph glyph-name="three.denominator" unicode="&#xf658;" horiz-adv-x="260" 
d="M35 306l-14 66c22 12 57 23 94 23c84 0 117 -49 117 -95c0 -44 -25 -74 -65 -91v-2c42 -8 76 -45 76 -91c0 -70 -58 -121 -152 -121c-37 0 -66 8 -85 19l14 69c17 -9 40 -17 67 -17c33 0 58 22 58 53c0 37 -32 57 -74 57h-12v62h8c32 0 73 12 73 45c0 26 -19 41 -46 41
c-23 0 -40 -7 -59 -18z" />
    <glyph glyph-name="four.denominator" unicode="&#xf659;" horiz-adv-x="301" 
d="M243 0h-85v89h-148v60l141 242h92v-233h42v-69h-42v-89zM158 158v71c0 26 2 49 3 66h-2c-9 -19 -14 -34 -25 -52l-46 -83v-2h70z" />
    <glyph glyph-name="five.denominator" unicode="&#xf65a;" horiz-adv-x="275" 
d="M241 390v-79h-117l-6 -58h14c23 0 59 -8 83 -29s37 -51 37 -91c0 -74 -54 -138 -150 -138c-35 0 -69 8 -86 17l14 72c16 -7 40 -14 65 -14c38 0 64 19 64 56c0 46 -38 63 -91 63c-13 0 -23 -1 -34 -2l22 203h185z" />
    <glyph glyph-name="six.denominator" unicode="&#xf65b;" horiz-adv-x="295" 
d="M242 395v-74c-11 0 -22 -1 -35 -3c-57 -8 -83 -44 -94 -88h2c16 17 37 28 64 28c57 0 99 -47 99 -123c0 -70 -43 -140 -125 -140c-85 0 -134 67 -134 164c0 84 29 143 68 180c31 30 73 48 113 53c20 2 33 3 42 3zM151 63c26 0 34 35 34 73c0 27 -10 58 -37 58
c-13 0 -26 -9 -32 -24c-2 -5 -4 -16 -4 -34c0 -39 13 -73 39 -73z" />
    <glyph glyph-name="seven.denominator" unicode="&#xf65c;" horiz-adv-x="259" 
d="M12 390h238v-60l-132 -330h-93l130 308v2h-143v80z" />
    <glyph glyph-name="eight.denominator" unicode="&#xf65d;" 
d="M154 395c67 0 114 -40 114 -98c0 -27 -11 -61 -51 -85v-1c35 -17 62 -52 62 -99c0 -75 -58 -117 -132 -117c-78 0 -127 45 -127 109c0 46 25 79 59 99v1c-34 21 -49 54 -49 85c0 66 55 106 124 106zM151 57c25 0 38 23 38 51c0 33 -24 56 -46 64c-18 -10 -34 -32 -34 -60
c0 -31 16 -55 42 -55zM152 335c-25 0 -35 -23 -35 -44c0 -24 16 -42 40 -52c16 6 27 29 27 49c0 22 -9 47 -32 47z" />
    <glyph glyph-name="nine.denominator" unicode="&#xf65e;" horiz-adv-x="291" 
d="M49 -5v75c15 0 24 0 39 2c18 3 37 10 52 21c18 14 32 39 39 67h-2c-13 -13 -32 -22 -58 -22c-55 0 -103 45 -103 118c0 69 48 139 130 139c83 0 126 -69 126 -164c0 -88 -30 -149 -68 -187c-29 -27 -69 -44 -116 -48c-14 -2 -27 -1 -39 -1zM143 327
c-21 0 -35 -26 -35 -65c0 -31 11 -62 36 -62c15 0 27 9 30 17s4 16 4 41c0 39 -12 69 -35 69z" />
    <glyph glyph-name="period.denominator" unicode="&#xf660;" horiz-adv-x="152" 
d="M76 -5c-30 0 -53 23 -53 59c0 35 25 59 54 59s53 -22 53 -59c0 -36 -22 -59 -54 -59z" />
    <glyph glyph-name="comma.denominator" unicode="&#xf65f;" horiz-adv-x="152" 
d="M59 -68l-60 -6c19 56 35 118 43 170l93 6c-20 -58 -45 -120 -76 -170z" />
    <glyph glyph-name="dollar.denominator" unicode="&#xf62a;" horiz-adv-x="267" 
d="M156 -52h-59v61c-29 2 -56 8 -73 16l15 74c20 -11 43 -18 71 -18s43 12 43 32c0 19 -9 31 -49 53c-54 30 -78 58 -78 107c0 45 28 84 80 101v61h59v-54c29 -2 50 -8 66 -16l-15 -71c-13 7 -36 16 -59 16c-32 0 -42 -14 -42 -30c0 -17 6 -26 51 -50c57 -30 76 -66 76 -110
c0 -53 -33 -93 -86 -106v-66z" />
    <glyph glyph-name="cent.denominator" unicode="&#xf629;" horiz-adv-x="267" 
d="M188 -5h-59v61c-32 6 -57 21 -76 45c-18 23 -29 56 -29 93c0 71 42 126 106 141v61h59v-56c18 -2 34 -5 45 -11l-11 -70c-16 8 -30 9 -48 9c-34 0 -57 -27 -57 -73c0 -45 27 -72 61 -72c21 0 35 3 51 9l7 -70c-12 -5 -27 -8 -49 -9v-58z" />
    <glyph glyph-name="hyphen.denominator" unicode="&#xf62b;" horiz-adv-x="160" 
d="M18 222h124v-65h-124v65z" />
    <glyph glyph-name="parenleft.denominator" unicode="&#xf62c;" horiz-adv-x="163" 
d="M99 430h66c-35 -55 -63 -132 -63 -245c0 -108 28 -185 63 -242h-66c-34 46 -70 127 -70 242c0 117 36 199 70 245z" />
    <glyph glyph-name="parenright.denominator" unicode="&#xf62d;" horiz-adv-x="163" 
d="M64 -57h-66c35 56 63 135 63 245c0 109 -28 186 -63 242h66c34 -45 70 -125 70 -243c0 -114 -36 -197 -70 -244z" />
    <glyph glyph-name="at.cap" unicode="&#xf633;" horiz-adv-x="621" 
d="M348 322l23 130c-7 4 -15 5 -26 5c-47 0 -100 -76 -100 -177c0 -35 11 -56 35 -56c31 0 60 50 68 98zM426 74l15 -42c-52 -30 -102 -40 -159 -40c-127 0 -251 101 -251 299c0 200 129 391 324 391c160 0 236 -123 236 -258c0 -173 -61 -269 -158 -269
c-50 0 -73 31 -73 85h-3c-24 -54 -66 -85 -110 -85c-53 0 -86 46 -86 120c0 125 77 243 207 243c33 0 71 -9 93 -21l-34 -184c-13 -72 -2 -103 28 -103c40 0 82 66 82 200c0 128 -58 227 -193 227c-132 0 -258 -138 -258 -346c0 -170 90 -253 210 -253c47 0 90 13 130 36z
" />
    <glyph glyph-name="emdash.cap" unicode="&#xf6bc;" horiz-adv-x="1000" 
d="M30 380h940v-90h-940v90z" />
    <glyph glyph-name="endash.cap" unicode="&#xf6bb;" horiz-adv-x="500" 
d="M30 380h440v-90h-440v90z" />
    <glyph glyph-name="exclamdown.cap" unicode="&#xf6b4;" horiz-adv-x="236" 
d="M190 -1h-143l15 454h112zM118 685c43 0 75 -33 75 -82c0 -46 -29 -80 -74 -80c-43 0 -76 34 -76 80c0 49 35 82 75 82z" />
    <glyph glyph-name="guillemotleft.cap" unicode="&#xf6b6;" horiz-adv-x="383" 
d="M216 512l-108 -185l108 -185h-95l-105 185l105 185h95zM376 512l-108 -185l108 -185h-94l-106 185l105 185h95z" />
    <glyph glyph-name="guillemotright.cap" unicode="&#xf6b7;" horiz-adv-x="383" 
d="M114 327l-108 185h94l106 -185l-104 -185h-96zM275 327l-108 185h94l106 -185l-105 -185h-95z" />
    <glyph glyph-name="guilsinglleft.cap" unicode="&#xf6b8;" horiz-adv-x="221" 
d="M216 512l-108 -185l108 -185h-95l-105 185l105 185h95z" />
    <glyph glyph-name="guilsinglright.cap" unicode="&#xf6b9;" horiz-adv-x="221" 
d="M113 327l-108 185h94l106 -185l-105 -185h-95z" />
    <glyph glyph-name="hyphen.cap" unicode="&#xf6ba;" horiz-adv-x="259" 
d="M30 398h199v-94h-199v94z" />
    <glyph glyph-name="questiondown.cap" unicode="&#xf6b5;" horiz-adv-x="334" 
d="M192 682c43 0 74 -33 74 -82c0 -46 -28 -80 -73 -80c-44 0 -76 34 -76 80c0 49 34 82 75 82zM135 459h111l2 -19c7 -59 -16 -108 -53 -166c-28 -43 -43 -69 -43 -107c0 -37 25 -61 67 -61c21 0 45 4 64 17l21 -101c-21 -14 -68 -30 -116 -30c-132 0 -169 87 -169 154
c0 69 38 122 73 172c28 42 44 73 43 119v22z" />
    <glyph glyph-name="braceleft.cap" unicode="&#xf6b2;" horiz-adv-x="258" 
d="M10 289v79c54 0 66 28 66 56c0 26 -3 51 -6 77s-6 52 -6 80c0 95 58 145 152 145h19v-81h-15c-38 0 -54 -31 -54 -68c0 -24 2 -45 4 -66s4 -40 4 -59c0 -65 -26 -106 -76 -122v-2c50 -16 76 -55 76 -123c0 -21 -2 -42 -4 -63s-4 -42 -4 -63c0 -37 10 -70 56 -70h13v-81
h-21c-82 0 -150 37 -150 144c0 29 3 55 6 82c3 26 6 52 6 78c0 25 -12 57 -66 57z" />
    <glyph glyph-name="braceright.cap" unicode="&#xf6b3;" horiz-adv-x="258" 
d="M248 368v-79c-54 0 -66 -32 -66 -57c0 -26 3 -52 6 -78c3 -27 6 -53 6 -82c0 -107 -68 -144 -150 -144h-21v81h13c46 4 56 33 56 70c0 21 -2 42 -4 63s-4 42 -4 63c0 68 26 107 76 123v2c-50 16 -76 57 -76 122c0 19 2 38 4 59s4 42 4 66c0 37 -16 64 -54 68h-15v81h18
c95 0 153 -50 153 -145c0 -28 -3 -54 -6 -80s-6 -51 -6 -77c0 -28 12 -56 66 -56z" />
    <glyph glyph-name="bracketleft.cap" unicode="&#xf6b0;" horiz-adv-x="258" 
d="M235 -72h-185v794h185v-84h-86v-625h86v-85z" />
    <glyph glyph-name="bracketright.cap" unicode="&#xf6b1;" horiz-adv-x="258" 
d="M23 726h185v-798h-185v85h86v629h-86v84z" />
    <glyph glyph-name="parenleft.cap" unicode="&#xf6ae;" horiz-adv-x="258" 
d="M147 732h94c-58 -90 -106 -220 -106 -407c0 -181 48 -311 106 -405h-94c-56 76 -115 213 -115 406c4 194 59 331 115 406z" />
    <glyph glyph-name="parenright.cap" unicode="&#xf6af;" horiz-adv-x="258" 
d="M111 -80h-94c58 93 106 226 106 409c0 181 -48 311 -106 403h94c56 -73 115 -206 115 -404c-4 -198 -59 -330 -115 -408z" />
    <glyph glyph-name="periodcentered.cap" unicode="&#xf6bd;" horiz-adv-x="233" 
d="M117 258c-42 0 -76 34 -76 86c0 51 36 87 76 87c42 0 76 -32 76 -87c0 -52 -31 -86 -76 -86z" />
    <glyph glyph-name="lessequal" unicode="&#x2264;" horiz-adv-x="596" 
d="M535 112l-474 181v82l474 181v-90l-361 -131v-2l361 -132v-89zM535 0h-474v77h474v-77z" />
    <glyph glyph-name="greaterequal" unicode="&#x2265;" horiz-adv-x="596" 
d="M535 293l-474 -181v89l361 132v2l-361 131v90l474 -181v-82zM535 0h-474v77h474v-77z" />
    <glyph glyph-name="approxequal" unicode="&#x2248;" horiz-adv-x="596" 
d="M535 422l39 -63c-34 -36 -91 -74 -156 -74c-61 0 -95 22 -127 36c-30 13 -63 34 -115 34c-46 0 -91 -31 -117 -55l-38 63c34 36 91 74 155 74c61 0 96 -22 129 -36c30 -13 61 -34 113 -34c47 0 92 31 117 55zM538 214l39 -63c-34 -36 -91 -74 -156 -74
c-61 0 -96 22 -128 36c-30 12 -63 34 -115 34c-46 0 -91 -31 -117 -55l-38 63c34 36 91 74 155 74c61 0 96 -22 129 -36c30 -13 62 -34 114 -34c47 0 92 31 117 55z" />
    <glyph glyph-name="notequal" unicode="&#x2260;" horiz-adv-x="596" 
d="M556 123h-309l-67 -108h-86l68 108h-122v82h175l79 126h-254v82h307l67 108h87l-69 -108h124v-82h-177l-80 -126h257v-82z" />
    <glyph glyph-name="infinity" unicode="&#x221e;" horiz-adv-x="745" 
d="M551 103c-74 0 -131 57 -180 104c-50 -48 -100 -104 -186 -104c-92 0 -155 69 -155 161c0 86 66 161 163 161c74 0 131 -57 180 -104c50 48 100 104 186 104c92 0 155 -69 155 -161c0 -86 -66 -161 -163 -161zM549 184c45 0 78 37 78 80c0 46 -31 80 -75 80
c-50 0 -91 -44 -126 -79c34 -33 72 -81 123 -81zM192 184c50 0 91 44 126 79c-34 32 -72 81 -123 81c-45 0 -79 -37 -79 -80c0 -46 32 -80 76 -80z" />
    <glyph glyph-name="lozenge" unicode="&#x25ca;" horiz-adv-x="499" 
d="M462 325l-168 -355h-89l-168 355l168 355h89zM359 322l-98 224c-3 8 -9 21 -12 33h-2c-4 -12 -10 -25 -13 -33l-94 -218l98 -224c3 -8 9 -21 12 -33h2c4 12 10 25 13 33z" />
    <glyph glyph-name="integral" unicode="&#x222b;" horiz-adv-x="345" 
d="M321 797l-12 -82c-8 2 -20 4 -32 4c-15 0 -28 -10 -39 -28c-13 -24 -17 -70 -17 -149c0 -152 10 -279 10 -448c0 -88 -7 -151 -29 -190c-25 -48 -65 -65 -115 -65c-28 0 -48 6 -59 10l16 86c7 -2 18 -5 29 -5c12 0 27 6 36 20c13 21 16 60 16 139c0 172 -9 302 -9 462
c0 109 14 167 52 209c27 31 68 44 103 44c21 0 39 -3 50 -7z" />
    <glyph glyph-name="partialdiff" unicode="&#x2202;" horiz-adv-x="463" 
d="M78 600l-37 88c33 21 83 46 150 46c122 0 239 -118 239 -344c0 -273 -115 -398 -236 -398c-111 0 -175 90 -175 212c0 161 84 253 185 253c47 0 77 -20 96 -46h1v12c0 133 -62 202 -133 202c-44 0 -74 -14 -90 -25zM205 99c45 0 84 102 87 208c-10 27 -31 47 -59 47
c-49 0 -84 -74 -84 -157c0 -68 25 -98 56 -98z" />
    <glyph glyph-name="product" unicode="&#x220f;" horiz-adv-x="496" 
d="M486 536h-64v-626h-120v626h-117v-626h-119v626h-64v114h484v-114z" />
    <glyph glyph-name="radical" unicode="&#x221a;" horiz-adv-x="541" 
d="M526 836l-188 -912h-90l-121 408l-76 -25l-18 62l158 56l77 -280c11 -38 19 -79 22 -98h1c2 19 7 61 16 102l132 687h87z" />
    <glyph glyph-name="summation" unicode="&#x2211;" horiz-adv-x="411" 
d="M403 -90h-389v80l157 293l-155 285v82h372v-113h-214v-4l129 -243l-142 -263v-3h242v-114z" />
    <glyph glyph-name="Delta" unicode="&#x2206;" horiz-adv-x="468" 
d="M11 0v65l146 609h157l135 -605v-69h-438zM141 116h177l-50 234c-11 57 -28 155 -34 200h-3c-7 -45 -23 -134 -36 -193z" />
    <glyph glyph-name="Omega" unicode="&#x2126;" horiz-adv-x="532" 
d="M240 0h-213v107h92v3c-41 64 -80 158 -80 269c0 167 88 303 234 303c160 0 219 -156 219 -294c0 -113 -39 -216 -80 -278v-3h93v-107h-213v81c29 40 65 139 65 277c-1 109 -28 210 -90 210c-59 0 -92 -94 -92 -213c0 -126 38 -235 65 -274v-81z" />
    <glyph glyph-name="pi" unicode="&#x3c0;" horiz-adv-x="471" 
d="M450 384h-46v-269c0 -52 4 -88 11 -115h-123c-12 22 -18 66 -18 117v267h-69c-2 -94 -15 -267 -50 -384h-123c31 120 47 285 46 384c-26 0 -46 -2 -59 -4l-16 81c20 15 76 28 156 28h301z" />
    <glyph glyph-name="aringacute" unicode="&#x1fb;" horiz-adv-x="422" 
d="M249 826h115l-118 -100h-83zM214 521c-69 0 -103 40 -103 89c0 52 33 94 104 94c67 0 101 -39 101 -91c0 -51 -37 -92 -102 -92zM213 565c32 0 41 27 41 48s-8 47 -42 47c-30 0 -39 -28 -39 -49c0 -17 9 -46 40 -46zM383 0h-118l-7 48h-2c-27 -38 -65 -56 -108 -56
c-74 0 -129 62 -129 149c0 128 113 181 224 182v11c0 38 -23 66 -69 66c-39 0 -71 -10 -100 -28l-24 88c27 16 84 37 152 37c149 0 173 -104 173 -203v-182c0 -39 2 -79 8 -112zM247 153v85c-44 -1 -104 -15 -104 -83c0 -49 27 -67 47 -67c21 0 45 13 54 42c2 7 3 15 3 23z
" />
    <glyph glyph-name="Abreve" unicode="&#x102;" horiz-adv-x="458" 
d="M286 154h-121l-30 -154h-127l146 674h157l131 -674h-127zM178 256h96l-22 141c-7 41 -16 108 -22 153h-3c-7 -45 -17 -115 -24 -154zM109 825h70c2 -26 20 -44 51 -44c30 0 49 17 50 44h71c0 -70 -41 -117 -120 -117c-82 0 -122 46 -122 117z" />
    <glyph glyph-name="Amacron" unicode="&#x100;" horiz-adv-x="458" 
d="M286 154h-121l-30 -154h-127l146 674h157l131 -674h-127zM178 256h96l-22 141c-7 41 -16 108 -22 153h-3c-7 -45 -17 -115 -24 -154zM112 815h235v-79h-235v79z" />
    <glyph glyph-name="Aogonek" unicode="&#x104;" horiz-adv-x="458" 
d="M311 674l131 -674h-47c-15 -24 -27 -53 -27 -78s18 -43 41 -43c17 0 28 3 38 7l16 -67c-28 -20 -61 -24 -87 -24c-66 0 -98 38 -98 96c0 48 26 91 36 111l-28 152h-121l-30 -154h-127l146 674h157zM178 256h96l-22 141c-7 41 -16 108 -22 153h-3
c-7 -45 -17 -115 -24 -154z" />
    <glyph glyph-name="i.dot" horiz-adv-x="223" 
d="M177 0h-131v489h131v-489zM110 690c38 0 67 -27 67 -71c1 -42 -29 -71 -69 -71c-36 0 -66 29 -65 71c-1 44 31 71 67 71z" />
    <glyph glyph-name="Cacute" unicode="&#x106;" horiz-adv-x="395" 
d="M368 120l13 -110c-19 -9 -56 -16 -102 -16c-172 0 -254 142 -254 333c0 254 141 353 272 353c46 0 78 -9 91 -18l-22 -110c-15 7 -32 13 -61 13c-74 0 -141 -64 -141 -231c0 -161 61 -224 141 -224c22 0 47 5 63 10zM276 823h133l-123 -113h-93z" />
    <glyph glyph-name="Ccaron" unicode="&#x10c;" horiz-adv-x="395" 
d="M368 120l13 -110c-19 -9 -56 -16 -102 -16c-172 0 -254 142 -254 333c0 254 141 353 272 353c46 0 78 -9 91 -18l-22 -110c-15 7 -32 13 -61 13c-74 0 -141 -64 -141 -231c0 -161 61 -224 141 -224c22 0 47 5 63 10zM313 710h-102l-84 110h95l39 -53h2l39 53h92z" />
    <glyph glyph-name="Ccircumflex" unicode="&#x108;" horiz-adv-x="395" 
d="M368 120l13 -110c-19 -9 -56 -16 -102 -16c-172 0 -254 142 -254 333c0 254 141 353 272 353c46 0 78 -9 91 -18l-22 -110c-15 7 -32 13 -61 13c-74 0 -141 -64 -141 -231c0 -161 61 -224 141 -224c22 0 47 5 63 10zM198 820h103l84 -110h-96l-38 51h-2l-39 -51h-93z" />
    <glyph glyph-name="Cdotaccent" unicode="&#x10a;" horiz-adv-x="395" 
d="M368 120l13 -110c-19 -9 -56 -16 -102 -16c-172 0 -254 142 -254 333c0 254 141 353 272 353c46 0 78 -9 91 -18l-22 -110c-15 7 -32 13 -61 13c-74 0 -141 -64 -141 -231c0 -161 61 -224 141 -224c22 0 47 5 63 10zM253 713c-34 0 -62 29 -62 64s29 63 62 63
c35 0 63 -28 63 -63s-28 -64 -63 -64z" />
    <glyph glyph-name="Dcaron" unicode="&#x10e;" horiz-adv-x="491" 
d="M58 2v662c33 8 81 13 133 13c85 0 144 -20 187 -60c58 -52 88 -141 88 -272c0 -136 -35 -233 -94 -285c-45 -44 -112 -65 -206 -65c-41 0 -82 4 -108 7zM189 569v-465c6 -2 16 -2 23 -2c63 0 118 62 118 248c0 138 -36 222 -115 222c-9 0 -18 0 -26 -3zM269 710h-102
l-84 110h95l39 -53h2l39 53h92z" />
    <glyph glyph-name="Ebreve" unicode="&#x114;" horiz-adv-x="394" 
d="M343 405v-109h-154v-182h174v-114h-305v674h293v-114h-162v-155h154zM87 829h70c1 -26 20 -44 50 -44c31 0 50 17 51 44h70c0 -70 -40 -117 -120 -117c-81 0 -121 46 -121 117z" />
    <glyph glyph-name="Ecaron" unicode="&#x11a;" horiz-adv-x="394" 
d="M343 405v-109h-154v-182h174v-114h-305v674h293v-114h-162v-155h154zM257 710h-102l-84 110h95l39 -53h2l39 53h92z" />
    <glyph glyph-name="Edotaccent" unicode="&#x116;" horiz-adv-x="394" 
d="M343 405v-109h-154v-182h174v-114h-305v674h293v-114h-162v-155h154zM203 715c-35 0 -63 29 -63 64s29 64 63 64s62 -29 62 -64s-28 -64 -62 -64z" />
    <glyph glyph-name="Emacron" unicode="&#x112;" horiz-adv-x="394" 
d="M343 405v-109h-154v-182h174v-114h-305v674h293v-114h-162v-155h154zM85 815h235v-79h-235v79z" />
    <glyph glyph-name="Eogonek" unicode="&#x118;" horiz-adv-x="394" 
d="M360 -115l16 -66c-30 -20 -66 -25 -95 -25c-58 0 -90 35 -90 86c0 46 30 88 66 120h-199v674h293v-114h-162v-155h154v-109h-154v-182h174v-114h-16c-39 -31 -64 -62 -64 -90c0 -22 17 -31 37 -31c16 0 30 2 40 6z" />
    <glyph glyph-name="Gbreve" unicode="&#x11e;" horiz-adv-x="472" 
d="M432 378v-360c-29 -12 -91 -24 -140 -24c-77 0 -135 22 -180 67c-58 56 -89 156 -87 272c3 245 143 347 286 347c51 0 89 -10 110 -20l-23 -113c-19 10 -44 15 -77 15c-89 0 -160 -61 -160 -237c0 -162 63 -220 124 -220c12 0 21 1 26 3v163h-60v107h181zM155 825h70
c2 -26 20 -44 51 -44s49 17 51 44h70c0 -70 -40 -117 -120 -117c-82 0 -122 46 -122 117z" />
    <glyph glyph-name="Gcircumflex" unicode="&#x11c;" horiz-adv-x="472" 
d="M432 378v-360c-29 -12 -91 -24 -140 -24c-77 0 -135 22 -180 67c-58 56 -89 156 -87 272c3 245 143 347 286 347c51 0 89 -10 110 -20l-23 -113c-19 10 -44 15 -77 15c-89 0 -160 -61 -160 -237c0 -162 63 -220 124 -220c12 0 21 1 26 3v163h-60v107h181zM217 820h102
l85 -110h-96l-39 51h-2l-39 -51h-92z" />
    <glyph glyph-name="uni0122" unicode="&#x122;" horiz-adv-x="472" 
d="M432 378v-360c-29 -12 -91 -24 -140 -24c-77 0 -135 22 -180 67c-58 56 -89 156 -87 272c3 245 143 347 286 347c51 0 89 -10 110 -20l-23 -113c-19 10 -44 15 -77 15c-89 0 -160 -61 -160 -237c0 -162 63 -220 124 -220c12 0 21 1 26 3v163h-60v107h181zM207 -224
l-21 58c25 7 58 24 58 51c0 25 -19 49 -32 61l95 13c17 -11 37 -36 37 -73c0 -70 -62 -104 -137 -110z" />
    <glyph glyph-name="Gdotaccent" unicode="&#x120;" horiz-adv-x="472" 
d="M432 378v-360c-29 -12 -91 -24 -140 -24c-77 0 -135 22 -180 67c-58 56 -89 156 -87 272c3 245 143 347 286 347c51 0 89 -10 110 -20l-23 -113c-19 10 -44 15 -77 15c-89 0 -160 -61 -160 -237c0 -162 63 -220 124 -220c12 0 21 1 26 3v163h-60v107h181zM273 713
c-34 0 -63 29 -63 64s29 63 63 63s63 -28 63 -63s-29 -64 -63 -64z" />
    <glyph glyph-name="G_tildecomb" unicode="&#xe000;" horiz-adv-x="472" 
d="M432 378v-360c-29 -12 -91 -24 -140 -24c-77 0 -135 22 -180 67c-58 56 -89 156 -87 272c3 245 143 347 286 347c51 0 89 -10 110 -20l-23 -113c-19 10 -44 15 -77 15c-89 0 -160 -61 -160 -237c0 -162 63 -220 124 -220c12 0 21 1 26 3v163h-60v107h181zM219 718h-60
c-2 75 26 115 67 115c22 0 38 -8 52 -17s26 -17 37 -17c15 0 21 9 24 38h58c3 -84 -23 -115 -69 -115c-22 0 -40 8 -53 16c-14 9 -24 15 -35 15s-19 -11 -21 -35z" />
    <glyph glyph-name="Hcircumflex" unicode="&#x124;" horiz-adv-x="515" 
d="M58 674h131v-270h137v270h131v-674h-131v282h-137v-282h-131v674zM206 820h102l84 -110h-95l-39 51h-2l-39 -51h-92z" />
    <glyph glyph-name="Ibreve" unicode="&#x12c;" horiz-adv-x="248" 
d="M58 674h131v-674h-131v674zM2 830h71c1 -26 19 -44 50 -44s49 18 51 44h70c0 -70 -40 -116 -120 -116c-81 0 -122 46 -122 116z" />
    <glyph glyph-name="Idotaccent" unicode="&#x130;" horiz-adv-x="248" 
d="M58 674h131v-674h-131v674zM124 715c-34 0 -62 29 -62 64s29 64 62 64c35 0 63 -29 63 -64s-28 -64 -63 -64z" />
    <glyph glyph-name="Imacron" unicode="&#x12a;" horiz-adv-x="248" 
d="M58 674h131v-674h-131v674zM7 815h236v-79h-236v79z" />
    <glyph glyph-name="Iogonek" unicode="&#x12e;" horiz-adv-x="248" 
d="M189 674v-674h-50c-15 -24 -26 -53 -26 -78c0 -29 18 -44 41 -44c17 0 29 2 38 6l16 -66c-29 -21 -62 -25 -87 -25c-66 0 -98 39 -98 94c0 51 25 94 35 113v674h131z" />
    <glyph glyph-name="Itilde" unicode="&#x128;" horiz-adv-x="248" 
d="M58 674h131v-674h-131v674zM65 718h-59c-3 75 25 115 66 115c22 0 39 -8 52 -17c15 -9 26 -17 37 -17c15 0 21 9 25 38h58c2 -84 -24 -115 -69 -115c-23 0 -40 8 -54 16c-14 9 -24 15 -35 15s-19 -11 -21 -35z" />
    <glyph glyph-name="Jcircumflex" unicode="&#x134;" horiz-adv-x="296" 
d="M115 209v465h132v-459c0 -194 -94 -223 -190 -223c-27 0 -51 4 -66 10l11 110c13 -4 26 -5 43 -5c38 0 70 15 70 102zM128 820h102l84 -110h-96l-38 51h-2l-39 -51h-93z" />
    <glyph glyph-name="uni0136" unicode="&#x136;" horiz-adv-x="459" 
d="M58 0v674h131v-303h2c11 28 22 58 33 87l90 216h144l-151 -293l153 -381h-143l-98 279l-30 -55v-224h-131zM174 -222l-21 58c25 7 58 24 58 51c0 25 -19 49 -32 61l95 13c17 -11 37 -36 37 -73c0 -70 -62 -103 -137 -110z" />
    <glyph glyph-name="Lacute" unicode="&#x139;" horiz-adv-x="380" 
d="M58 0v674h131v-563h173v-111h-304zM156 823h133l-122 -113h-93z" />
    <glyph glyph-name="Lcaron" unicode="&#x13d;" horiz-adv-x="380" 
d="M58 0v674h131v-563h173v-111h-304zM236 492l-20 58c25 7 58 24 58 51c0 25 -19 49 -32 61l95 13c17 -11 37 -36 37 -73c0 -70 -63 -103 -138 -110z" />
    <glyph glyph-name="uni013B" unicode="&#x13b;" horiz-adv-x="380" 
d="M58 0v674h131v-563h173v-111h-304zM137 -224l-20 58c25 7 58 24 58 51c0 25 -19 49 -32 61l95 13c17 -11 37 -36 37 -73c0 -70 -63 -104 -138 -110z" />
    <glyph glyph-name="Ldot" unicode="&#x13f;" horiz-adv-x="380" 
d="M58 0v674h131v-563h173v-111h-304zM307 301c-34 0 -62 29 -62 64s29 63 62 63c35 0 63 -28 63 -63s-28 -64 -63 -64z" />
    <glyph glyph-name="M_uni0302" unicode="&#xe001;" horiz-adv-x="637" 
d="M482 0l-12 236c-3 64 -8 151 -6 223h-3c-12 -72 -30 -155 -43 -207l-58 -241h-93l-56 237c-13 54 -31 138 -41 211h-3c-2 -73 -6 -158 -10 -225l-11 -234h-113l49 674h138l54 -244c19 -85 36 -160 48 -236h2c10 75 25 151 43 236l53 244h138l41 -674h-117zM265 820h103
l84 -110h-96l-39 51h-2l-38 -51h-93z" />
    <glyph glyph-name="Nacute" unicode="&#x143;" horiz-adv-x="516" 
d="M173 0h-115v674h120l104 -264c20 -52 53 -139 72 -197h2c-4 71 -13 188 -13 312v149h115v-674h-120l-103 256c-22 57 -53 142 -68 203h-2c3 -68 8 -172 8 -307v-152zM288 823h133l-122 -113h-93z" />
    <glyph glyph-name="Ncaron" unicode="&#x147;" horiz-adv-x="516" 
d="M173 0h-115v674h120l104 -264c20 -52 53 -139 72 -197h2c-4 71 -13 188 -13 312v149h115v-674h-120l-103 256c-22 57 -53 142 -68 203h-2c3 -68 8 -172 8 -307v-152zM310 710h-102l-84 110h95l39 -53h2l39 53h92z" />
    <glyph glyph-name="N_uni0302" unicode="&#xe002;" horiz-adv-x="516" 
d="M173 0h-115v674h120l104 -264c20 -52 53 -139 72 -197h2c-4 71 -13 188 -13 312v149h115v-674h-120l-103 256c-22 57 -53 142 -68 203h-2c3 -68 8 -172 8 -307v-152zM205 820h103l84 -110h-96l-39 51h-2l-38 -51h-93z" />
    <glyph glyph-name="uni0145" unicode="&#x145;" horiz-adv-x="516" 
d="M173 0h-115v674h120l104 -264c20 -52 53 -139 72 -197h2c-4 71 -13 188 -13 312v149h115v-674h-120l-103 256c-22 57 -53 142 -68 203h-2c3 -68 8 -172 8 -307v-152zM194 -216l-20 57c25 8 58 25 58 52c0 25 -19 48 -32 61l95 13c17 -12 37 -36 37 -73
c0 -70 -63 -104 -138 -110z" />
    <glyph glyph-name="Obreve" unicode="&#x14e;" horiz-adv-x="481" 
d="M247 682c163 0 209 -179 209 -333c0 -254 -90 -357 -218 -357c-153 0 -213 162 -213 347c0 184 73 343 222 343zM242 568c-52 0 -81 -86 -81 -231c0 -153 29 -231 82 -231c55 0 76 100 76 237c0 118 -18 225 -77 225zM118 831h71c1 -26 19 -44 50 -44s49 17 51 44h70
c0 -70 -40 -116 -120 -116c-81 0 -122 45 -122 116z" />
    <glyph glyph-name="Ohungarumlaut" unicode="&#x150;" horiz-adv-x="481" 
d="M247 682c163 0 209 -179 209 -333c0 -254 -90 -357 -218 -357c-153 0 -213 162 -213 347c0 184 73 343 222 343zM242 568c-52 0 -81 -86 -81 -231c0 -153 29 -231 82 -231c55 0 76 100 76 237c0 118 -18 225 -77 225zM192 823h108l-92 -110h-73zM338 823h109l-93 -110
h-72z" />
    <glyph glyph-name="Omacron" unicode="&#x14c;" horiz-adv-x="481" 
d="M247 682c163 0 209 -179 209 -333c0 -254 -90 -357 -218 -357c-153 0 -213 162 -213 347c0 184 73 343 222 343zM242 568c-52 0 -81 -86 -81 -231c0 -153 29 -231 82 -231c55 0 76 100 76 237c0 118 -18 225 -77 225zM124 815h235v-79h-235v79z" />
    <glyph glyph-name="Oslashacute" unicode="&#x1fe;" horiz-adv-x="481" 
d="M107 -51l-66 36l43 96c-43 65 -59 159 -59 258c0 180 72 343 218 343c36 0 68 -9 96 -27l31 70l69 -29l-42 -95c46 -68 59 -167 59 -252c0 -254 -89 -357 -215 -357c-38 0 -72 10 -101 31zM160 235l129 305c-10 18 -27 28 -47 28c-54 0 -89 -78 -89 -228
c0 -33 0 -69 5 -105h2zM321 443l-133 -304c11 -23 33 -33 54 -33c55 0 86 82 86 237c0 32 -1 66 -5 100h-2zM269 823h133l-122 -113h-94z" />
    <glyph glyph-name="Racute" unicode="&#x154;" horiz-adv-x="470" 
d="M58 0v664c41 8 93 13 143 13c72 0 136 -10 180 -50c41 -37 53 -82 53 -140c0 -72 -35 -137 -104 -169v-2c46 -18 69 -61 82 -133c13 -75 31 -158 43 -183h-137c-8 19 -23 87 -33 161c-12 84 -33 108 -77 108h-19v-269h-131zM189 571v-201h23c57 0 90 46 90 105
c0 57 -23 98 -82 100c-11 0 -24 -1 -31 -4zM251 823h133l-122 -113h-93z" />
    <glyph glyph-name="Rcaron" unicode="&#x158;" horiz-adv-x="470" 
d="M58 0v664c41 8 93 13 143 13c72 0 136 -10 180 -50c41 -37 53 -82 53 -140c0 -72 -35 -137 -104 -169v-2c46 -18 69 -61 82 -133c13 -75 31 -158 43 -183h-137c-8 19 -23 87 -33 161c-12 84 -33 108 -77 108h-19v-269h-131zM189 571v-201h23c57 0 90 46 90 105
c0 57 -23 98 -82 100c-11 0 -24 -1 -31 -4zM288 710h-102l-84 110h96l38 -53h2l39 53h93z" />
    <glyph glyph-name="uni0156" unicode="&#x156;" horiz-adv-x="470" 
d="M58 0v664c41 8 93 13 143 13c72 0 136 -10 180 -50c41 -37 53 -82 53 -140c0 -72 -35 -137 -104 -169v-2c46 -18 69 -61 82 -133c13 -75 31 -158 43 -183h-137c-8 19 -23 87 -33 161c-12 84 -33 108 -77 108h-19v-269h-131zM189 571v-201h23c57 0 90 46 90 105
c0 57 -23 98 -82 100c-11 0 -24 -1 -31 -4zM171 -222l-20 58c25 7 57 24 57 51c0 25 -19 49 -32 61l95 13c17 -11 37 -36 37 -73c0 -70 -62 -103 -137 -110z" />
    <glyph glyph-name="Sacute" unicode="&#x15a;" horiz-adv-x="394" 
d="M24 21l19 113c27 -15 73 -26 111 -26c62 0 92 32 92 76c0 49 -30 73 -87 110c-92 56 -127 127 -127 188c0 108 72 198 213 198c44 0 86 -12 106 -24l-21 -113c-19 12 -48 23 -86 23c-56 0 -83 -34 -83 -70c0 -40 20 -61 93 -105c89 -54 122 -122 122 -193
c0 -123 -91 -204 -223 -204c-54 0 -107 14 -129 27zM224 823h133l-122 -113h-93z" />
    <glyph glyph-name="uni015E" unicode="&#x15e;" horiz-adv-x="394" 
d="M351 656l-21 -113c-19 12 -48 23 -86 23c-56 0 -83 -34 -83 -70c0 -40 20 -61 93 -105c89 -54 122 -122 122 -193c0 -97 -57 -168 -146 -194l-24 -48c35 -6 67 -33 67 -73c0 -64 -54 -87 -110 -87c-27 0 -57 8 -76 18l19 56c17 -8 36 -14 53 -14c16 0 32 7 32 25
c0 20 -25 33 -68 37l33 76h-3c-54 0 -107 14 -129 27l19 113c27 -15 73 -26 111 -26c62 0 92 32 92 76c0 49 -30 73 -87 110c-92 56 -127 127 -127 188c0 108 72 198 213 198c44 0 86 -12 106 -24z" />
    <glyph glyph-name="Scircumflex" unicode="&#x15c;" horiz-adv-x="394" 
d="M24 21l19 113c27 -15 73 -26 111 -26c62 0 92 32 92 76c0 49 -30 73 -87 110c-92 56 -127 127 -127 188c0 108 72 198 213 198c44 0 86 -12 106 -24l-21 -113c-19 12 -48 23 -86 23c-56 0 -83 -34 -83 -70c0 -40 20 -61 93 -105c89 -54 122 -122 122 -193
c0 -123 -91 -204 -223 -204c-54 0 -107 14 -129 27zM154 820h102l84 -110h-95l-39 51h-2l-39 -51h-92z" />
    <glyph glyph-name="uni0218" unicode="&#x218;" horiz-adv-x="394" 
d="M24 21l19 113c27 -15 73 -26 111 -26c62 0 92 32 92 76c0 49 -30 73 -87 110c-92 56 -127 127 -127 188c0 108 72 198 213 198c44 0 86 -12 106 -24l-21 -113c-19 12 -48 23 -86 23c-56 0 -83 -34 -83 -70c0 -40 20 -61 93 -105c89 -54 122 -122 122 -193
c0 -123 -91 -204 -223 -204c-54 0 -107 14 -129 27zM124 -224l-20 58c25 7 58 24 58 51c0 25 -19 49 -32 61l95 13c17 -11 37 -36 37 -73c0 -70 -63 -104 -138 -110z" />
    <glyph glyph-name="Tcaron" unicode="&#x164;" horiz-adv-x="393" 
d="M131 0v553h-119v121h370v-121h-120v-553h-131zM249 710h-102l-85 110h96l39 -53h2l38 53h93z" />
    <glyph glyph-name="uni021A" unicode="&#x21a;" horiz-adv-x="393" 
d="M131 0v553h-119v121h370v-121h-120v-553h-131zM131 -224l-21 58c25 7 58 24 58 51c0 25 -19 49 -32 61l95 13c17 -11 37 -36 37 -73c0 -70 -62 -104 -137 -110z" />
    <glyph glyph-name="Ubreve" unicode="&#x16c;" horiz-adv-x="500" 
d="M54 674h131v-438c0 -99 30 -129 64 -129c38 0 65 27 65 129v438h131v-415c0 -173 -65 -267 -195 -267c-141 0 -196 97 -196 266v416zM128 823h70c2 -26 20 -44 51 -44s49 18 51 44h70c0 -70 -40 -116 -120 -116c-82 0 -122 45 -122 116z" />
    <glyph glyph-name="Uhungarumlaut" unicode="&#x170;" horiz-adv-x="500" 
d="M54 674h131v-438c0 -99 30 -129 64 -129c38 0 65 27 65 129v438h131v-415c0 -173 -65 -267 -195 -267c-141 0 -196 97 -196 266v416zM191 823h108l-92 -110h-73zM338 823h108l-92 -110h-73z" />
    <glyph glyph-name="Umacron" unicode="&#x16a;" horiz-adv-x="500" 
d="M54 674h131v-438c0 -99 30 -129 64 -129c38 0 65 27 65 129v438h131v-415c0 -173 -65 -267 -195 -267c-141 0 -196 97 -196 266v416zM132 815h235v-79h-235v79z" />
    <glyph glyph-name="Uogonek" unicode="&#x172;" horiz-adv-x="500" 
d="M353 -111l16 -66c-29 -18 -62 -26 -87 -26c-66 0 -98 36 -98 85c0 46 28 87 46 112h-8c-118 11 -168 105 -168 264v416h131v-438c0 -99 30 -129 64 -129c38 0 65 27 65 129v438h131v-415c0 -136 -40 -226 -125 -253c-27 -26 -46 -62 -46 -88s16 -37 36 -37
c17 0 31 3 43 8z" />
    <glyph glyph-name="Uring" unicode="&#x16e;" horiz-adv-x="500" 
d="M54 674h131v-438c0 -99 30 -129 64 -129c38 0 65 27 65 129v438h131v-415c0 -173 -65 -267 -195 -267c-141 0 -196 97 -196 266v416zM250 877c76 0 105 -43 105 -91s-32 -93 -105 -93c-75 0 -105 45 -105 90c0 48 33 94 105 94zM249 830c-27 0 -37 -25 -37 -46
c0 -20 10 -43 37 -43c29 0 39 21 39 45c0 21 -11 44 -39 44z" />
    <glyph glyph-name="Utilde" unicode="&#x168;" horiz-adv-x="500" 
d="M54 674h131v-438c0 -99 30 -129 64 -129c38 0 65 27 65 129v438h131v-415c0 -173 -65 -267 -195 -267c-141 0 -196 97 -196 266v416zM190 718h-59c-2 75 25 115 66 115c23 0 39 -8 53 -17s26 -17 37 -17c14 0 20 9 24 38h58c2 -84 -23 -115 -69 -115c-23 0 -40 8 -54 16
c-14 9 -23 15 -35 15c-10 0 -19 -11 -21 -35z" />
    <glyph glyph-name="Wacute" unicode="&#x1e82;" horiz-adv-x="679" 
d="M258 0h-130l-115 674h136l33 -269c9 -77 15 -154 23 -236h3c9 83 24 156 38 237l48 268h106l45 -266c12 -76 24 -151 32 -239h2c9 88 17 160 26 238l33 267h128l-119 -674h-135l-40 221c-11 62 -21 139 -30 221h-2c-12 -81 -23 -156 -37 -222zM368 823h133l-122 -113h-93
z" />
    <glyph glyph-name="Wcircumflex" unicode="&#x174;" horiz-adv-x="679" 
d="M258 0h-130l-115 674h136l33 -269c9 -77 15 -154 23 -236h3c9 83 24 156 38 237l48 268h106l45 -266c12 -76 24 -151 32 -239h2c9 88 17 160 26 238l33 267h128l-119 -674h-135l-40 221c-11 62 -21 139 -30 221h-2c-12 -81 -23 -156 -37 -222zM295 820h102l84 -110h-95
l-39 51h-2l-39 -51h-92z" />
    <glyph glyph-name="Wdieresis" unicode="&#x1e84;" horiz-adv-x="679" 
d="M258 0h-130l-115 674h136l33 -269c9 -77 15 -154 23 -236h3c9 83 24 156 38 237l48 268h106l45 -266c12 -76 24 -151 32 -239h2c9 88 17 160 26 238l33 267h128l-119 -674h-135l-40 221c-11 62 -21 139 -30 221h-2c-12 -81 -23 -156 -37 -222zM254 714
c-32 0 -59 28 -59 64s28 64 59 64c32 0 59 -28 59 -64s-27 -64 -59 -64zM438 714c-33 0 -60 28 -60 64s28 64 60 64s59 -28 59 -64s-27 -64 -59 -64z" />
    <glyph glyph-name="Wgrave" unicode="&#x1e80;" horiz-adv-x="679" 
d="M258 0h-130l-115 674h136l33 -269c9 -77 15 -154 23 -236h3c9 83 24 156 38 237l48 268h106l45 -266c12 -76 24 -151 32 -239h2c9 88 17 160 26 238l33 267h128l-119 -674h-135l-40 221c-11 62 -21 139 -30 221h-2c-12 -81 -23 -156 -37 -222zM193 823h132l83 -113h-93z
" />
    <glyph glyph-name="Ycircumflex" unicode="&#x176;" horiz-adv-x="402" 
d="M264 0h-131v258l-148 416h140l46 -161c12 -43 25 -93 35 -143h2c8 49 19 98 31 146l40 158h136l-151 -411v-263zM149 820h102l84 -110h-95l-39 51h-2l-39 -51h-92z" />
    <glyph glyph-name="Ygrave" unicode="&#x1ef2;" horiz-adv-x="402" 
d="M264 0h-131v258l-148 416h140l46 -161c12 -43 25 -93 35 -143h2c8 49 19 98 31 146l40 158h136l-151 -411v-263zM53 821h133l82 -113h-93z" />
    <glyph glyph-name="uni0232" unicode="&#x232;" horiz-adv-x="402" 
d="M264 0h-131v258l-148 416h140l46 -161c12 -43 25 -93 35 -143h2c8 49 19 98 31 146l40 158h136l-151 -411v-263zM83 815h235v-79h-235v79z" />
    <glyph glyph-name="Zacute" unicode="&#x179;" horiz-adv-x="387" 
d="M11 0v77l213 480v3h-193v114h341v-97l-204 -460v-3h203v-114h-360zM223 823h133l-122 -113h-93z" />
    <glyph glyph-name="Zdotaccent" unicode="&#x17b;" horiz-adv-x="387" 
d="M11 0v77l213 480v3h-193v114h341v-97l-204 -460v-3h203v-114h-360zM205 713c-34 0 -63 30 -63 64c0 36 30 64 63 64c34 0 63 -28 63 -64c0 -34 -29 -64 -63 -64z" />
    <glyph glyph-name="AEacute" unicode="&#x1fc;" horiz-adv-x="595" 
d="M122 0h-129l203 674h369v-114h-178l9 -166h163v-109h-152l10 -171h163v-114h-278l-12 184h-123zM191 286h89l-8 167c-2 39 -5 85 -8 130h-3c-12 -56 -29 -123 -37 -159zM370 823h133l-122 -113h-93z" />
    <glyph glyph-name="abreve" unicode="&#x103;" horiz-adv-x="422" 
d="M383 0h-118l-7 48h-2c-27 -38 -65 -56 -108 -56c-74 0 -129 62 -129 149c0 128 113 181 224 182v11c0 38 -23 66 -69 66c-39 0 -71 -10 -100 -28l-24 88c27 16 84 37 152 37c149 0 173 -104 173 -203v-182c0 -39 2 -79 8 -112zM247 153v85c-44 -1 -104 -15 -104 -83
c0 -49 27 -67 47 -67c21 0 45 13 54 42c2 7 3 15 3 23zM92 679h65c4 -34 24 -53 53 -53c37 0 55 25 56 53h64c2 -72 -48 -127 -121 -127c-71 0 -119 55 -117 127z" />
    <glyph glyph-name="amacron" unicode="&#x101;" horiz-adv-x="422" 
d="M383 0h-118l-7 48h-2c-27 -38 -65 -56 -108 -56c-74 0 -129 62 -129 149c0 128 113 181 224 182v11c0 38 -23 66 -69 66c-39 0 -71 -10 -100 -28l-24 88c27 16 84 37 152 37c149 0 173 -104 173 -203v-182c0 -39 2 -79 8 -112zM247 153v85c-44 -1 -104 -15 -104 -83
c0 -49 27 -67 47 -67c21 0 45 13 54 42c2 7 3 15 3 23zM105 656h212v-74h-212v74z" />
    <glyph glyph-name="aogonek" unicode="&#x105;" horiz-adv-x="422" 
d="M74 372l-24 88c27 16 84 37 152 37c149 0 173 -104 173 -203v-182c0 -43 2 -80 8 -112h-37c-15 -24 -26 -53 -26 -80c0 -24 19 -42 41 -42c17 0 29 2 38 6l16 -66c-29 -21 -61 -25 -87 -25c-66 0 -98 39 -98 96c0 49 26 92 35 111l-7 48h-2c-27 -38 -65 -56 -108 -56
c-74 0 -129 62 -129 149c0 128 113 181 224 182v11c0 38 -23 66 -69 66c-39 0 -71 -10 -100 -28zM247 153v85c-44 -1 -104 -15 -104 -83c0 -49 27 -67 47 -67c21 0 45 13 54 42c2 7 3 15 3 23z" />
    <glyph glyph-name="a.superior" horiz-adv-x="302" 
d="M268 263h-71l-5 33h-2c-18 -25 -43 -38 -74 -38c-48 0 -85 38 -85 96c0 85 75 117 151 118v8c0 19 -14 40 -51 40c-28 0 -48 -8 -64 -19l-14 61c26 16 60 26 93 26c97 0 118 -72 118 -137v-113c0 -25 1 -52 4 -75zM184 362v53c-34 0 -75 -11 -75 -52c0 -23 16 -38 35 -38
c12 0 26 6 34 20c3 5 6 11 6 17z" />
    <glyph glyph-name="cacute" unicode="&#x107;" horiz-adv-x="323" 
d="M306 111l11 -103c-13 -6 -46 -14 -83 -14c-124 0 -205 86 -205 246c0 151 89 256 224 256c31 0 59 -7 72 -13l-17 -103c-11 4 -27 9 -49 9c-63 0 -100 -60 -100 -145c0 -89 37 -143 98 -143c19 0 35 3 49 10zM231 689h114l-101 -140h-82z" />
    <glyph glyph-name="ccaron" unicode="&#x10d;" horiz-adv-x="323" 
d="M306 111l11 -103c-13 -6 -46 -14 -83 -14c-124 0 -205 86 -205 246c0 151 89 256 224 256c31 0 59 -7 72 -13l-17 -103c-11 4 -27 9 -49 9c-63 0 -100 -60 -100 -145c0 -89 37 -143 98 -143c19 0 35 3 49 10zM248 549h-91l-85 140h89l41 -80h2l40 80h91z" />
    <glyph glyph-name="ccircumflex" unicode="&#x109;" horiz-adv-x="323" 
d="M306 111l11 -103c-13 -6 -46 -14 -83 -14c-124 0 -205 86 -205 246c0 151 89 256 224 256c31 0 59 -7 72 -13l-17 -103c-11 4 -27 9 -49 9c-63 0 -100 -60 -100 -145c0 -89 37 -143 98 -143c19 0 35 3 49 10zM159 689h91l86 -140h-90l-40 80h-2l-40 -80h-91z" />
    <glyph glyph-name="cdotaccent" unicode="&#x10b;" horiz-adv-x="323" 
d="M306 111l11 -103c-13 -6 -46 -14 -83 -14c-124 0 -205 86 -205 246c0 151 89 256 224 256c31 0 59 -7 72 -13l-17 -103c-11 4 -27 9 -49 9c-63 0 -100 -60 -100 -145c0 -89 37 -143 98 -143c19 0 35 3 49 10zM203 560c-33 0 -60 27 -60 64s28 64 60 64
c34 0 60 -26 60 -64c0 -37 -25 -64 -60 -64z" />
    <glyph glyph-name="dcaron" unicode="&#x10f;" horiz-adv-x="457" 
d="M270 692h131v-547c0 -47 2 -100 4 -145h-113l-7 55h-2c-18 -34 -57 -63 -102 -63c-104 0 -152 115 -152 252c0 170 74 253 157 253c43 0 70 -21 82 -49h2v244zM270 172v129c0 9 0 19 -1 29c-5 30 -21 57 -47 57c-46 0 -63 -67 -63 -146c0 -93 25 -142 62 -142
c16 0 35 9 45 43c3 7 4 18 4 30zM492 492l-49 36c13 18 30 51 30 88c0 29 -15 54 -27 66l81 13c17 -11 34 -38 34 -74c0 -69 -50 -112 -69 -129z" />
    <glyph glyph-name="ebreve" unicode="&#x115;" horiz-adv-x="419" 
d="M387 198h-232c2 -76 46 -104 104 -104c37 0 70 8 93 16l18 -94c-34 -13 -85 -22 -135 -22c-133 0 -206 88 -206 241c0 164 85 262 196 262c105 0 166 -83 166 -231c0 -35 -1 -54 -4 -68zM156 290h116c0 63 -16 112 -55 112c-43 0 -60 -63 -61 -112zM97 679h65
c4 -34 24 -53 53 -53c37 0 55 25 56 53h64c2 -72 -48 -127 -121 -127c-71 0 -119 55 -117 127z" />
    <glyph glyph-name="ecaron" unicode="&#x11b;" horiz-adv-x="419" 
d="M387 198h-232c2 -76 46 -104 104 -104c37 0 70 8 93 16l18 -94c-34 -13 -85 -22 -135 -22c-133 0 -206 88 -206 241c0 164 85 262 196 262c105 0 166 -83 166 -231c0 -35 -1 -54 -4 -68zM156 290h116c0 63 -16 112 -55 112c-43 0 -60 -63 -61 -112zM260 549h-91l-86 140
h90l40 -80h2l40 80h91z" />
    <glyph glyph-name="edotaccent" unicode="&#x117;" horiz-adv-x="419" 
d="M387 198h-232c2 -76 46 -104 104 -104c37 0 70 8 93 16l18 -94c-34 -13 -85 -22 -135 -22c-133 0 -206 88 -206 241c0 164 85 262 196 262c105 0 166 -83 166 -231c0 -35 -1 -54 -4 -68zM156 290h116c0 63 -16 112 -55 112c-43 0 -60 -63 -61 -112zM218 560
c-33 0 -60 27 -60 64s28 64 60 64c34 0 60 -26 60 -64c0 -37 -25 -64 -60 -64z" />
    <glyph glyph-name="emacron" unicode="&#x113;" horiz-adv-x="419" 
d="M387 198h-232c2 -76 46 -104 104 -104c37 0 70 8 93 16l18 -94c-34 -13 -85 -22 -135 -22c-133 0 -206 88 -206 241c0 164 85 262 196 262c105 0 166 -83 166 -231c0 -35 -1 -54 -4 -68zM156 290h116c0 63 -16 112 -55 112c-43 0 -60 -63 -61 -112zM106 656h212v-74h-212
v74z" />
    <glyph glyph-name="eogonek" unicode="&#x119;" horiz-adv-x="419" 
d="M329 -109l22 -64c-33 -26 -68 -32 -94 -32c-64 0 -94 36 -94 82c0 47 35 90 68 116v1h-4c-128 4 -198 91 -198 241c0 164 85 262 196 262c105 0 166 -83 166 -231c0 -35 -1 -54 -4 -68h-232c2 -76 46 -104 104 -104c37 0 70 8 93 16l18 -94c-14 -5 -31 -10 -39 -13
c-50 -31 -78 -68 -78 -94c0 -21 14 -30 29 -30c17 0 33 5 47 12zM156 290h116c0 63 -16 112 -55 112c-43 0 -60 -63 -61 -112z" />
    <glyph glyph-name="gbreve" unicode="&#x11f;" horiz-adv-x="447" 
d="M293 489h114c-2 -44 -5 -96 -5 -155v-279c0 -105 -19 -163 -59 -201c-36 -34 -87 -54 -159 -54c-45 0 -87 8 -122 23l24 101c25 -11 56 -21 94 -21c66 0 92 44 92 119v30h-2c-17 -31 -51 -49 -88 -49c-110 0 -153 120 -153 237c0 163 74 257 165 257c39 0 71 -20 90 -57
h2zM272 180v131c0 13 -2 26 -5 36c-6 21 -20 40 -42 40c-47 0 -66 -64 -66 -144c0 -91 26 -137 63 -137c17 0 34 9 44 35c4 11 6 26 6 39zM114 679h65c4 -34 24 -53 53 -53c37 0 55 25 56 53h64c2 -72 -48 -127 -121 -127c-71 0 -119 55 -117 127z" />
    <glyph glyph-name="gcircumflex" unicode="&#x11d;" horiz-adv-x="447" 
d="M293 489h114c-2 -44 -5 -96 -5 -155v-279c0 -105 -19 -163 -59 -201c-36 -34 -87 -54 -159 -54c-45 0 -87 8 -122 23l24 101c25 -11 56 -21 94 -21c66 0 92 44 92 119v30h-2c-17 -31 -51 -49 -88 -49c-110 0 -153 120 -153 237c0 163 74 257 165 257c39 0 71 -20 90 -57
h2zM272 180v131c0 13 -2 26 -5 36c-6 21 -20 40 -42 40c-47 0 -66 -64 -66 -144c0 -91 26 -137 63 -137c17 0 34 9 44 35c4 11 6 26 6 39zM184 689h91l85 -140h-89l-41 80h-2l-39 -80h-91z" />
    <glyph glyph-name="uni0123" unicode="&#x123;" horiz-adv-x="447" 
d="M297 723l21 -52c-37 -7 -66 -24 -66 -57c0 -27 19 -49 36 -62l-90 -12c-17 13 -37 40 -37 72c0 73 62 104 136 111zM293 489h114c-2 -44 -5 -96 -5 -155v-279c0 -105 -19 -163 -59 -201c-36 -34 -87 -54 -159 -54c-45 0 -87 8 -122 23l24 101c25 -11 56 -21 94 -21
c66 0 92 44 92 119v30h-2c-17 -31 -51 -49 -88 -49c-110 0 -153 120 -153 237c0 163 74 257 165 257c39 0 71 -20 90 -57h2zM272 180v131c0 13 -2 26 -5 36c-6 21 -20 40 -42 40c-47 0 -66 -64 -66 -144c0 -91 26 -137 63 -137c17 0 34 9 44 35c4 11 6 26 6 39z" />
    <glyph glyph-name="gdotaccent" unicode="&#x121;" horiz-adv-x="447" 
d="M293 489h114c-2 -44 -5 -96 -5 -155v-279c0 -105 -19 -163 -59 -201c-36 -34 -87 -54 -159 -54c-45 0 -87 8 -122 23l24 101c25 -11 56 -21 94 -21c66 0 92 44 92 119v30h-2c-17 -31 -51 -49 -88 -49c-110 0 -153 120 -153 237c0 163 74 257 165 257c39 0 71 -20 90 -57
h2zM272 180v131c0 13 -2 26 -5 36c-6 21 -20 40 -42 40c-47 0 -66 -64 -66 -144c0 -91 26 -137 63 -137c17 0 34 9 44 35c4 11 6 26 6 39zM229 560c-33 0 -60 27 -60 64s28 64 60 64c34 0 60 -26 60 -64c0 -37 -25 -64 -60 -64z" />
    <glyph glyph-name="g_tildecomb" unicode="&#xe005;" horiz-adv-x="447" 
d="M293 489h114c-2 -44 -5 -96 -5 -155v-279c0 -105 -19 -163 -59 -201c-36 -34 -87 -54 -159 -54c-45 0 -87 8 -122 23l24 101c25 -11 56 -21 94 -21c66 0 92 44 92 119v30h-2c-17 -31 -51 -49 -88 -49c-110 0 -153 120 -153 237c0 163 74 257 165 257c39 0 71 -20 90 -57
h2zM272 180v131c0 13 -2 26 -5 36c-6 21 -20 40 -42 40c-47 0 -66 -64 -66 -144c0 -91 26 -137 63 -137c17 0 34 9 44 35c4 11 6 26 6 39zM161 557h-60c0 65 23 118 71 118c25 0 42 -10 58 -18c12 -8 24 -16 37 -16s21 5 21 37h58c0 -80 -28 -114 -70 -114
c-19 0 -38 9 -53 16c-16 8 -25 17 -39 17c-12 0 -22 -14 -23 -40z" />
    <glyph glyph-name="hcircumflex" unicode="&#x125;" horiz-adv-x="458" 
d="M46 0v692h131v-254h2c11 17 26 31 42 42c19 11 42 17 66 17c90 0 125 -76 125 -200v-297h-131v297c0 48 -9 90 -48 90c-22 0 -41 -13 -51 -46c-2 -8 -5 -26 -5 -37v-304h-131zM59 834h103l84 -110h-96l-38 52h-2l-39 -52h-93z" />
    <glyph glyph-name="ibreve" unicode="&#x12d;" horiz-adv-x="223" 
d="M177 0h-131v489h131v-489zM-7 679h65c4 -34 24 -53 53 -53c37 0 55 25 56 53h64c2 -72 -48 -127 -121 -127c-71 0 -119 55 -117 127z" />
    <glyph glyph-name="imacron" unicode="&#x12b;" horiz-adv-x="223" 
d="M177 0h-131v489h131v-489zM6 656h212v-74h-212v74z" />
    <glyph glyph-name="iogonek" unicode="&#x12f;" horiz-adv-x="223" 
d="M109 548c-37 0 -67 29 -66 71c-1 44 31 71 67 71c38 0 67 -27 67 -71c1 -42 -29 -71 -68 -71zM177 489v-489h-51c-14 -24 -25 -53 -25 -80c0 -24 18 -42 40 -42c18 0 30 2 39 6l16 -66c-30 -21 -62 -25 -88 -25c-65 0 -98 39 -98 96c0 49 26 92 36 111v489h131z" />
    <glyph glyph-name="itilde" unicode="&#x129;" horiz-adv-x="223" 
d="M177 0h-131v489h131v-489zM50 557h-60c0 65 22 118 71 118c24 0 41 -10 57 -18c13 -8 24 -16 37 -16s21 5 22 37h58c0 -80 -28 -114 -70 -114c-20 0 -39 9 -53 16c-17 8 -25 17 -39 17c-13 0 -23 -14 -23 -40z" />
    <glyph glyph-name="jcircumflex" unicode="&#x135;" horiz-adv-x="224" 
d="M-29 -200l-10 104c23 3 48 8 64 26c19 20 22 55 22 130v429h132v-454c0 -109 -23 -160 -65 -193c-36 -29 -96 -42 -143 -42zM66 687h91l85 -140h-89l-41 80h-2l-40 -80h-90z" />
    <glyph glyph-name="uni0137" unicode="&#x137;" horiz-adv-x="413" 
d="M176 692v-417h2c9 28 16 48 25 68l63 146h141l-118 -205l125 -284h-146l-70 201l-22 -42v-159h-131v692h131zM143 -224l-21 58c25 7 58 24 58 51c0 25 -19 49 -32 61l95 13c17 -11 37 -36 37 -73c0 -70 -63 -104 -137 -110z" />
    <glyph glyph-name="lacute" unicode="&#x13a;" horiz-adv-x="225" 
d="M46 0v692h131v-692h-131zM133 837h133l-122 -113h-93z" />
    <glyph glyph-name="lcaron" unicode="&#x13e;" horiz-adv-x="233" 
d="M264 492l-50 36c13 18 31 51 31 88c0 29 -15 54 -28 66l81 13c17 -11 34 -38 34 -74c0 -69 -50 -112 -68 -129zM46 0v692h131v-692h-131z" />
    <glyph glyph-name="uni013C" unicode="&#x13c;" horiz-adv-x="225" 
d="M46 0v692h131v-692h-131zM47 -224l-20 58c25 7 58 24 58 51c0 25 -19 49 -32 61l95 13c17 -11 37 -36 37 -73c0 -70 -63 -104 -138 -110z" />
    <glyph glyph-name="ldot" unicode="&#x140;" horiz-adv-x="321" 
d="M273 314c-30 0 -56 26 -56 62s26 62 56 62c32 0 56 -25 56 -62c0 -36 -24 -62 -56 -62zM46 0v692h131v-692h-131z" />
    <glyph glyph-name="m_uni0302" unicode="&#xe006;" horiz-adv-x="680" 
d="M46 0v342c0 54 -3 101 -4 147h114l6 -57h2c25 37 66 65 117 65c55 0 90 -25 107 -66h2c12 19 30 37 49 49c20 11 44 17 69 17c87 0 126 -69 126 -187v-310h-130v288c0 56 -6 101 -46 101c-23 0 -40 -16 -49 -45c-2 -7 -4 -21 -4 -34v-310h-130v307c0 35 -4 82 -45 82
c-20 0 -40 -15 -49 -44c-3 -9 -5 -23 -5 -37v-308h-130zM295 689h91l86 -140h-90l-40 80h-2l-40 -80h-91z" />
    <glyph glyph-name="nacute" unicode="&#x144;" horiz-adv-x="458" 
d="M46 0v342c0 54 -3 101 -4 147h113l6 -56h2c26 39 68 64 119 64c93 0 130 -74 130 -183v-314h-131v306c0 42 -10 81 -48 81c-22 0 -40 -15 -49 -44c-4 -10 -7 -26 -7 -45v-298h-131zM254 689h114l-101 -140h-82z" />
    <glyph glyph-name="ncaron" unicode="&#x148;" horiz-adv-x="458" 
d="M46 0v342c0 54 -3 101 -4 147h113l6 -56h2c26 39 68 64 119 64c93 0 130 -74 130 -183v-314h-131v306c0 42 -10 81 -48 81c-22 0 -40 -15 -49 -44c-4 -10 -7 -26 -7 -45v-298h-131zM274 549h-91l-85 140h89l41 -80h2l40 80h90z" />
    <glyph glyph-name="n_uni0302" unicode="&#xe007;" horiz-adv-x="458" 
d="M46 0v342c0 54 -3 101 -4 147h113l6 -56h2c26 39 68 64 119 64c93 0 130 -74 130 -183v-314h-131v306c0 42 -10 81 -48 81c-22 0 -40 -15 -49 -44c-4 -10 -7 -26 -7 -45v-298h-131zM184 689h91l86 -140h-90l-40 80h-2l-40 -80h-91z" />
    <glyph glyph-name="uni0146" unicode="&#x146;" horiz-adv-x="458" 
d="M46 0v342c0 54 -3 101 -4 147h113l6 -56h2c26 39 68 64 119 64c93 0 130 -74 130 -183v-314h-131v306c0 42 -10 81 -48 81c-22 0 -40 -15 -49 -44c-4 -10 -7 -26 -7 -45v-298h-131zM166 -223l-21 58c25 8 58 25 58 52c0 24 -19 48 -32 61l95 12c17 -11 37 -35 37 -72
c0 -70 -62 -104 -137 -111z" />
    <glyph glyph-name="obreve" unicode="&#x14f;" horiz-adv-x="431" 
d="M218 497c115 0 185 -97 185 -251c0 -204 -113 -254 -187 -254c-117 0 -187 92 -187 251c0 176 92 254 189 254zM217 398c-48 0 -58 -85 -58 -152c0 -84 13 -154 60 -154c42 0 53 82 53 154c0 67 -11 152 -55 152zM96 679h65c4 -34 24 -53 53 -53c37 0 55 25 56 53h64
c2 -72 -48 -127 -121 -127c-71 0 -119 55 -117 127z" />
    <glyph glyph-name="ohungarumlaut" unicode="&#x151;" horiz-adv-x="431" 
d="M218 497c115 0 185 -97 185 -251c0 -204 -113 -254 -187 -254c-117 0 -187 92 -187 251c0 176 92 254 189 254zM217 398c-48 0 -58 -85 -58 -152c0 -84 13 -154 60 -154c42 0 53 82 53 154c0 67 -11 152 -55 152zM182 689h95l-101 -140h-67zM320 689h95l-101 -140h-67z
" />
    <glyph glyph-name="omacron" unicode="&#x14d;" horiz-adv-x="431" 
d="M218 497c115 0 185 -97 185 -251c0 -204 -113 -254 -187 -254c-117 0 -187 92 -187 251c0 176 92 254 189 254zM217 398c-48 0 -58 -85 -58 -152c0 -84 13 -154 60 -154c42 0 53 82 53 154c0 67 -11 152 -55 152zM110 656h213v-74h-213v74z" />
    <glyph glyph-name="oslashacute" unicode="&#x1ff;" horiz-adv-x="431" 
d="M217 497c33 0 62 -8 88 -24l33 57l58 -31l-41 -73c31 -43 48 -104 48 -180c0 -204 -113 -254 -186 -254c-34 0 -65 8 -91 24l-32 -57l-55 37l37 66c-31 43 -47 104 -47 181c0 176 92 254 188 254zM158 182l97 191c-7 16 -19 25 -39 25c-58 0 -66 -98 -66 -152
c0 -19 1 -40 4 -62zM273 300l-94 -183c7 -16 19 -25 38 -25c49 0 64 72 64 141c0 20 0 43 -3 67h-5zM239 689h114l-101 -140h-82z" />
    <glyph glyph-name="racute" unicode="&#x155;" horiz-adv-x="294" 
d="M45 0v342c0 49 -2 102 -4 147h114l7 -71h3c22 52 61 79 97 79c13 0 20 0 28 -2v-130c-8 2 -17 2 -28 2c-28 0 -65 -19 -80 -70c-3 -11 -5 -28 -5 -49v-248h-132zM175 689h115l-101 -140h-82z" />
    <glyph glyph-name="rcaron" unicode="&#x159;" horiz-adv-x="294" 
d="M45 0v342c0 49 -2 102 -4 147h114l7 -71h3c22 52 61 79 97 79c13 0 20 0 28 -2v-130c-8 2 -17 2 -28 2c-28 0 -65 -19 -80 -70c-3 -11 -5 -28 -5 -49v-248h-132zM203 549h-91l-86 140h90l40 -80h2l40 80h91z" />
    <glyph glyph-name="uni0157" unicode="&#x157;" horiz-adv-x="294" 
d="M45 0v342c0 49 -2 102 -4 147h114l7 -71h3c22 52 61 79 97 79c13 0 20 0 28 -2v-130c-8 2 -17 2 -28 2c-28 0 -65 -19 -80 -70c-3 -11 -5 -28 -5 -49v-248h-132zM68 -224l-20 58c25 7 58 24 58 51c0 25 -19 49 -32 61l95 13c17 -11 37 -36 37 -73
c0 -70 -63 -104 -138 -110z" />
    <glyph glyph-name="sacute" unicode="&#x15b;" horiz-adv-x="324" 
d="M18 22l24 96c19 -12 55 -26 88 -26c34 0 53 15 53 44c0 25 -14 41 -57 66c-80 45 -99 96 -99 141c0 88 63 154 161 154c41 0 73 -10 99 -22l-23 -96c-19 11 -42 20 -68 20c-33 0 -49 -20 -49 -42s11 -34 57 -61c72 -41 99 -92 99 -148c0 -100 -72 -154 -173 -154
c-41 0 -89 11 -112 28zM187 689h114l-101 -140h-82z" />
    <glyph glyph-name="uni015F" unicode="&#x15f;" horiz-adv-x="324" 
d="M287 475l-23 -96c-19 11 -42 20 -68 20c-33 0 -49 -20 -49 -42s11 -34 57 -61c72 -41 99 -92 99 -148c0 -77 -43 -127 -109 -146l-23 -46c35 -6 67 -33 67 -73c0 -64 -54 -87 -111 -87c-27 0 -56 8 -75 18l19 56c16 -8 36 -14 52 -14c17 0 32 7 32 25c0 20 -23 33 -68 37
l34 76c-39 2 -82 12 -103 28l24 96c19 -12 55 -26 88 -26c34 0 53 15 53 44c0 25 -14 41 -57 66c-80 45 -99 96 -99 141c0 88 63 154 161 154c41 0 73 -10 99 -22z" />
    <glyph glyph-name="scircumflex" unicode="&#x15d;" horiz-adv-x="324" 
d="M18 22l24 96c19 -12 55 -26 88 -26c34 0 53 15 53 44c0 25 -14 41 -57 66c-80 45 -99 96 -99 141c0 88 63 154 161 154c41 0 73 -10 99 -22l-23 -96c-19 11 -42 20 -68 20c-33 0 -49 -20 -49 -42s11 -34 57 -61c72 -41 99 -92 99 -148c0 -100 -72 -154 -173 -154
c-41 0 -89 11 -112 28zM117 689h91l86 -140h-90l-40 80h-2l-40 -80h-91z" />
    <glyph glyph-name="uni0219" unicode="&#x219;" horiz-adv-x="324" 
d="M18 22l24 96c19 -12 55 -26 88 -26c34 0 53 15 53 44c0 25 -14 41 -57 66c-80 45 -99 96 -99 141c0 88 63 154 161 154c41 0 73 -10 99 -22l-23 -96c-19 11 -42 20 -68 20c-33 0 -49 -20 -49 -42s11 -34 57 -61c72 -41 99 -92 99 -148c0 -100 -72 -154 -173 -154
c-41 0 -89 11 -112 28zM89 -224l-21 58c25 7 58 24 58 51c0 25 -19 49 -32 61l95 13c17 -11 37 -36 37 -73c0 -70 -62 -104 -137 -110z" />
    <glyph glyph-name="tcaron" unicode="&#x165;" horiz-adv-x="321" 
d="M319 543l-57 33c15 16 30 48 30 82c0 27 -12 50 -22 62l88 11c15 -10 34 -31 34 -68c0 -64 -53 -105 -73 -120zM69 590l131 31v-132h96v-93h-96v-223c0 -57 24 -71 50 -71c13 0 23 1 34 3l1 -102c-18 -5 -45 -9 -80 -9c-38 0 -71 9 -94 31c-27 26 -42 63 -42 140v231h-58
v93h58v101z" />
    <glyph glyph-name="uni021B" unicode="&#x21b;" horiz-adv-x="311" 
d="M69 590l131 31v-132h96v-93h-96v-223c0 -57 24 -71 50 -71c13 0 23 1 34 3l1 -102c-18 -5 -45 -9 -80 -9c-38 0 -71 9 -94 31c-27 26 -42 63 -42 140v231h-58v93h58v101zM96 -224l-20 58c25 7 58 24 58 51c0 25 -19 49 -32 61l95 13c17 -11 37 -36 37 -73
c0 -70 -63 -104 -138 -110z" />
    <glyph glyph-name="ubreve" unicode="&#x16d;" horiz-adv-x="452" 
d="M404 489v-340c0 -52 2 -103 4 -149h-113l-7 52h-2c-23 -33 -63 -60 -113 -60c-93 0 -131 69 -131 201v296h132v-282c0 -64 12 -105 49 -105c22 0 36 17 42 33c5 10 8 25 8 42v312h131zM107 679h65c4 -34 24 -53 53 -53c37 0 55 25 56 53h64c2 -72 -48 -127 -121 -127
c-71 0 -119 55 -117 127z" />
    <glyph glyph-name="uhungarumlaut" unicode="&#x171;" horiz-adv-x="452" 
d="M404 489v-340c0 -52 2 -103 4 -149h-113l-7 52h-2c-23 -33 -63 -60 -113 -60c-93 0 -131 69 -131 201v296h132v-282c0 -64 12 -105 49 -105c22 0 36 17 42 33c5 10 8 25 8 42v312h131zM193 689h95l-101 -140h-67zM331 689h95l-101 -140h-67z" />
    <glyph glyph-name="umacron" unicode="&#x16b;" horiz-adv-x="452" 
d="M404 489v-340c0 -52 2 -103 4 -149h-113l-7 52h-2c-23 -33 -63 -60 -113 -60c-93 0 -131 69 -131 201v296h132v-282c0 -64 12 -105 49 -105c22 0 36 17 42 33c5 10 8 25 8 42v312h131zM120 656h213v-74h-213v74z" />
    <glyph glyph-name="uogonek" unicode="&#x173;" horiz-adv-x="452" 
d="M404 489v-340c0 -52 2 -104 5 -149h-34c-14 -24 -25 -53 -25 -80c0 -24 18 -42 40 -42c18 0 30 2 39 6l16 -66c-29 -21 -62 -25 -88 -25c-65 0 -97 39 -97 96c0 49 25 92 35 111l-7 52h-2c-23 -33 -63 -60 -113 -60c-93 0 -131 69 -131 201v296h132v-282
c0 -64 12 -105 49 -105c22 0 36 17 42 33c5 10 8 25 8 42v312h131z" />
    <glyph glyph-name="uring" unicode="&#x16f;" horiz-adv-x="452" 
d="M404 489v-340c0 -52 2 -103 4 -149h-113l-7 52h-2c-23 -33 -63 -60 -113 -60c-93 0 -131 69 -131 201v296h132v-282c0 -64 12 -105 49 -105c22 0 36 17 42 33c5 10 8 25 8 42v312h131zM227 538c-69 0 -103 40 -103 89c0 52 33 94 104 94c67 0 101 -39 101 -91
c0 -51 -37 -92 -102 -92zM226 582c32 0 41 27 41 48s-7 47 -42 47c-30 0 -39 -28 -39 -49c0 -17 9 -46 40 -46z" />
    <glyph glyph-name="utilde" unicode="&#x169;" horiz-adv-x="452" 
d="M404 489v-340c0 -52 2 -103 4 -149h-113l-7 52h-2c-23 -33 -63 -60 -113 -60c-93 0 -131 69 -131 201v296h132v-282c0 -64 12 -105 49 -105c22 0 36 17 42 33c5 10 8 25 8 42v312h131zM164 557h-60c0 65 22 118 71 118c24 0 41 -10 57 -18c13 -8 24 -16 37 -16
s21 5 22 37h58c0 -80 -28 -114 -70 -114c-20 0 -39 9 -53 16c-17 8 -25 17 -39 17c-13 0 -23 -14 -23 -40z" />
    <glyph glyph-name="wacute" unicode="&#x1e83;" horiz-adv-x="616" 
d="M5 489h140l26 -211c7 -53 13 -102 17 -148h3c8 46 18 100 27 146l43 213h101l42 -208c10 -55 19 -103 25 -151h3c3 46 9 97 17 150l30 209h129l-126 -489h-111l-37 171c-10 45 -19 97 -25 153h-2c-6 -57 -17 -108 -28 -154l-42 -170h-112zM333 689h114l-101 -140h-82z
" />
    <glyph glyph-name="wcircumflex" unicode="&#x175;" horiz-adv-x="616" 
d="M5 489h140l26 -211c7 -53 13 -102 17 -148h3c8 46 18 100 27 146l43 213h101l42 -208c10 -55 19 -103 25 -151h3c3 46 9 97 17 150l30 209h129l-126 -489h-111l-37 171c-10 45 -19 97 -25 153h-2c-6 -57 -17 -108 -28 -154l-42 -170h-112zM263 689h91l86 -140h-90l-40 80
h-2l-40 -80h-91z" />
    <glyph glyph-name="wdieresis" unicode="&#x1e85;" horiz-adv-x="616" 
d="M5 489h140l26 -211c7 -53 13 -102 17 -148h3c8 46 18 100 27 146l43 213h101l42 -208c10 -55 19 -103 25 -151h3c3 46 9 97 17 150l30 209h129l-126 -489h-111l-37 171c-10 45 -19 97 -25 153h-2c-6 -57 -17 -108 -28 -154l-42 -170h-112zM219 560c-33 0 -60 27 -60 64
s27 64 60 64c34 0 60 -26 60 -64c0 -37 -25 -64 -60 -64zM397 560c-34 0 -61 27 -61 64s28 64 61 64s59 -26 59 -64c0 -37 -25 -64 -59 -64z" />
    <glyph glyph-name="wgrave" unicode="&#x1e81;" horiz-adv-x="616" 
d="M5 489h140l26 -211c7 -53 13 -102 17 -148h3c8 46 18 100 27 146l43 213h101l42 -208c10 -55 19 -103 25 -151h3c3 46 9 97 17 150l30 209h129l-126 -489h-111l-37 171c-10 45 -19 97 -25 153h-2c-6 -57 -17 -108 -28 -154l-42 -170h-112zM185 689h115l69 -140h-83z" />
    <glyph glyph-name="ycircumflex" unicode="&#x177;" horiz-adv-x="391" 
d="M5 489h141l48 -254c5 -29 9 -56 13 -82h2c4 25 8 53 12 80l41 256h128l-100 -377c-24 -92 -56 -187 -109 -250c-41 -48 -91 -71 -111 -77l-40 113c23 8 45 23 65 41c18 17 32 37 41 58c4 9 7 14 7 21c0 6 -2 12 -4 18zM153 689h91l86 -140h-90l-40 80h-2l-40 -80h-91z
" />
    <glyph glyph-name="ygrave" unicode="&#x1ef3;" horiz-adv-x="391" 
d="M5 489h141l48 -254c5 -29 9 -56 13 -82h2c4 25 8 53 12 80l41 256h128l-100 -377c-24 -92 -56 -187 -109 -250c-41 -48 -91 -71 -111 -77l-40 113c23 8 45 23 65 41c18 17 32 37 41 58c4 9 7 14 7 21c0 6 -2 12 -4 18zM74 689h114l69 -140h-82z" />
    <glyph glyph-name="uni0233" unicode="&#x233;" horiz-adv-x="391" 
d="M5 489h141l48 -254c5 -29 9 -56 13 -82h2c4 25 8 53 12 80l41 256h128l-100 -377c-24 -92 -56 -187 -109 -250c-41 -48 -91 -71 -111 -77l-40 113c23 8 45 23 65 41c18 17 32 37 41 58c4 9 7 14 7 21c0 6 -2 12 -4 18zM89 656h213v-74h-213v74z" />
    <glyph glyph-name="zacute" unicode="&#x17a;" horiz-adv-x="351" 
d="M18 0v82l120 218c16 28 37 60 46 79v3h-151v107h294v-89l-117 -210c-17 -29 -36 -60 -47 -80v-3h168v-107h-313zM202 689h114l-101 -140h-82z" />
    <glyph glyph-name="zdotaccent" unicode="&#x17c;" horiz-adv-x="351" 
d="M18 0v82l120 218c16 28 37 60 46 79v3h-151v107h294v-89l-117 -210c-17 -29 -36 -60 -47 -80v-3h168v-107h-313zM176 560c-33 0 -60 27 -60 64s28 64 60 64c34 0 60 -26 60 -64c0 -37 -25 -64 -60 -64z" />
    <glyph glyph-name="aeacute" unicode="&#x1fd;" horiz-adv-x="633" 
d="M601 214h-232c0 -92 49 -124 107 -124c37 0 66 8 90 20l18 -91c-42 -21 -88 -27 -131 -27c-66 0 -127 28 -154 85h-3c-33 -56 -79 -85 -142 -85c-78 0 -135 64 -135 154c0 120 112 169 221 170v15c0 38 -26 69 -76 69c-32 0 -69 -13 -90 -27l-24 87c37 23 90 37 139 37
c59 0 106 -27 126 -77h2c30 53 78 77 133 77c94 0 155 -85 155 -231c0 -19 -2 -35 -4 -52zM242 160v74c-44 0 -106 -14 -106 -83c0 -43 27 -61 50 -61c22 0 44 15 52 43c3 8 4 17 4 27zM369 299h116c1 55 -14 107 -53 107c-43 0 -62 -64 -63 -107zM343 689h114l-100 -140
h-83z" />
    <glyph glyph-name="space_uni0326" unicode="&#xf6c3;" 
d="M86 -224l-20 58c25 7 58 24 58 51c0 25 -19 49 -32 61l95 13c17 -11 37 -36 37 -73c0 -70 -63 -104 -138 -110z" />
    <glyph glyph-name="acute.cap" unicode="&#xf6c9;" 
d="M178 823h133l-122 -113h-93z" />
    <glyph glyph-name="breve.cap" unicode="&#xefee;" 
d="M28 835h71c1 -26 19 -44 50 -44s49 17 51 44h70c0 -70 -40 -116 -120 -116c-81 0 -122 45 -122 116z" />
    <glyph glyph-name="caron.cap" unicode="&#xf6ca;" 
d="M202 710h-102l-84 110h95l39 -53h2l39 53h92z" />
    <glyph glyph-name="cedilla.cap" unicode="&#xeff2;" 
d="M134 13h70l-28 -57c35 -6 67 -33 67 -73c0 -64 -54 -87 -111 -87c-27 0 -56 8 -75 18l19 56c16 -8 36 -14 53 -14c15 0 31 7 31 25c0 20 -24 33 -68 37z" />
    <glyph glyph-name="circumflex.cap" unicode="&#xeff7;" 
d="M97 820h103l84 -110h-96l-39 51h-2l-38 -51h-93z" />
    <glyph glyph-name="space_uni0326.cap" unicode="&#xf634;" 
d="M86 -224l-20 58c25 7 58 24 58 51c0 25 -19 49 -32 61l95 13c17 -11 37 -36 37 -73c0 -70 -63 -104 -138 -110z" />
    <glyph glyph-name="dieresis.cap" unicode="&#xf6cb;" 
d="M57 714c-32 0 -59 28 -59 64s28 64 59 64c32 0 59 -28 59 -64s-27 -64 -59 -64zM241 714c-32 0 -59 28 -59 64s28 64 59 64c33 0 59 -28 59 -64s-26 -64 -59 -64z" />
    <glyph glyph-name="dotaccent.cap" unicode="&#xefed;" 
d="M150 715c-34 0 -62 29 -62 64s29 64 62 64c35 0 63 -29 63 -64s-28 -64 -63 -64z" />
    <glyph glyph-name="grave.cap" unicode="&#xf6ce;" 
d="M11 823h133l82 -113h-93z" />
    <glyph glyph-name="hungarumlaut.cap" unicode="&#xf6cf;" 
d="M96 823h109l-93 -110h-72zM243 823h108l-92 -110h-73z" />
    <glyph glyph-name="macron.cap" unicode="&#xf6d0;" 
d="M33 815h235v-79h-235v79z" />
    <glyph glyph-name="ogonek.cap" unicode="&#xeff1;" 
d="M94 5h80c-14 -25 -26 -58 -26 -83s18 -43 40 -43c17 0 29 3 39 7l16 -67c-29 -20 -62 -24 -88 -24c-65 0 -98 38 -98 95c0 49 26 96 37 115z" />
    <glyph glyph-name="ring.cap" unicode="&#xeff3;" horiz-adv-x="400" 
d="M202 880c75 0 105 -44 105 -92s-33 -93 -105 -93c-75 0 -106 45 -106 90c0 48 34 95 106 95zM201 832c-28 0 -38 -25 -38 -46c0 -20 10 -43 38 -43s38 21 38 45c0 21 -11 44 -38 44z" />
    <glyph glyph-name="tilde.cap" unicode="&#xeff5;" 
d="M90 718h-59c-2 75 26 115 66 115c23 0 39 -8 53 -17s26 -17 37 -17c15 0 21 9 24 38h58c3 -84 -23 -115 -69 -115c-22 0 -40 8 -54 16c-13 9 -23 15 -34 15s-19 -11 -22 -35z" />
    <glyph glyph-name="Alpha" unicode="&#x391;" horiz-adv-x="458" 
d="M286 154h-121l-30 -154h-127l146 674h157l131 -674h-127zM178 256h96l-22 141c-7 41 -16 108 -22 153h-3c-7 -45 -17 -115 -24 -154z" />
    <glyph glyph-name="Beta" unicode="&#x392;" horiz-adv-x="483" 
d="M58 2v662c40 9 92 13 149 13c63 0 124 -8 171 -48c36 -30 51 -75 51 -122c0 -60 -31 -118 -98 -147v-4c78 -22 120 -87 120 -161c0 -56 -18 -99 -50 -132c-40 -44 -108 -68 -221 -68c-50 0 -92 3 -122 7zM189 575v-178h28c47 0 83 40 83 95c0 49 -23 87 -77 87
c-14 0 -26 -1 -34 -4zM189 300v-202c8 -2 17 -2 29 -2c53 0 97 32 97 101c0 67 -46 102 -98 103h-28z" />
    <glyph glyph-name="Gamma" unicode="&#x393;" horiz-adv-x="361" 
d="M58 674h296v-111h-165v-563h-131v674z" />
    <glyph glyph-name="uni0394" unicode="&#x394;" horiz-adv-x="468" 
d="M11 0v65l146 609h157l135 -605v-69h-438zM141 116h177l-50 234c-11 57 -28 155 -34 200h-3c-7 -45 -23 -134 -36 -193z" />
    <glyph glyph-name="Epsilon" unicode="&#x395;" horiz-adv-x="394" 
d="M343 405v-109h-154v-182h174v-114h-305v674h293v-114h-162v-155h154z" />
    <glyph glyph-name="Zeta" unicode="&#x396;" horiz-adv-x="387" 
d="M11 0v77l213 480v3h-193v114h341v-97l-204 -460v-3h203v-114h-360z" />
    <glyph glyph-name="Eta" unicode="&#x397;" horiz-adv-x="515" 
d="M58 674h131v-270h137v270h131v-674h-131v282h-137v-282h-131v674z" />
    <glyph glyph-name="Theta" unicode="&#x398;" horiz-adv-x="489" 
d="M243 -8c-155 0 -218 162 -218 347c0 184 75 343 226 343c164 0 213 -179 213 -333c0 -254 -93 -357 -221 -357zM246 104c60 0 84 100 84 239c0 121 -22 227 -84 227c-61 0 -87 -106 -87 -230c0 -136 26 -236 87 -236zM188 403h112v-122h-112v122z" />
    <glyph glyph-name="Iota" unicode="&#x399;" horiz-adv-x="248" 
d="M58 674h131v-674h-131v674z" />
    <glyph glyph-name="Kappa" unicode="&#x39a;" horiz-adv-x="459" 
d="M58 0v674h131v-303h2c11 28 22 58 33 87l90 216h144l-151 -293l153 -381h-143l-98 279l-30 -55v-224h-131z" />
    <glyph glyph-name="Lambda" unicode="&#x39b;" horiz-adv-x="454" 
d="M446 0h-136l-54 318c-11 67 -22 137 -31 208h-2c-8 -72 -18 -142 -28 -211l-53 -315h-135l147 674h148z" />
    <glyph glyph-name="Mu" unicode="&#x39c;" horiz-adv-x="637" 
d="M482 0l-12 236c-3 64 -8 151 -6 223h-3c-12 -72 -30 -155 -43 -207l-58 -241h-93l-56 237c-13 54 -31 138 -41 211h-3c-2 -73 -6 -158 -10 -225l-11 -234h-113l49 674h138l54 -244c19 -85 36 -160 48 -236h2c10 75 25 151 43 236l53 244h138l41 -674h-117z" />
    <glyph glyph-name="Nu" unicode="&#x39d;" horiz-adv-x="516" 
d="M173 0h-115v674h120l104 -264c20 -52 53 -139 72 -197h2c-4 71 -13 188 -13 312v149h115v-674h-120l-103 256c-22 57 -53 142 -68 203h-2c3 -68 8 -172 8 -307v-152z" />
    <glyph glyph-name="Xi" unicode="&#x39e;" horiz-adv-x="418" 
d="M39 674h339v-114h-339v114zM56 400h303v-112h-303v112zM33 114h351v-114h-351v114z" />
    <glyph glyph-name="Omicron" unicode="&#x39f;" horiz-adv-x="481" 
d="M247 682c163 0 209 -179 209 -333c0 -254 -90 -357 -218 -357c-153 0 -213 162 -213 347c0 184 73 343 222 343zM242 568c-52 0 -81 -86 -81 -231c0 -153 29 -231 82 -231c55 0 76 100 76 237c0 118 -18 225 -77 225z" />
    <glyph glyph-name="Pi" unicode="&#x3a0;" horiz-adv-x="512" 
d="M454 674v-674h-132v552h-133v-552h-131v674h396z" />
    <glyph glyph-name="Rho" unicode="&#x3a1;" horiz-adv-x="457" 
d="M58 0v664c37 8 87 13 137 13c78 0 139 -11 183 -52c40 -35 58 -91 58 -148c0 -73 -22 -124 -57 -162c-42 -44 -110 -64 -164 -64h-26v-251h-131zM189 566v-208c6 -2 13 -2 21 -2c66 0 96 47 96 110c0 59 -24 105 -85 105c-12 0 -24 -2 -32 -5z" />
    <glyph glyph-name="Sigma" unicode="&#x3a3;" horiz-adv-x="419" 
d="M163 117v-3h230v-114h-378v80l144 260l-141 252v82h359v-113h-201v-4l114 -210z" />
    <glyph glyph-name="Tau" unicode="&#x3a4;" horiz-adv-x="393" 
d="M131 0v553h-119v121h370v-121h-120v-553h-131z" />
    <glyph glyph-name="Upsilon" unicode="&#x3a5;" horiz-adv-x="462" 
d="M1 564l25 116c16 0 67 -15 104 -47c58 -52 94 -144 102 -253h6c10 102 50 184 97 236c36 39 91 63 102 64l26 -120c-82 -32 -142 -163 -160 -293c-6 -45 -10 -81 -10 -119v-148h-131v148c0 43 -2 72 -5 116c-13 141 -62 271 -156 300z" />
    <glyph glyph-name="Phi" unicode="&#x3a6;" horiz-adv-x="584" 
d="M349 31v-53h-116v53c-120 22 -213 122 -213 308c0 192 110 288 214 308v49h115v-49c122 -20 214 -125 214 -301c0 -185 -90 -294 -214 -315zM234 130v418c-39 -14 -83 -82 -83 -211c0 -120 42 -193 83 -207zM348 548v-418c44 14 84 84 84 211c0 134 -46 196 -84 207z" />
    <glyph glyph-name="Chi" unicode="&#x3a7;" horiz-adv-x="407" 
d="M411 0h-135l-43 124c-13 39 -24 77 -36 120h-2c-11 -43 -22 -84 -32 -122l-36 -122h-130l126 345l-121 329h137l39 -125c11 -35 20 -70 31 -108h2c11 41 19 73 28 110l34 123h131l-126 -335z" />
    <glyph glyph-name="Psi" unicode="&#x3a8;" horiz-adv-x="574" 
d="M542 674v-167c0 -204 -79 -293 -197 -312v-195h-116v195c-120 19 -197 86 -197 268v211h119v-210c0 -113 23 -158 80 -167v377h112v-377c55 7 79 69 79 209v168h120z" />
    <glyph glyph-name="uni03A9" unicode="&#x3a9;" horiz-adv-x="532" 
d="M240 0h-213v107h92v3c-41 64 -80 158 -80 269c0 167 88 303 234 303c160 0 219 -156 219 -294c0 -113 -39 -216 -80 -278v-3h93v-107h-213v81c29 40 65 139 65 277c-1 109 -28 210 -90 210c-59 0 -92 -94 -92 -213c0 -126 38 -235 65 -274v-81z" />
    <glyph glyph-name="Alphatonos" unicode="&#x386;" horiz-adv-x="482" 
d="M310 154h-122l-29 -154h-127l146 674h157l131 -674h-128zM202 256h96l-23 141c-6 41 -15 108 -22 153h-2c-7 -45 -17 -115 -24 -154zM13 674h101l-34 -166h-67v166z" />
    <glyph glyph-name="Epsilontonos" unicode="&#x388;" horiz-adv-x="476" 
d="M425 405v-109h-154v-182h174v-114h-305v674h293v-114h-162v-155h154zM1 674h101l-34 -166h-67v166z" />
    <glyph glyph-name="Etatonos" unicode="&#x389;" horiz-adv-x="598" 
d="M141 674h131v-270h137v270h131v-674h-131v282h-137v-282h-131v674zM1 674h101l-34 -166h-67v166z" />
    <glyph glyph-name="Iotatonos" unicode="&#x38a;" horiz-adv-x="330" 
d="M140 674h131v-674h-131v674zM1 674h101l-34 -166h-67v166z" />
    <glyph glyph-name="Iotadieresis" unicode="&#x3aa;" horiz-adv-x="248" 
d="M58 674h131v-674h-131v674zM31 710c-32 0 -59 28 -59 64s28 63 59 63c33 0 59 -27 59 -63s-26 -64 -59 -64zM216 710c-33 0 -60 28 -60 64s28 63 60 63s59 -27 59 -63s-27 -64 -59 -64z" />
    <glyph glyph-name="Omicrontonos" unicode="&#x38c;" horiz-adv-x="547" 
d="M313 682c163 0 209 -179 209 -333c0 -254 -90 -357 -218 -357c-153 0 -213 162 -213 347c0 184 73 343 222 343zM308 568c-52 0 -80 -86 -80 -231c0 -153 28 -231 81 -231c56 0 76 100 76 237c0 118 -18 225 -77 225zM1 674h101l-34 -166h-67v166z" />
    <glyph glyph-name="Upsilontonos" unicode="&#x38e;" horiz-adv-x="586" 
d="M125 564l25 116c16 0 67 -15 104 -47c58 -52 94 -144 102 -253h6c10 102 50 184 97 236c35 39 91 63 102 64l26 -120c-82 -32 -142 -163 -160 -293c-6 -45 -10 -81 -10 -119v-148h-131v148c0 43 -2 72 -5 116c-13 141 -62 271 -156 300zM1 674h101l-34 -166h-67v166z" />
    <glyph glyph-name="Upsilondieresis" unicode="&#x3ab;" horiz-adv-x="462" 
d="M1 564l25 116c16 0 67 -15 104 -47c58 -52 94 -144 102 -253h6c10 102 50 184 97 236c36 39 91 63 102 64l26 -120c-82 -32 -142 -163 -160 -293c-6 -45 -10 -81 -10 -119v-148h-131v148c0 43 -2 72 -5 116c-13 141 -62 271 -156 300zM146 692c-32 0 -59 28 -59 64
s28 63 59 63c32 0 59 -27 59 -63s-27 -64 -59 -64zM330 692c-32 0 -60 28 -60 64s28 63 60 63c33 0 59 -27 59 -63s-26 -64 -59 -64z" />
    <glyph glyph-name="Omegatonos" unicode="&#x38f;" horiz-adv-x="586" 
d="M294 0h-213v107h92v3c-41 64 -80 158 -80 269c0 167 88 303 234 303c160 0 220 -156 220 -294c0 -113 -39 -216 -81 -278v-3h94v-107h-214v81c29 40 65 139 65 277c0 109 -28 210 -89 210c-60 0 -93 -94 -93 -213c0 -126 38 -235 65 -274v-81zM1 674h101l-34 -166h-67
v166z" />
    <glyph glyph-name="alpha" unicode="&#x3b1;" horiz-adv-x="446" 
d="M308 489h98c-5 -35 -13 -220 -13 -346c0 -41 10 -53 38 -54l-12 -92c-10 -4 -24 -5 -32 -5c-46 0 -76 21 -87 74h-4c-16 -39 -54 -74 -108 -74c-107 0 -159 113 -159 236c0 175 87 269 171 269c43 0 75 -22 90 -64h4c4 18 10 40 14 56zM159 242c0 -87 23 -143 56 -143
c21 0 41 22 48 68c3 25 4 47 4 77c0 32 0 49 -2 69c-4 50 -21 78 -45 78c-38 0 -61 -72 -61 -149z" />
    <glyph glyph-name="beta" unicode="&#x3b2;" horiz-adv-x="454" 
d="M175 25h-2v-42c0 -71 5 -144 13 -175h-122c-11 25 -20 81 -20 176v438c0 134 17 185 59 229c30 31 70 49 124 49c108 0 164 -80 164 -181c0 -71 -34 -122 -71 -144v-5c55 -18 106 -82 106 -178c0 -118 -65 -200 -162 -200c-32 0 -66 10 -89 33zM173 456v-323
c15 -25 36 -34 58 -34c38 0 66 40 66 104c0 59 -34 102 -72 109c-7 2 -13 2 -18 2v94c4 0 8 1 12 2c32 10 52 47 52 103c0 38 -14 80 -47 80c-35 0 -51 -42 -51 -137z" />
    <glyph glyph-name="gamma" unicode="&#x3b3;" horiz-adv-x="402" 
d="M254 -192h-128c1 158 -1 227 -24 327c-35 156 -84 283 -112 354h138c23 -61 61 -195 79 -346h3c24 78 49 196 49 295c0 19 -1 35 -1 51h119c2 -10 3 -23 3 -40c0 -108 -41 -261 -124 -422c-3 -6 -6 -10 -6 -18c2 -65 3 -133 4 -201z" />
    <glyph glyph-name="delta" unicode="&#x3b4;" horiz-adv-x="439" 
d="M383 662l-28 -85c-18 10 -51 25 -86 25c-29 0 -40 -13 -40 -27c0 -15 19 -37 43 -66l57 -68c44 -53 82 -121 82 -205c0 -171 -104 -244 -194 -244c-114 0 -188 97 -188 236c0 116 67 195 125 230v4l-13 17c-16 22 -45 63 -45 103c0 61 53 118 151 118
c68 0 113 -20 136 -38zM239 359l-23 28c-36 -32 -56 -81 -56 -162c0 -86 31 -133 61 -133c43 0 60 65 60 130c0 54 -12 100 -42 137z" />
    <glyph glyph-name="epsilon" unicode="&#x3b5;" horiz-adv-x="369" 
d="M337 116l12 -95c-35 -20 -88 -29 -140 -29c-96 0 -181 43 -181 147c0 62 53 109 100 118v5c-45 11 -79 51 -79 102c0 68 55 133 182 133c42 0 84 -9 106 -24l-20 -90c-19 9 -45 15 -75 15c-43 0 -69 -21 -69 -49c0 -38 52 -49 102 -49h16v-89h-20
c-57 -2 -108 -17 -108 -61c0 -36 37 -56 77 -56c42 0 84 13 97 22z" />
    <glyph glyph-name="zeta" unicode="&#x3b6;" horiz-adv-x="349" 
d="M283 -139l-86 26c17 34 25 67 27 92c-32 8 -65 19 -92 35c-55 31 -103 95 -103 198c0 133 74 277 170 378v4h-31c-32 0 -71 3 -96 11l11 91c29 -2 77 -3 124 -4h128l18 -90c-92 -56 -193 -224 -193 -357c0 -85 29 -130 81 -153c29 -13 65 -21 97 -27c5 -1 8 -7 8 -12
c0 -88 -41 -164 -63 -192z" />
    <glyph glyph-name="eta" unicode="&#x3b7;" horiz-adv-x="458" 
d="M177 0h-131v342c0 60 -6 121 -15 147h115c6 -12 13 -35 15 -56h2c26 39 68 64 119 64c93 0 130 -74 130 -183v-331c0 -71 5 -144 9 -175h-120c-14 25 -20 81 -20 176v322c0 42 -10 81 -48 81c-22 0 -40 -15 -49 -44c-4 -10 -7 -26 -7 -45v-298z" />
    <glyph glyph-name="theta" unicode="&#x3b8;" horiz-adv-x="431" 
d="M216 -8c-110 0 -187 93 -187 360c0 263 100 348 189 348c108 0 184 -100 184 -348c0 -294 -93 -360 -186 -360zM154 405h122c0 141 -27 199 -61 199c-31 0 -61 -58 -61 -199zM277 301h-123c0 -153 28 -213 62 -213c38 0 61 61 61 213z" />
    <glyph glyph-name="iota" unicode="&#x3b9;" horiz-adv-x="233" 
d="M177 489v-349c0 -41 14 -51 40 -50l-9 -92c-14 -4 -33 -6 -49 -6c-55 0 -113 17 -113 137v360h131z" />
    <glyph glyph-name="kappa" unicode="&#x3ba;" horiz-adv-x="429" 
d="M176 0h-130v367c0 53 -2 96 -8 122h127c7 -11 11 -35 11 -83v-125h4c27 51 82 167 103 208h138v-4c-40 -66 -86 -138 -138 -219v-3c44 -20 70 -100 94 -163l40 -100h-144l-33 104c-21 62 -35 100 -56 100h-8v-204z" />
    <glyph glyph-name="lambda" unicode="&#x3bb;" horiz-adv-x="389" 
d="M256 0l-45 211c-5 24 -10 51 -19 98h-4c-4 -32 -8 -63 -15 -97l-39 -212h-131l126 455c1 6 2 12 2 18c0 7 -9 32 -12 41c-19 57 -51 76 -77 76c-4 0 -8 0 -13 -1l10 108c9 1 24 3 33 3c112 0 153 -110 188 -237l126 -463h-130z" />
    <glyph glyph-name="uni03BC" unicode="&#x3bc;" horiz-adv-x="455" 
d="M303 49h-3c-12 -26 -41 -50 -75 -50c-21 0 -40 6 -54 23v-39c0 -71 5 -144 11 -175h-121c-9 25 -16 89 -16 192v489h132v-309c0 -55 16 -83 46 -83c25 0 39 19 46 36c4 9 7 27 7 44v312h131v-347c0 -41 8 -53 34 -53l-12 -91c-9 -4 -24 -6 -40 -6c-46 0 -70 21 -86 57z
" />
    <glyph glyph-name="nu" unicode="&#x3bd;" horiz-adv-x="389" 
d="M-1 489h135l37 -218c8 -44 14 -87 21 -135h4c22 78 51 220 52 320v33h117c2 -12 3 -25 3 -37c0 -120 -67 -310 -132 -452h-119z" />
    <glyph glyph-name="xi" unicode="&#x3be;" horiz-adv-x="369" 
d="M316 420v-99h-15c-83 -1 -140 -39 -140 -117c0 -61 41 -93 88 -111c28 -11 54 -18 102 -29c10 -1 14 -5 14 -12c0 -82 -44 -162 -64 -190l-88 26c16 34 25 68 27 92c-101 24 -211 72 -211 212c0 99 62 161 130 184v6c-56 23 -92 76 -92 140c0 102 73 178 195 178
c40 0 71 -8 94 -19l-14 -95c-16 7 -36 13 -64 13c-57 0 -83 -47 -83 -82c0 -67 53 -92 105 -96c5 -1 11 -1 16 -1z" />
    <glyph glyph-name="omicron" unicode="&#x3bf;" horiz-adv-x="431" 
d="M218 497c115 0 185 -97 185 -251c0 -204 -113 -254 -187 -254c-117 0 -187 92 -187 251c0 176 92 254 189 254zM217 398c-48 0 -58 -85 -58 -152c0 -84 13 -154 60 -154c42 0 53 82 53 154c0 67 -11 152 -55 152z" />
    <glyph glyph-name="rho" unicode="&#x3c1;" horiz-adv-x="443" 
d="M183 -192h-123c-10 25 -17 81 -18 176v243c0 130 34 192 76 228c31 28 72 42 111 42c133 0 186 -117 186 -250c0 -176 -80 -255 -164 -255c-34 0 -62 19 -76 41h-2v-50c0 -71 6 -144 10 -175zM173 249v-79c0 -14 2 -28 7 -38c9 -25 25 -33 40 -33c45 0 64 70 64 146
c0 90 -22 140 -57 140c-32 0 -54 -34 -54 -136z" />
    <glyph glyph-name="sigma" unicode="&#x3c3;" horiz-adv-x="438" 
d="M430 497l-5 -96c-17 -1 -49 1 -85 8v-3c37 -32 60 -102 60 -160c0 -200 -112 -254 -185 -254c-117 0 -186 92 -186 251c0 176 92 254 193 254h208zM218 92c42 0 53 82 53 154c0 67 -14 152 -54 152c-48 0 -58 -85 -58 -152c0 -84 13 -154 59 -154z" />
    <glyph glyph-name="tau" unicode="&#x3c4;" horiz-adv-x="358" 
d="M292 93l-3 -94c-13 -4 -30 -7 -56 -7c-97 0 -126 65 -126 159v233h-31c-28 0 -48 -3 -62 -5l-18 84c9 7 47 26 125 26h229l-10 -105h-101v-222c0 -51 15 -69 38 -69h15z" />
    <glyph glyph-name="upsilon" unicode="&#x3c5;" horiz-adv-x="433" 
d="M254 489h121c14 -38 27 -104 27 -176c0 -163 -40 -321 -195 -321c-99 0 -165 63 -165 177v178c0 56 -1 109 -7 142h128c7 -14 9 -51 9 -100v-219c0 -42 19 -68 45 -68c47 0 57 88 57 184c0 90 -11 172 -20 203z" />
    <glyph glyph-name="phi" unicode="&#x3c6;" horiz-adv-x="577" 
d="M152 495l66 -59c-34 -41 -61 -100 -61 -181c0 -85 29 -147 74 -169v247c0 122 66 164 128 164c97 0 190 -92 190 -242c0 -166 -112 -248 -199 -261v-186h-119v186c-79 12 -202 75 -202 253c0 154 92 232 123 248zM348 366v-282c46 13 74 80 74 170c0 94 -32 146 -53 146
c-12 0 -21 -10 -21 -34z" />
    <glyph glyph-name="chi" unicode="&#x3c7;" horiz-adv-x="393" 
d="M5 489h131l72 -224h4c8 33 12 58 22 92l37 132h121l-125 -334l119 -341l-121 -26l-78 247h-3c-7 -28 -16 -67 -26 -106l-41 -141l-116 24l127 345z" />
    <glyph glyph-name="psi" unicode="&#x3c8;" horiz-adv-x="574" 
d="M230 -192v184c-90 14 -189 57 -189 234v134c0 50 -1 97 -6 129h114c6 -14 9 -51 9 -100v-155c0 -106 33 -141 73 -149v507h117v-507c53 3 77 96 77 219c0 83 -11 158 -21 185h109c16 -36 30 -101 30 -172c0 -169 -39 -309 -193 -325v-184h-120z" />
    <glyph glyph-name="omega" unicode="&#x3c9;" horiz-adv-x="595" 
d="M357 354l-3 -187c0 -33 11 -66 34 -66c26 0 50 49 50 154c0 92 -23 177 -63 232v2h118c35 -36 73 -127 73 -237c0 -160 -67 -260 -164 -260c-52 0 -87 32 -102 69h-3c-18 -37 -55 -69 -108 -69c-85 0 -160 84 -160 250c0 120 41 210 77 247h114v-2
c-39 -53 -66 -138 -66 -240c0 -100 23 -146 48 -146s36 38 35 67l-3 186h123z" />
    <glyph glyph-name="uni03C2" unicode="&#x3c2;" horiz-adv-x="353" 
d="M341 483l-19 -103c-16 4 -33 7 -47 7c-74 0 -115 -70 -115 -154c0 -65 21 -114 86 -140c23 -9 47 -17 86 -27c4 -1 6 -5 6 -10c0 -92 -40 -168 -61 -196l-89 27c18 34 26 67 28 92c-23 8 -49 15 -72 27c-57 29 -115 100 -115 220c0 144 89 271 242 271c30 0 56 -6 70 -14
z" />
    <glyph glyph-name="alphatonos" unicode="&#x3ac;" horiz-adv-x="446" 
d="M308 489h98c-5 -35 -13 -220 -13 -346c0 -41 10 -53 38 -54l-12 -92c-10 -4 -24 -5 -32 -5c-46 0 -76 21 -87 74h-4c-16 -39 -54 -74 -108 -74c-107 0 -159 113 -159 236c0 175 87 269 171 269c43 0 75 -22 90 -64h4c4 18 10 40 14 56zM159 242c0 -87 23 -143 56 -143
c21 0 41 22 48 68c3 25 4 47 4 77c0 32 0 49 -2 69c-4 50 -21 78 -45 78c-38 0 -61 -72 -61 -149zM216 687h113l-62 -140h-82z" />
    <glyph glyph-name="epsilontonos" unicode="&#x3ad;" horiz-adv-x="369" 
d="M337 116l12 -95c-35 -20 -88 -29 -140 -29c-96 0 -181 43 -181 147c0 62 53 109 100 118v5c-45 11 -79 51 -79 102c0 68 55 133 182 133c42 0 84 -9 106 -24l-20 -90c-19 9 -45 15 -75 15c-43 0 -69 -21 -69 -49c0 -38 52 -49 102 -49h16v-89h-20
c-57 -2 -108 -17 -108 -61c0 -36 37 -56 77 -56c42 0 84 13 97 22zM187 687h113l-61 -140h-83z" />
    <glyph glyph-name="etatonos" unicode="&#x3ae;" horiz-adv-x="458" 
d="M177 0h-131v342c0 60 -6 121 -15 147h115c6 -12 13 -35 15 -56h2c26 39 68 64 119 64c93 0 130 -74 130 -183v-331c0 -71 5 -144 9 -175h-120c-14 25 -20 81 -20 176v322c0 42 -10 81 -48 81c-22 0 -40 -15 -49 -44c-4 -10 -7 -26 -7 -45v-298zM215 687h113l-62 -140h-82
z" />
    <glyph glyph-name="iotatonos" unicode="&#x3af;" horiz-adv-x="233" 
d="M177 489v-349c0 -41 14 -51 40 -50l-9 -92c-14 -4 -33 -6 -49 -6c-55 0 -113 17 -113 137v360h131zM101 691h112l-61 -140h-82z" />
    <glyph glyph-name="iotadieresis" unicode="&#x3ca;" horiz-adv-x="233" 
d="M177 489v-349c0 -41 14 -51 40 -50l-9 -92c-14 -4 -33 -6 -49 -6c-55 0 -113 17 -113 137v360h131zM24 557c-34 0 -61 27 -61 64s28 64 61 64s59 -26 59 -64c0 -37 -25 -64 -59 -64zM201 557c-33 0 -60 27 -60 64s27 64 60 64c34 0 60 -26 60 -64c0 -37 -25 -64 -60 -64z
" />
    <glyph glyph-name="omicrontonos" unicode="&#x3cc;" horiz-adv-x="431" 
d="M218 497c115 0 185 -97 185 -251c0 -204 -113 -254 -187 -254c-117 0 -187 92 -187 251c0 176 92 254 189 254zM217 398c-48 0 -58 -85 -58 -152c0 -84 13 -154 60 -154c42 0 53 82 53 154c0 67 -11 152 -55 152zM206 687h112l-61 -140h-82z" />
    <glyph glyph-name="upsilontonos" unicode="&#x3cd;" horiz-adv-x="433" 
d="M254 489h121c14 -38 27 -104 27 -176c0 -163 -40 -321 -195 -321c-99 0 -165 63 -165 177v178c0 56 -1 109 -7 142h128c7 -14 9 -51 9 -100v-219c0 -42 19 -68 45 -68c47 0 57 88 57 184c0 90 -11 172 -20 203zM203 691h113l-61 -140h-83z" />
    <glyph glyph-name="upsilondieresis" unicode="&#x3cb;" horiz-adv-x="433" 
d="M254 489h121c14 -38 27 -104 27 -176c0 -163 -40 -321 -195 -321c-99 0 -165 63 -165 177v178c0 56 -1 109 -7 142h128c7 -14 9 -51 9 -100v-219c0 -42 19 -68 45 -68c47 0 57 88 57 184c0 90 -11 172 -20 203zM122 557c-33 0 -60 27 -60 64s27 64 60 64
c34 0 60 -26 60 -64c0 -37 -25 -64 -60 -64zM299 557c-33 0 -60 27 -60 64s28 64 60 64c34 0 60 -26 60 -64c0 -37 -25 -64 -60 -64z" />
    <glyph glyph-name="omegatonos" unicode="&#x3ce;" horiz-adv-x="595" 
d="M357 354l-3 -187c0 -33 11 -66 34 -66c26 0 50 49 50 154c0 92 -23 177 -63 232v2h118c35 -36 73 -127 73 -237c0 -160 -67 -260 -164 -260c-52 0 -87 32 -102 69h-3c-18 -37 -55 -69 -108 -69c-85 0 -160 84 -160 250c0 120 41 210 77 247h114v-2
c-39 -53 -66 -138 -66 -240c0 -100 23 -146 48 -146s36 38 35 67l-3 186h123zM285 687h113l-61 -140h-82z" />
    <glyph glyph-name="iotadieresistonos" unicode="&#x390;" horiz-adv-x="233" 
d="M177 489v-349c0 -41 14 -51 40 -50l-9 -92c-14 -4 -33 -6 -49 -6c-55 0 -113 17 -113 137v360h131zM85 711h101l-42 -161h-69zM-6 561c-29 0 -55 26 -55 59s26 58 55 58s54 -24 54 -58c0 -33 -24 -59 -54 -59zM250 561c-29 0 -55 26 -55 59s27 58 55 58
c30 0 55 -24 55 -58c0 -33 -24 -59 -55 -59z" />
    <glyph glyph-name="upsilondieresistonos" unicode="&#x3b0;" horiz-adv-x="433" 
d="M254 489h121c14 -38 27 -104 27 -176c0 -163 -40 -321 -195 -321c-99 0 -165 63 -165 177v178c0 56 -1 109 -7 142h128c7 -14 9 -51 9 -100v-219c0 -42 19 -68 45 -68c47 0 57 88 57 184c0 90 -11 172 -20 203zM176 707h100l-41 -161h-70zM85 557c-30 0 -56 26 -56 59
s27 58 56 58s54 -24 54 -58c0 -33 -24 -59 -54 -59zM341 557c-29 0 -55 26 -55 59s27 58 55 58c30 0 55 -24 55 -58c0 -33 -24 -59 -55 -59z" />
    <glyph glyph-name="uni037E" unicode="&#x37e;" horiz-adv-x="233" 
d="M91 -116l-80 -9c29 83 56 187 67 266l129 10c-30 -90 -72 -195 -116 -267zM129 320c-41 0 -73 34 -73 82c0 47 33 84 74 84c42 0 74 -33 74 -84c0 -48 -29 -82 -75 -82z" />
    <glyph glyph-name="anoteleia" unicode="&#x387;" horiz-adv-x="249" 
d="M124 221c-45 0 -83 37 -83 95c0 55 40 96 84 96c46 0 84 -37 84 -96c0 -58 -35 -95 -85 -95z" />
    <glyph glyph-name="tonos" unicode="&#x384;" horiz-adv-x="312" 
d="M116 689h113l-62 -140h-82z" />
    <glyph glyph-name="dieresistonos" unicode="&#x385;" horiz-adv-x="430" 
d="M172 712h100l-41 -161h-70zM81 562c-30 0 -56 26 -56 59s27 58 56 58s54 -24 54 -58c0 -33 -24 -59 -54 -59zM337 562c-29 0 -55 26 -55 59s27 58 55 58c30 0 55 -24 55 -58c0 -33 -25 -59 -55 -59z" />
    <glyph glyph-name="dieresis_acutecomb" unicode="&#xf6d7;" horiz-adv-x="301" 
d="M1 554c-32 0 -58 26 -58 63c0 36 27 62 59 62c33 0 58 -25 58 -62c0 -35 -23 -63 -59 -63zM297 554c-32 0 -58 26 -58 63c0 36 27 62 59 62c33 0 58 -25 58 -62c0 -35 -23 -63 -59 -63zM136 689h108l-101 -140h-76z" />
    <glyph glyph-name="dieresis_gravecomb" unicode="&#xf6d8;" horiz-adv-x="301" 
d="M1 554c-32 0 -58 26 -58 63c0 36 27 62 59 62c33 0 58 -25 58 -62c0 -35 -23 -63 -59 -63zM297 554c-32 0 -58 26 -58 63c0 36 27 62 59 62c33 0 58 -25 58 -62c0 -35 -23 -63 -59 -63zM59 689h108l69 -140h-77z" />
    <glyph glyph-name="space_uni030F" unicode="&#xf6d6;" 
d="M-28 685h94l74 -138h-64zM121 685h94l74 -138h-64z" />
    <glyph glyph-name="tonos.cap" unicode="&#xf6cc;" horiz-adv-x="301" 
d="M108 674h100l-34 -166h-67z" />
    <glyph glyph-name="dieresis_gravecomb.cap" unicode="&#xf6cd;" horiz-adv-x="301" 
d="M5 715c-28 0 -52 26 -52 58s25 58 53 58c29 0 54 -26 54 -58c0 -31 -23 -58 -55 -58zM294 715c-27 0 -52 26 -52 58s25 58 53 58c29 0 54 -26 54 -58c0 -31 -23 -58 -55 -58zM52 835h113l81 -125h-83z" />
    <glyph glyph-name="space_uni030F.cap" unicode="&#xf6d3;" 
d="M-68 834h120l91 -125h-80zM131 834h120l91 -125h-80z" />
    <glyph glyph-name="o.superior" horiz-adv-x="311" 
d="M155 588c80 0 122 -64 122 -163c0 -134 -70 -167 -123 -167c-78 0 -124 61 -124 164c0 113 59 166 125 166zM154 519c-34 0 -41 -63 -41 -96c0 -53 11 -96 41 -96c34 0 39 51 39 96c0 44 -7 96 -39 96z" />
    <glyph glyph-name="uni0401" unicode="&#x401;" horiz-adv-x="394" 
d="M343 405v-109h-154v-182h174v-114h-305v674h293v-114h-162v-155h154zM115 714c-32 0 -59 28 -59 64s28 64 59 64c32 0 59 -28 59 -64s-27 -64 -59 -64zM299 714c-32 0 -59 28 -59 64s27 64 59 64c33 0 59 -28 59 -64s-26 -64 -59 -64z" />
    <glyph glyph-name="uni0402" unicode="&#x402;" horiz-adv-x="538" 
d="M12 674h412v-121h-165v-131h2c20 10 48 19 76 19c71 0 122 -44 148 -105c25 -57 30 -107 30 -174c0 -73 -15 -145 -56 -202c-41 -58 -96 -90 -140 -99l-28 116c24 8 42 21 59 44c18 24 28 72 28 144c0 59 -7 95 -20 122c-13 26 -36 41 -61 41c-14 0 -26 -3 -38 -10v-318
h-131v553h-116v121z" />
    <glyph glyph-name="uni0403" unicode="&#x403;" horiz-adv-x="380" 
d="M58 674h311v-114h-180v-560h-131v674zM226 823h133l-122 -113h-93z" />
    <glyph glyph-name="uni0404" unicode="&#x404;" horiz-adv-x="403" 
d="M385 656l-22 -114c-13 11 -40 23 -72 23c-97 0 -128 -101 -132 -171h184v-115h-182c8 -81 37 -168 129 -168c25 0 64 9 83 18l17 -110c-20 -11 -61 -27 -116 -27c-148 0 -249 124 -249 338c0 163 66 352 255 352c59 0 85 -17 105 -26z" />
    <glyph glyph-name="uni0405" unicode="&#x405;" horiz-adv-x="394" 
d="M24 21l19 113c27 -15 73 -26 111 -26c62 0 92 32 92 76c0 49 -30 73 -87 110c-92 56 -127 127 -127 188c0 108 72 198 213 198c44 0 86 -12 106 -24l-21 -113c-19 12 -48 23 -86 23c-56 0 -83 -34 -83 -70c0 -40 20 -61 93 -105c89 -54 122 -122 122 -193
c0 -123 -91 -204 -223 -204c-54 0 -107 14 -129 27z" />
    <glyph glyph-name="uni0406" unicode="&#x406;" horiz-adv-x="248" 
d="M58 674h131v-674h-131v674z" />
    <glyph glyph-name="uni0407" unicode="&#x407;" horiz-adv-x="248" 
d="M58 674h131v-674h-131v674zM32 714c-32 0 -60 28 -60 64s28 64 60 64s59 -28 59 -64s-27 -64 -59 -64zM216 714c-33 0 -60 28 -60 64s28 64 60 64s59 -28 59 -64s-27 -64 -59 -64z" />
    <glyph glyph-name="uni0408" unicode="&#x408;" horiz-adv-x="296" 
d="M115 209v465h132v-459c0 -194 -94 -223 -190 -223c-27 0 -51 4 -66 10l11 110c13 -4 26 -5 43 -5c38 0 70 15 70 102z" />
    <glyph glyph-name="uni0409" unicode="&#x409;" horiz-adv-x="712" 
d="M82 674h342v-251c14 2 34 3 54 3c125 0 210 -82 210 -206c0 -65 -21 -116 -56 -153c-46 -48 -119 -72 -216 -72c-49 0 -91 3 -121 7v558h-92v-178c0 -155 -12 -292 -97 -358c-25 -20 -58 -32 -87 -32l-28 111c15 5 33 14 44 27c37 39 47 111 47 243v301zM425 318v-216
c10 -2 19 -2 29 -2c64 0 98 51 98 113s-35 108 -96 108c-11 0 -21 -1 -31 -3z" />
    <glyph glyph-name="uni040A" unicode="&#x40a;" horiz-adv-x="728" 
d="M58 674h131v-262h121v262h130v-252c15 2 34 3 53 3c125 0 210 -81 210 -205c0 -65 -20 -116 -56 -153c-45 -48 -118 -72 -215 -72c-50 0 -92 3 -122 7v294h-121v-296h-131v674zM441 317v-215c9 -2 18 -2 29 -2c65 0 98 51 98 112c0 64 -37 108 -97 108
c-11 0 -21 -1 -30 -3z" />
    <glyph glyph-name="uni040B" unicode="&#x40b;" horiz-adv-x="557" 
d="M12 674h394v-121h-152v-143h3c27 22 66 39 108 39c52 0 91 -21 112 -57c22 -36 31 -86 31 -144v-248h-130v249c0 30 -4 55 -19 71c-10 12 -25 19 -44 19c-25 0 -48 -11 -61 -23v-316h-132v553h-110v121z" />
    <glyph glyph-name="uni040C" unicode="&#x40c;" horiz-adv-x="454" 
d="M58 674h128v-293h10l110 293h144l-155 -312c69 -26 92 -89 111 -171c15 -65 26 -129 46 -191h-131c-16 48 -26 103 -37 156c-16 79 -34 130 -88 130h-10v-286h-128v674zM255 818h133l-122 -113h-93z" />
    <glyph glyph-name="uni040E" unicode="&#x40e;" horiz-adv-x="396" 
d="M-11 674h141l62 -254c9 -38 17 -78 22 -108h3c6 32 10 73 16 111l45 251h133l-100 -359c-23 -85 -49 -177 -83 -235c-32 -53 -81 -88 -137 -88c-23 0 -40 2 -53 6l5 107c6 -1 16 -3 32 -3c34 0 62 35 72 68c5 14 4 25 -1 40zM78 818h83c3 -36 13 -57 44 -57
c28 0 43 20 46 57h83c-10 -86 -57 -115 -130 -115c-67 0 -120 29 -126 115z" />
    <glyph glyph-name="uni040F" unicode="&#x40f;" horiz-adv-x="512" 
d="M58 674h131v-560h134v560h131v-674h-139l-6 -155h-107l-6 155h-138v674z" />
    <glyph glyph-name="uni0410" unicode="&#x410;" horiz-adv-x="458" 
d="M286 154h-121l-30 -154h-127l146 674h157l131 -674h-127zM178 256h96l-22 141c-7 41 -16 108 -22 153h-3c-7 -45 -17 -115 -24 -154z" />
    <glyph glyph-name="uni0411" unicode="&#x411;" horiz-adv-x="475" 
d="M58 674h344v-112h-214v-141c19 4 34 5 53 5c58 0 109 -18 146 -50c40 -35 64 -88 64 -156c0 -65 -20 -117 -56 -153c-46 -49 -118 -72 -215 -72c-50 0 -92 3 -122 7v672zM189 318v-216c9 -2 18 -2 29 -2c31 0 56 12 72 32c17 20 25 48 25 78c0 31 -9 59 -26 78
c-17 20 -41 33 -70 33c-11 0 -21 -1 -30 -3z" />
    <glyph glyph-name="uni0412" unicode="&#x412;" horiz-adv-x="483" 
d="M58 2v662c40 9 92 13 149 13c63 0 124 -8 171 -48c36 -30 51 -75 51 -122c0 -60 -31 -118 -98 -147v-4c78 -22 120 -87 120 -161c0 -56 -18 -99 -50 -132c-40 -44 -108 -68 -221 -68c-50 0 -92 3 -122 7zM189 575v-178h28c47 0 83 40 83 95c0 49 -23 87 -77 87
c-14 0 -26 -1 -34 -4zM189 300v-202c8 -2 17 -2 29 -2c53 0 97 32 97 101c0 67 -46 102 -98 103h-28z" />
    <glyph glyph-name="uni0413" unicode="&#x413;" horiz-adv-x="380" 
d="M58 674h311v-114h-180v-560h-131v674z" />
    <glyph glyph-name="uni0414" unicode="&#x414;" horiz-adv-x="538" 
d="M123 674h347v-562l53 -2l-6 -257h-99l-5 147h-293l-5 -147h-100l-5 257l48 2c21 51 35 102 46 157c13 77 19 156 19 235v170zM243 560v-78c0 -77 -5 -155 -16 -227c-8 -48 -20 -100 -34 -141h147v446h-97z" />
    <glyph glyph-name="uni0415" unicode="&#x415;" horiz-adv-x="394" 
d="M343 405v-109h-154v-182h174v-114h-305v674h293v-114h-162v-155h154z" />
    <glyph glyph-name="uni0416" unicode="&#x416;" horiz-adv-x="698" 
d="M8 674h148l124 -290h9v290h119v-290h10l124 290h148l-181 -308c92 -17 124 -110 142 -192c13 -58 25 -118 45 -174h-127c-15 42 -26 98 -37 141c-15 64 -38 145 -112 145h-12v-286h-119v286h-10c-75 0 -98 -81 -114 -145c-11 -43 -21 -99 -37 -141h-126
c20 56 33 116 45 174c18 82 50 175 142 192z" />
    <glyph glyph-name="uni0417" unicode="&#x417;" horiz-adv-x="400" 
d="M44 542l-22 101c29 20 85 39 149 39c128 0 188 -78 188 -166c0 -69 -46 -136 -114 -153v-2c79 -16 134 -76 134 -169c0 -129 -110 -200 -231 -200c-56 0 -105 13 -136 30l19 107c29 -17 67 -27 104 -27c70 0 107 40 107 94c0 75 -62 105 -133 105h-19v99h13
c60 0 120 29 120 91c0 47 -29 79 -85 79c-31 0 -68 -13 -94 -28z" />
    <glyph glyph-name="uni0418" unicode="&#x418;" horiz-adv-x="513" 
d="M58 674h116v-149c0 -124 -8 -240 -13 -310h2c19 58 53 146 73 198l99 261h119v-674h-115v152c0 135 5 235 8 303h-2c-15 -61 -45 -142 -67 -198l-99 -257h-121v674z" />
    <glyph glyph-name="uni0419" unicode="&#x419;" horiz-adv-x="513" 
d="M58 674h116v-149c0 -124 -8 -240 -13 -310h2c19 58 53 146 73 198l99 261h119v-674h-115v152c0 135 5 235 8 303h-2c-15 -61 -45 -142 -67 -198l-99 -257h-121v674zM129 814h82c3 -37 14 -57 45 -57c27 0 43 20 45 57h83c-10 -86 -56 -115 -129 -115
c-68 0 -121 29 -126 115z" />
    <glyph glyph-name="uni041A" unicode="&#x41a;" horiz-adv-x="454" 
d="M58 674h128v-293h10l110 293h144l-155 -312c69 -26 92 -89 111 -171c15 -65 26 -129 46 -191h-131c-16 48 -26 103 -37 156c-16 79 -34 130 -88 130h-10v-286h-128v674z" />
    <glyph glyph-name="uni041B" unicode="&#x41b;" horiz-adv-x="493" 
d="M84 674h351v-674h-131v560h-100v-178c0 -155 -10 -291 -95 -357c-25 -20 -57 -33 -90 -33l-28 111c16 4 33 12 45 24c39 40 48 112 48 243v304z" />
    <glyph glyph-name="uni041C" unicode="&#x41c;" horiz-adv-x="637" 
d="M482 0l-12 236c-3 64 -8 151 -6 223h-3c-12 -72 -30 -155 -43 -207l-58 -241h-93l-56 237c-13 54 -31 138 -41 211h-3c-2 -73 -6 -158 -10 -225l-11 -234h-113l49 674h138l54 -244c19 -85 36 -160 48 -236h2c10 75 25 151 43 236l53 244h138l41 -674h-117z" />
    <glyph glyph-name="uni041D" unicode="&#x41d;" horiz-adv-x="515" 
d="M58 674h131v-270h137v270h131v-674h-131v282h-137v-282h-131v674z" />
    <glyph glyph-name="uni041E" unicode="&#x41e;" horiz-adv-x="481" 
d="M247 682c163 0 209 -179 209 -333c0 -254 -90 -357 -218 -357c-153 0 -213 162 -213 347c0 184 73 343 222 343zM242 568c-52 0 -81 -86 -81 -231c0 -153 29 -231 82 -231c55 0 76 100 76 237c0 118 -18 225 -77 225z" />
    <glyph glyph-name="uni041F" unicode="&#x41f;" horiz-adv-x="512" 
d="M58 674h396v-674h-131v560h-134v-560h-131v674z" />
    <glyph glyph-name="uni0420" unicode="&#x420;" horiz-adv-x="457" 
d="M58 0v664c37 8 87 13 137 13c78 0 139 -11 183 -52c40 -35 58 -91 58 -148c0 -73 -22 -124 -57 -162c-42 -44 -110 -64 -164 -64h-26v-251h-131zM189 566v-208c6 -2 13 -2 21 -2c66 0 96 47 96 110c0 59 -24 105 -85 105c-12 0 -24 -2 -32 -5z" />
    <glyph glyph-name="uni0421" unicode="&#x421;" horiz-adv-x="395" 
d="M368 120l13 -110c-19 -9 -56 -16 -102 -16c-172 0 -254 142 -254 333c0 254 141 353 272 353c46 0 78 -9 91 -18l-22 -110c-15 7 -32 13 -61 13c-74 0 -141 -64 -141 -231c0 -161 61 -224 141 -224c22 0 47 5 63 10z" />
    <glyph glyph-name="uni0422" unicode="&#x422;" horiz-adv-x="393" 
d="M131 0v553h-119v121h370v-121h-120v-553h-131z" />
    <glyph glyph-name="uni0423" unicode="&#x423;" horiz-adv-x="396" 
d="M-11 674h141l62 -254c9 -38 17 -78 22 -108h3c6 32 10 73 16 111l45 251h133l-100 -359c-23 -85 -49 -177 -83 -235c-32 -53 -81 -88 -137 -88c-23 0 -40 2 -53 6l5 107c6 -1 16 -3 32 -3c34 0 62 35 72 68c5 14 4 25 -1 40z" />
    <glyph glyph-name="uni0424" unicode="&#x424;" horiz-adv-x="592" 
d="M239 698h115v-51c121 -16 213 -111 213 -305c0 -207 -93 -294 -213 -311v-55h-116v55c-122 18 -213 104 -213 308c0 198 109 292 214 308v51zM239 127v425c-40 -12 -83 -66 -83 -215c0 -139 42 -201 83 -210zM353 552v-425c44 9 83 63 83 214c0 153 -45 202 -83 211z" />
    <glyph glyph-name="uni0425" unicode="&#x425;" horiz-adv-x="407" 
d="M411 0h-135l-43 124c-13 39 -24 77 -36 120h-2c-11 -43 -22 -84 -32 -122l-36 -122h-130l126 345l-121 329h137l39 -125c11 -35 20 -70 31 -108h2c11 41 19 73 28 110l34 123h131l-126 -335z" />
    <glyph glyph-name="uni0426" unicode="&#x426;" horiz-adv-x="521" 
d="M58 674h131v-560h133v560h131v-562l53 -2l-6 -257h-99l-6 147h-337v674z" />
    <glyph glyph-name="uni0427" unicode="&#x427;" horiz-adv-x="497" 
d="M53 674h129v-224c0 -55 21 -94 74 -94c19 0 41 6 54 14v304h129v-674h-129v269h-3c-31 -14 -61 -23 -96 -23c-116 0 -158 78 -158 189v239z" />
    <glyph glyph-name="uni0428" unicode="&#x428;" horiz-adv-x="720" 
d="M58 674h129v-560h109v560h128v-560h109v560h129v-674h-604v674z" />
    <glyph glyph-name="uni0429" unicode="&#x429;" horiz-adv-x="730" 
d="M58 674h129v-560h109v560h128v-560h109v560h129v-562l53 -2l-6 -257h-99l-6 147h-546v674z" />
    <glyph glyph-name="uni042A" unicode="&#x42a;" horiz-adv-x="570" 
d="M11 674h272v-251c14 2 34 3 53 3c126 0 210 -82 210 -206c0 -65 -20 -117 -55 -153c-46 -49 -119 -72 -216 -72c-50 0 -92 3 -122 7v560h-142v112zM284 318v-216c9 -2 19 -2 29 -2c64 0 98 51 98 110c0 65 -36 111 -97 111c-10 0 -21 -1 -30 -3z" />
    <glyph glyph-name="uni042B" unicode="&#x42b;" horiz-adv-x="681" 
d="M58 674h130v-252c16 3 34 4 49 4c120 0 205 -80 205 -203c0 -68 -21 -119 -56 -156c-46 -48 -119 -72 -214 -72c-42 0 -84 3 -114 7v672zM189 318v-216c9 -2 17 -2 24 -2c55 0 93 50 93 110c0 65 -35 111 -89 111c-9 0 -20 -1 -28 -3zM491 674h132v-674h-132v674z" />
    <glyph glyph-name="uni042C" unicode="&#x42c;" horiz-adv-x="475" 
d="M58 674h130v-251c11 2 26 3 53 3c128 0 210 -77 210 -206c0 -67 -20 -116 -55 -153c-47 -48 -119 -72 -216 -72c-50 0 -92 3 -122 7v672zM189 318v-216c9 -2 17 -2 25 -2c67 0 101 51 101 112s-33 109 -96 109c-11 0 -22 -1 -30 -3z" />
    <glyph glyph-name="uni042D" unicode="&#x42d;" horiz-adv-x="407" 
d="M64 284v116h184c-1 70 -35 165 -123 165c-28 0 -55 -6 -77 -17l-30 105c29 14 70 29 125 29c194 0 239 -194 239 -348c0 -206 -100 -342 -253 -342c-53 0 -96 15 -119 26l24 109c21 -10 45 -17 76 -17c101 0 130 97 136 174h-182z" />
    <glyph glyph-name="uni042E" unicode="&#x42e;" horiz-adv-x="678" 
d="M58 674h129v-271h61c16 159 87 279 208 279c151 0 197 -179 197 -333c0 -254 -87 -357 -206 -357c-127 0 -190 126 -200 294h-60v-286h-129v674zM450 106c52 0 71 100 71 237c0 118 -17 225 -71 225c-53 0 -74 -106 -74 -228c0 -134 21 -234 74 -234z" />
    <glyph glyph-name="uni042F" unicode="&#x42f;" horiz-adv-x="466" 
d="M145 0h-139c9 20 18 46 26 72c18 68 18 162 68 215c12 13 30 24 48 29v2c-71 22 -116 77 -116 162c0 69 26 117 62 147c43 35 103 50 171 50c50 0 102 -4 143 -13v-664h-131v269h-14c-23 0 -41 -9 -54 -25c-29 -37 -34 -135 -45 -185c-5 -20 -10 -40 -19 -59zM277 371
v201c-7 1 -15 3 -26 3c-61 0 -87 -49 -87 -100c0 -64 38 -105 95 -105c8 0 11 0 18 1z" />
    <glyph glyph-name="uni0430" unicode="&#x430;" horiz-adv-x="422" 
d="M383 0h-118l-7 48h-2c-27 -38 -65 -56 -108 -56c-74 0 -129 62 -129 149c0 128 113 181 224 182v11c0 38 -23 66 -69 66c-39 0 -71 -10 -100 -28l-24 88c27 16 84 37 152 37c149 0 173 -104 173 -203v-182c0 -39 2 -79 8 -112zM247 153v85c-44 -1 -104 -15 -104 -83
c0 -49 27 -67 47 -67c21 0 45 13 54 42c2 7 3 15 3 23z" />
    <glyph glyph-name="uni0431" unicode="&#x431;" horiz-adv-x="452" 
d="M385 700l-9 -111c-20 -9 -47 -13 -76 -18c-79 -11 -111 -36 -132 -72c-14 -25 -23 -55 -26 -88h3c20 42 65 78 119 78c93 0 159 -80 159 -240c0 -141 -64 -257 -193 -257c-160 0 -197 167 -197 302c0 106 14 198 56 265c36 59 92 100 179 116c31 6 95 16 117 25zM295 242
c0 59 -13 146 -68 146c-28 0 -47 -23 -56 -50c-10 -29 -12 -62 -12 -85c0 -57 12 -158 69 -158c59 0 67 102 67 147z" />
    <glyph glyph-name="uni0432" unicode="&#x432;" horiz-adv-x="452" 
d="M46 -1v488c40 6 92 10 142 10c86 0 216 -13 216 -123c0 -62 -44 -101 -94 -113v-2c73 -12 115 -58 115 -116c0 -130 -159 -149 -259 -149c-46 0 -92 2 -120 5zM172 409v-115h30c43 0 80 21 80 61c0 38 -30 57 -77 57c-12 0 -23 -1 -33 -3zM171 209v-127c9 -2 22 -3 33 -3
c46 0 91 16 91 64c0 46 -42 66 -93 66h-31z" />
    <glyph glyph-name="uni0433" unicode="&#x433;" horiz-adv-x="328" 
d="M46 489h271v-108h-141v-381h-130v489z" />
    <glyph glyph-name="uni0434" unicode="&#x434;" horiz-adv-x="481" 
d="M102 489h320v-393l45 -2l-5 -229h-99l-6 135h-237l-7 -135h-98l-5 229l40 2c17 27 29 65 36 100c11 51 16 106 16 160v133zM217 388v-41c0 -48 -4 -100 -12 -149c-6 -35 -15 -68 -30 -99h118v289h-76z" />
    <glyph glyph-name="uni0435" unicode="&#x435;" horiz-adv-x="419" 
d="M387 198h-232c2 -76 46 -104 104 -104c37 0 70 8 93 16l18 -94c-34 -13 -85 -22 -135 -22c-133 0 -206 88 -206 241c0 164 85 262 196 262c105 0 166 -83 166 -231c0 -35 -1 -54 -4 -68zM156 290h116c0 63 -16 112 -55 112c-43 0 -60 -63 -61 -112z" />
    <glyph glyph-name="uni0436" unicode="&#x436;" horiz-adv-x="600" 
d="M4 489h136l77 -199h20v199h126v-199h20l76 199h137l-123 -218c44 -17 69 -68 81 -131c9 -40 28 -109 42 -140h-128c-13 25 -21 67 -31 117c-12 54 -34 89 -63 89h-11v-206h-126v206h-11c-35 0 -51 -37 -64 -90c-10 -50 -18 -90 -31 -116h-127c14 32 34 101 42 139
c12 55 36 115 81 132z" />
    <glyph glyph-name="uni0437" unicode="&#x437;" horiz-adv-x="376" 
d="M80 210v86h41c48 0 78 21 78 57c0 32 -24 54 -70 54c-28 0 -61 -11 -86 -24l-20 81c35 20 87 33 147 33c108 0 162 -55 162 -124c0 -58 -41 -96 -101 -110v-2c70 -10 119 -56 119 -120c0 -100 -100 -149 -210 -149c-51 0 -97 11 -132 28l22 87c23 -10 62 -21 95 -21
c65 0 90 30 90 60c0 46 -45 64 -93 64h-42z" />
    <glyph glyph-name="uni0438" unicode="&#x438;" horiz-adv-x="454" 
d="M46 489h118v-106c0 -89 -5 -175 -10 -225h3c16 51 38 106 54 145l74 186h124v-489h-119v107c0 99 5 155 8 220h-3c-15 -51 -28 -92 -47 -139c-13 -33 -52 -129 -80 -188h-122v489z" />
    <glyph glyph-name="uni0439" unicode="&#x439;" horiz-adv-x="454" 
d="M46 489h118v-106c0 -89 -5 -175 -10 -225h3c16 51 38 106 54 145l74 186h124v-489h-119v107c0 99 5 155 8 220h-3c-15 -51 -28 -92 -47 -139c-13 -33 -52 -129 -80 -188h-122v489zM101 678h80c1 -40 18 -61 45 -61c32 0 46 24 47 61h80c-4 -78 -48 -126 -130 -126
c-79 0 -119 48 -122 126z" />
    <glyph glyph-name="uni043A" unicode="&#x43a;" horiz-adv-x="415" 
d="M46 489h128v-195h14l85 195h136l-126 -210c49 -16 74 -76 87 -140c8 -37 28 -106 43 -139h-131c-14 27 -24 69 -35 119c-12 49 -32 84 -64 84h-9v-203h-128v489z" />
    <glyph glyph-name="uni043B" unicode="&#x43b;" horiz-adv-x="438" 
d="M66 489h326v-489h-131v384h-73v-103c0 -131 -13 -233 -100 -273c-21 -10 -46 -16 -67 -16l-21 105c24 6 35 19 44 34c18 32 22 92 22 146v212z" />
    <glyph glyph-name="uni043C" unicode="&#x43c;" horiz-adv-x="593" 
d="M33 0l35 489h163l36 -156c10 -42 19 -80 33 -143h3c13 62 20 102 29 143l34 156h163l32 -489h-122l-6 171c-1 46 -3 104 -5 207h-2c-8 -42 -24 -127 -41 -202l-38 -168h-106l-39 170c-12 55 -29 150 -40 200h-2c-1 -101 -3 -160 -4 -208l-5 -170h-118z" />
    <glyph glyph-name="uni043D" unicode="&#x43d;" horiz-adv-x="457" 
d="M46 489h131v-185h103v185h131v-489h-131v193h-103v-193h-131v489z" />
    <glyph glyph-name="uni043E" unicode="&#x43e;" horiz-adv-x="431" 
d="M218 497c115 0 185 -97 185 -251c0 -204 -113 -254 -187 -254c-117 0 -187 92 -187 251c0 176 92 254 189 254zM217 398c-48 0 -58 -85 -58 -152c0 -84 13 -154 60 -154c42 0 53 82 53 154c0 67 -11 152 -55 152z" />
    <glyph glyph-name="uni043F" unicode="&#x43f;" horiz-adv-x="456" 
d="M46 489h364v-489h-131v383h-102v-383h-131v489z" />
    <glyph glyph-name="uni0440" unicode="&#x440;" horiz-adv-x="447" 
d="M45 -192v526c0 59 -2 109 -4 155h114l7 -56h2c20 40 57 64 102 64c108 0 152 -116 152 -252c0 -174 -77 -253 -159 -253c-40 0 -67 25 -81 48h-2v-232h-131zM176 310v-131c0 -17 2 -32 7 -42c10 -30 27 -38 42 -38c46 0 62 68 62 145c0 93 -22 143 -61 143
c-20 0 -39 -19 -44 -42c-5 -10 -6 -23 -6 -35z" />
    <glyph glyph-name="uni0441" unicode="&#x441;" horiz-adv-x="323" 
d="M306 111l11 -103c-13 -6 -46 -14 -83 -14c-124 0 -205 86 -205 246c0 151 89 256 224 256c31 0 59 -7 72 -13l-17 -103c-11 4 -27 9 -49 9c-63 0 -100 -60 -100 -145c0 -89 37 -143 98 -143c19 0 35 3 49 10z" />
    <glyph glyph-name="uni0442" unicode="&#x442;" horiz-adv-x="370" 
d="M10 489h350v-106h-109v-383h-132v383h-109v106z" />
    <glyph glyph-name="uni0443" unicode="&#x443;" horiz-adv-x="391" 
d="M5 489h141l48 -254c5 -29 9 -56 13 -82h2c4 25 8 53 12 80l41 256h128l-100 -377c-24 -92 -56 -187 -109 -250c-41 -48 -91 -71 -111 -77l-40 113c23 8 45 23 65 41c18 17 32 37 41 58c4 9 7 14 7 21c0 6 -2 12 -4 18z" />
    <glyph glyph-name="uni0444" unicode="&#x444;" horiz-adv-x="556" 
d="M221 692h113v-195c127 -20 193 -112 193 -254c0 -143 -61 -234 -193 -251v-184h-113v184c-132 18 -192 106 -192 251c0 141 65 232 192 253v196zM221 73v345c-64 -27 -76 -108 -76 -172c0 -76 16 -150 76 -173zM334 418v-346c60 25 77 97 77 174c0 63 -14 142 -77 172z
" />
    <glyph glyph-name="uni0445" unicode="&#x445;" horiz-adv-x="396" 
d="M7 489h142l30 -87c10 -29 18 -58 24 -82h2c7 25 15 55 23 82l29 87h132l-111 -240l113 -249h-143l-33 92c-9 25 -17 50 -24 75h-2c-6 -25 -15 -50 -22 -75l-30 -92h-131l109 243z" />
    <glyph glyph-name="uni0446" unicode="&#x446;" horiz-adv-x="468" 
d="M46 489h131v-382h100v382h132v-393l45 -2l-5 -229h-99l-6 135h-298v489z" />
    <glyph glyph-name="uni0447" unicode="&#x447;" horiz-adv-x="448" 
d="M41 489h131v-173c0 -40 14 -67 53 -67c19 0 35 6 46 14v226h132v-489h-131v176h-3c-20 -14 -57 -22 -90 -22c-97 0 -138 61 -138 155v180z" />
    <glyph glyph-name="uni0448" unicode="&#x448;" horiz-adv-x="664" 
d="M46 489h129v-382h93v382h129v-382h93v382h128v-489h-572v489z" />
    <glyph glyph-name="uni0449" unicode="&#x449;" horiz-adv-x="678" 
d="M46 489h129v-382h93v382h129v-382h93v382h128v-393l46 -2l-5 -229h-99l-6 135h-508v489z" />
    <glyph glyph-name="uni044A" unicode="&#x44a;" horiz-adv-x="530" 
d="M11 489h242v-156c19 3 34 4 51 4c103 0 200 -49 200 -163c0 -62 -26 -104 -62 -131c-51 -37 -123 -48 -190 -48c-43 0 -91 4 -128 9v379h-113v106zM253 239v-147c10 -1 18 -1 32 -1c43 0 87 23 87 75c0 53 -45 75 -92 75c-9 0 -18 -1 -27 -2z" />
    <glyph glyph-name="uni044B" unicode="&#x44b;" horiz-adv-x="628" 
d="M46 489h129v-156c16 3 32 4 51 4c95 0 187 -52 187 -163c0 -62 -26 -104 -62 -131c-51 -37 -123 -48 -177 -48c-43 0 -91 4 -128 9v485zM175 239v-147c8 -1 18 -1 28 -1c35 0 78 24 78 75c0 53 -44 75 -79 75c-10 0 -18 0 -27 -2zM453 489h131v-489h-131v489z" />
    <glyph glyph-name="uni044C" unicode="&#x44c;" horiz-adv-x="452" 
d="M46 489h129v-156c18 3 34 4 51 4c107 0 200 -49 200 -167c0 -58 -26 -100 -62 -127c-51 -37 -123 -48 -190 -48c-43 0 -91 4 -128 9v485zM175 239v-147c10 -1 18 -1 28 -1c47 0 91 23 91 75c0 53 -45 75 -92 75c-10 0 -18 -1 -27 -2z" />
    <glyph glyph-name="uni044D" unicode="&#x44d;" horiz-adv-x="375" 
d="M48 204v88h164c-5 58 -38 107 -104 107c-36 0 -59 -8 -77 -16l-20 91c23 12 71 23 118 23c64 0 116 -23 152 -61c42 -47 65 -114 65 -188c0 -162 -99 -256 -233 -256c-42 0 -86 11 -106 21l16 95c24 -8 44 -14 76 -14c64 0 108 47 113 110h-164z" />
    <glyph glyph-name="uni044E" unicode="&#x44e;" horiz-adv-x="610" 
d="M46 489h128v-186h46c19 134 98 194 180 194c114 0 181 -97 181 -251c0 -204 -110 -254 -182 -254c-102 0 -169 75 -180 207h-45v-199h-128v489zM400 92c42 0 54 82 54 154c0 67 -12 152 -55 152c-47 0 -58 -85 -58 -152c0 -84 15 -154 59 -154z" />
    <glyph glyph-name="uni044F" unicode="&#x44f;" horiz-adv-x="437" 
d="M391 484v-484h-126v192h-12c-16 0 -27 -5 -36 -10c-37 -21 -48 -88 -63 -146c-3 -13 -8 -25 -14 -36h-136c10 15 19 33 25 54c12 43 27 107 59 142c13 14 32 26 59 34v2c-61 13 -114 50 -114 120c0 49 21 81 57 106c33 23 97 35 164 35c54 0 105 -3 137 -9zM266 271v137
c-9 2 -18 3 -28 3c-45 0 -74 -23 -74 -67c0 -43 36 -74 83 -74c8 0 12 0 19 1z" />
    <glyph glyph-name="uni0451" unicode="&#x451;" horiz-adv-x="419" 
d="M387 198h-232c2 -76 46 -104 104 -104c37 0 70 8 93 16l18 -94c-34 -13 -85 -22 -135 -22c-133 0 -206 88 -206 241c0 164 85 262 196 262c105 0 166 -83 166 -231c0 -35 -1 -54 -4 -68zM156 290h116c0 63 -16 112 -55 112c-43 0 -60 -63 -61 -112zM139 560
c-33 0 -60 27 -60 64s27 64 60 64c34 0 60 -26 60 -64c0 -37 -25 -64 -60 -64zM317 560c-34 0 -61 27 -61 64s28 64 61 64s59 -26 59 -64c0 -37 -25 -64 -59 -64z" />
    <glyph glyph-name="uni0452" unicode="&#x452;" horiz-adv-x="462" 
d="M2 627h54v65h131v-65h166v-80h-166v-112h2c22 31 58 56 100 56c40 0 77 -22 101 -65c27 -47 40 -121 40 -204c0 -162 -36 -248 -89 -299c-31 -29 -71 -47 -98 -51l-29 109c17 4 37 16 52 39c25 42 34 124 34 198c0 34 -3 83 -16 121c-9 26 -22 42 -44 42
c-18 0 -32 -12 -40 -25c-10 -17 -13 -34 -13 -50v-306h-131v547h-54v80z" />
    <glyph glyph-name="uni0453" unicode="&#x453;" horiz-adv-x="328" 
d="M46 489h271v-108h-141v-381h-130v489zM191 689h115l-101 -140h-83z" />
    <glyph glyph-name="uni0454" unicode="&#x454;" horiz-adv-x="372" 
d="M370 475l-22 -92c-16 8 -37 18 -74 18c-68 0 -106 -52 -111 -109h166v-88h-166c7 -67 47 -114 116 -114c26 0 51 6 71 15l17 -92c-21 -10 -57 -21 -109 -21c-135 0 -229 95 -229 248c0 145 85 257 240 257c44 0 83 -11 101 -22z" />
    <glyph glyph-name="uni0455" unicode="&#x455;" horiz-adv-x="324" 
d="M18 22l24 96c19 -12 55 -26 88 -26c34 0 53 15 53 44c0 25 -14 41 -57 66c-80 45 -99 96 -99 141c0 88 63 154 161 154c41 0 73 -10 99 -22l-23 -96c-19 11 -42 20 -68 20c-33 0 -49 -20 -49 -42s11 -34 57 -61c72 -41 99 -92 99 -148c0 -100 -72 -154 -173 -154
c-41 0 -89 11 -112 28z" />
    <glyph glyph-name="uni0456" unicode="&#x456;" horiz-adv-x="223" 
d="M177 0h-131v489h131v-489zM110 690c38 0 67 -27 67 -71c1 -42 -29 -71 -69 -71c-36 0 -66 29 -65 71c-1 44 31 71 67 71z" />
    <glyph glyph-name="uni0457" unicode="&#x457;" horiz-adv-x="223" 
d="M177 0h-131v489h131v-489zM23 560c-34 0 -60 27 -60 64s27 64 60 64c34 0 59 -26 59 -64c0 -37 -25 -64 -59 -64zM200 560c-33 0 -60 27 -60 64s28 64 60 64c34 0 60 -26 60 -64c0 -37 -25 -64 -60 -64z" />
    <glyph glyph-name="uni0458" unicode="&#x458;" horiz-adv-x="224" 
d="M-29 -200l-10 104c23 3 48 8 64 26c19 20 22 55 22 130v429h132v-454c0 -109 -23 -160 -65 -193c-36 -29 -96 -42 -143 -42zM113 690c37 0 67 -27 67 -71c0 -42 -30 -71 -69 -71c-36 0 -66 29 -65 71c-1 44 30 71 67 71z" />
    <glyph glyph-name="uni0459" unicode="&#x459;" horiz-adv-x="669" 
d="M66 489h327v-155c18 2 32 3 48 3c106 0 202 -50 202 -166c0 -58 -24 -98 -60 -125c-53 -39 -132 -51 -198 -51c-43 0 -85 4 -122 9v380h-75v-103c0 -131 -13 -233 -100 -273c-20 -10 -46 -15 -67 -15l-21 104c24 6 35 19 44 35c18 27 22 82 22 146v211zM393 239v-147
c9 -1 17 -1 27 -1c47 0 91 23 91 75c0 54 -43 75 -92 75c-9 0 -18 -1 -26 -2z" />
    <glyph glyph-name="uni045A" unicode="&#x45a;" horiz-adv-x="678" 
d="M46 489h131v-173h95v173h130v-157c19 2 34 3 53 3c107 0 198 -53 198 -169c0 -56 -25 -94 -61 -121c-53 -38 -131 -50 -198 -50c-42 0 -84 4 -122 8v208h-95v-211h-131v489zM402 237v-145c9 -1 18 -1 28 -1c50 0 91 22 91 74c0 54 -43 74 -92 74c-10 0 -18 -1 -27 -2z
" />
    <glyph glyph-name="uni045B" unicode="&#x45b;" horiz-adv-x="458" 
d="M412 0h-131v297c0 48 -9 90 -48 90c-22 0 -41 -13 -51 -46c-2 -8 -5 -26 -5 -37v-304h-131v533h-61v81h61v78h131v-78h132v-81h-132v-95h2c11 17 26 31 42 42c19 11 42 17 66 17c90 0 125 -76 125 -200v-297z" />
    <glyph glyph-name="uni045C" unicode="&#x45c;" horiz-adv-x="415" 
d="M46 489h128v-195h14l85 195h136l-126 -210c49 -16 74 -76 87 -140c8 -37 28 -106 43 -139h-131c-14 27 -24 69 -35 119c-12 49 -32 84 -64 84h-9v-203h-128v489zM230 689h115l-101 -140h-83z" />
    <glyph glyph-name="uni045E" unicode="&#x45e;" horiz-adv-x="391" 
d="M5 489h141l48 -254c5 -29 9 -56 13 -82h2c4 25 8 53 12 80l41 256h128l-100 -377c-24 -92 -56 -187 -109 -250c-41 -48 -91 -71 -111 -77l-40 113c23 8 45 23 65 41c18 17 32 37 41 58c4 9 7 14 7 21c0 6 -2 12 -4 18zM70 678h80c1 -40 18 -61 45 -61c31 0 46 24 47 61
h80c-4 -78 -48 -126 -130 -126c-79 0 -120 48 -122 126z" />
    <glyph glyph-name="uni045F" unicode="&#x45f;" horiz-adv-x="455" 
d="M46 489h132v-382h99v382h132v-489h-126l-6 -139h-101l-6 139h-124v489z" />
    <glyph glyph-name="uni0490" unicode="&#x490;" horiz-adv-x="374" 
d="M58 674h210l14 122h90l-10 -236h-173v-560h-131v674z" />
    <glyph glyph-name="uni0491" unicode="&#x491;" horiz-adv-x="327" 
d="M46 489h171l13 112h94l-8 -220h-140v-381h-130v489z" />
    <glyph glyph-name="breve.cyrcap" unicode="&#xf6d1;" 
d="M22 835h83c3 -36 13 -57 44 -57c28 0 43 20 46 57h83c-10 -86 -57 -115 -130 -115c-67 0 -120 29 -126 115z" />
    <glyph glyph-name="circumflex.cyrcap" unicode="&#xf6d2;" 
d="M278 719h-83c-3 36 -13 57 -44 57c-28 0 -43 -21 -46 -57h-83c10 86 57 115 130 115c67 0 120 -29 126 -115z" />
    <glyph glyph-name="breve.cyr" unicode="&#xf6d4;" 
d="M24 678h80c2 -40 18 -61 45 -61c32 0 46 24 48 61h80c-5 -78 -48 -126 -131 -126c-78 0 -119 48 -122 126z" />
    <glyph glyph-name="circumflex.cyr" unicode="&#xf6d5;" 
d="M104 572h-80c4 78 48 125 131 125c78 0 119 -47 122 -125h-80c-2 40 -19 61 -45 61c-32 0 -47 -24 -48 -61z" />
    <glyph glyph-name="Ohorn" unicode="&#x1a0;" horiz-adv-x="481" 
d="M243 106c55 0 76 100 76 237c0 118 -18 225 -77 225c-58 0 -81 -106 -81 -228c-1 -134 23 -234 82 -234zM382 725l92 14c11 -22 21 -50 21 -85c0 -53 -26 -89 -76 -98c21 -47 37 -112 37 -207c0 -254 -90 -357 -218 -357c-153 0 -213 162 -213 347c0 184 73 343 222 343
c24 0 54 -5 79 -17c33 -17 47 -32 59 -32c13 0 18 9 18 24c0 24 -11 48 -21 68z" />
    <glyph glyph-name="Uhorn" unicode="&#x1af;" horiz-adv-x="529" 
d="M424 765l92 12c12 -25 20 -54 20 -86c0 -52 -28 -84 -79 -92l-12 -1v-339c0 -173 -65 -267 -195 -267c-141 0 -196 97 -196 266v416h131v-438c0 -99 30 -129 64 -129c38 0 65 27 65 129v438h95c22 0 33 4 33 28c0 21 -7 45 -18 63z" />
    <glyph glyph-name="ohorn" unicode="&#x1a1;" horiz-adv-x="431" 
d="M217 398c-48 0 -58 -85 -58 -152c0 -84 13 -154 60 -154c42 0 53 82 53 154c0 67 -11 152 -55 152zM332 556l92 12c10 -21 21 -50 21 -87c0 -48 -25 -78 -70 -89c16 -34 28 -85 28 -146c0 -204 -113 -254 -187 -254c-117 0 -187 92 -187 251c0 176 92 254 189 254
c25 0 47 -5 65 -12c15 -5 33 -18 49 -18c12 0 19 9 19 26c0 22 -8 44 -19 63z" />
    <glyph glyph-name="uhorn" unicode="&#x1b0;" horiz-adv-x="452" 
d="M370 580l92 12c13 -24 20 -53 20 -83c0 -50 -27 -79 -73 -86l-5 -1v-273c0 -52 2 -103 4 -149h-113l-7 52h-2c-23 -33 -63 -60 -113 -60c-93 0 -131 69 -131 201v296h132v-282c0 -64 12 -105 49 -105c22 0 36 17 42 33c5 10 8 25 8 42v312h85c23 0 31 8 31 29
c0 20 -8 44 -19 62z" />
    <glyph glyph-name="dong" unicode="&#x20ab;" horiz-adv-x="426" 
d="M69 111h296v-83h-296v83zM250 659h112v-57h42v-68h-42v-276c0 -32 2 -71 4 -103h-97l-6 40h-3c-15 -25 -48 -46 -86 -46c-89 0 -130 83 -130 179c0 121 64 181 134 181c34 0 56 -16 70 -35h2v60h-90v68h90v57zM250 279v91c0 6 0 13 -1 20c-4 20 -18 39 -40 39
c-38 0 -52 -46 -52 -101c0 -66 21 -99 51 -99c14 0 30 6 38 29c3 5 4 13 4 21z" />
    <glyph glyph-name="dong.alt" unicode="&#xe184;" horiz-adv-x="426" 
d="M250 659h112v-57h42v-68h-42v-276c0 -32 2 -71 4 -103h-97l-6 40h-3c-15 -25 -48 -46 -86 -46c-89 0 -130 83 -130 179c0 121 64 181 134 181c34 0 56 -16 70 -35h2v60h-90v68h90v57zM250 279v91c0 6 0 13 -1 20c-4 20 -18 39 -40 39c-38 0 -52 -46 -52 -101
c0 -66 21 -99 51 -99c14 0 30 6 38 29c3 5 4 13 4 21z" />
    <glyph glyph-name="uni1EA0" unicode="&#x1ea0;" horiz-adv-x="458" 
d="M286 154h-121l-30 -154h-127l146 674h157l131 -674h-127zM178 256h96l-22 141c-7 41 -16 108 -22 153h-3c-7 -45 -17 -115 -24 -154zM228 -208c-34 0 -62 30 -62 64c0 36 29 64 62 64c35 0 63 -28 63 -64c0 -34 -28 -64 -63 -64z" />
    </font>
</defs>
</svg>
